<svg xmlns="http://www.w3.org/2000/svg" xmlns:xlink="http://www.w3.org/1999/xlink" width="100" zoomAndPan="magnify" viewBox="0 0 75 74.999997" height="100" preserveAspectRatio="xMidYMid meet" version="1.0"><defs><clipPath id="51faebee33"><path d="M 5 7.921875 L 72 7.921875 L 72 67.171875 L 5 67.171875 Z M 5 7.921875 " clip-rule="nonzero"/></clipPath></defs><rect x="-7.5" width="90" fill="#ffffff" y="-7.5" height="89.999996" fill-opacity="1"/><rect x="-7.5" width="90" fill="#ffffff" y="-7.5" height="89.999996" fill-opacity="1"/><g clip-path="url(#51faebee33)"><path fill="#40cec8" d="M 25.632812 67.167969 C 26.054688 66.265625 31.257812 62.660156 34.167969 66.414062 C 38.601562 62.011719 42.101562 60.070312 42.703125 65.660156 C 42.101562 60.070312 40.316406 42.605469 42.363281 55.683594 C 40.238281 40.28125 39.734375 37.453125 42.027344 45.707031 C 39.738281 37.453125 40.683594 39.160156 49.234375 52.109375 C 41.929688 40.269531 49.785156 50.03125 56.445312 58.511719 C 49.785156 50.03125 49.371094 46.027344 62.234375 51.8125 C 52.230469 42.71875 55.550781 41.597656 68.027344 45.109375 C 55.550781 41.597656 43.722656 38.195312 59.183594 41.789062 C 42.214844 37.628906 40.074219 37.171875 50.335938 38.464844 C 40.074219 37.171875 42.769531 37.199219 60.925781 36.625 C 44.839844 36.839844 61.007812 35.554688 71.519531 34.785156 C 61.007812 35.554688 62.125 32.855469 70.429688 27.5625 C 61.34375 27.667969 65.46875 22.527344 69.34375 20.335938 C 65.46875 22.527344 44.152344 34.429688 56.34375 26.222656 C 41.625 35.574219 39.734375 36.996094 43.34375 32.109375 C 39.734375 36.992188 40.839844 34.753906 47.121094 20.015625 C 41.644531 32.167969 49.894531 10.53125 50.898438 7.925781 C 49.894531 10.53125 45.207031 14.171875 42.363281 8.679688 C 38.410156 14.773438 35.160156 15.796875 33.828125 9.433594 C 35.160156 15.796875 38.414062 32.191406 34.167969 19.410156 C 38.488281 34.355469 39.441406 36.816406 34.503906 29.386719 C 39.441406 36.816406 37.992188 35.058594 27.296875 22.984375 C 36.636719 33.851562 27.023438 23.867188 20.089844 16.582031 C 27.023438 23.867188 26.621094 27.152344 14.292969 23.28125 C 23.261719 31.039062 18.253906 32.21875 8.503906 29.984375 C 18.253906 32.21875 33.230469 35.804688 17.347656 33.304688 C 35.351562 36.601562 38.839844 37.085938 26.191406 36.628906 C 38.839844 37.085938 34.265625 37.238281 15.601562 38.46875 C 31.226562 37.769531 11.285156 39.730469 5.011719 40.308594 C 11.285156 39.730469 10.183594 42.996094 6.101562 47.53125 C 11.121094 49.238281 8.191406 54.210938 7.1875 54.757812 C 8.191406 54.210938 32.222656 41.316406 20.1875 48.871094 C 35.9375 39.636719 39.421875 37.3125 33.1875 42.984375 C 39.421875 37.3125 37.292969 40.46875 29.410156 55.078125 C 36.230469 43.871094 26.054688 66.265625 25.632812 67.167969 Z M 35.003906 41.039062 C 39.53125 37.207031 39.535156 37.117188 34.433594 37.253906 C 39.535156 37.121094 39.527344 37.160156 34.328125 39.121094 C 39.527344 37.160156 39.628906 37.140625 39.003906 38.710938 C 39.625 37.144531 39.636719 37.242188 39.574219 42.496094 C 39.632812 37.242188 39.636719 37.183594 39.679688 40.628906 C 39.640625 37.183594 39.53125 37.207031 35.003906 41.039062 Z M 35.003906 41.039062 " fill-opacity="1" fill-rule="nonzero"/></g><path fill="#e90985" d="M 74.910156 50.050781 C 73.835938 49.640625 69.648438 45.074219 74.238281 42.90625 C 69.070312 38.925781 66.835938 35.882812 73.5625 35.765625 C 66.835938 35.882812 45.8125 36.1875 61.574219 35.371094 C 43.019531 36.09375 39.605469 36.316406 49.582031 34.976562 C 39.605469 36.316406 41.683594 35.648438 57.464844 29.417969 C 43.050781 34.6875 54.984375 28.820312 65.347656 23.859375 C 54.984375 28.820312 50.167969 28.894531 57.457031 18.589844 C 46.269531 26.289062 45.011719 23.453125 49.566406 13.320312 C 45.007812 23.453125 40.601562 33.054688 45.335938 20.449219 C 39.886719 34.269531 39.277344 36.023438 41.113281 27.578125 C 39.277344 36.023438 39.386719 33.785156 39.191406 18.648438 C 39.011719 32.039062 37.902344 18.511719 37.265625 9.722656 C 37.90625 18.511719 34.691406 17.402344 28.5625 10.136719 C 28.445312 17.699219 22.378906 13.917969 19.855469 10.550781 C 22.378906 13.917969 36.097656 32.449219 26.570312 21.753906 C 37.402344 34.625 39.058594 36.289062 33.289062 32.960938 C 39.058594 36.289062 36.398438 35.222656 18.871094 29 C 33.316406 34.375 7.550781 26.054688 4.453125 25.042969 C 7.550781 26.054688 11.796875 30.195312 5.125 32.1875 C 12.335938 35.882812 13.476562 38.648438 5.800781 39.328125 C 13.476562 38.648438 33.253906 37.058594 17.789062 39.722656 C 35.855469 37.144531 38.832031 36.519531 29.78125 40.121094 C 38.835938 36.519531 36.683594 37.601562 21.898438 45.675781 C 35.199219 38.652344 22.949219 45.964844 14.015625 51.234375 C 22.949219 45.964844 26.882812 46.519531 21.90625 56.503906 C 31.460938 49.574219 32.742188 53.816406 29.796875 61.773438 C 32.742188 53.820312 37.453125 41.617188 34.027344 54.648438 C 38.46875 39.90625 39.148438 37.039062 38.253906 47.519531 C 39.148438 37.039062 39.210938 40.851562 40.179688 56.445312 C 39.761719 43.414062 41.578125 60.121094 42.101562 65.375 C 41.574219 60.121094 45.46875 61.257812 50.804688 64.960938 C 52.992188 60.898438 58.882812 63.671875 59.511719 64.546875 C 58.882812 63.675781 44.050781 42.824219 52.796875 53.339844 C 42.125 39.621094 39.433594 36.566406 46.074219 42.132812 C 39.433594 36.566406 43.164062 38.550781 60.492188 46.09375 C 47.21875 39.664062 73.835938 49.640625 74.910156 50.050781 Z M 43.789062 40.492188 C 39.308594 36.46875 39.203125 36.460938 39.226562 40.710938 C 39.203125 36.460938 39.25 36.472656 41.464844 40.921875 C 39.25 36.472656 39.234375 36.382812 41.097656 37.007812 C 39.234375 36.382812 39.351562 36.382812 45.65625 36.789062 C 39.351562 36.382812 39.28125 36.378906 43.417969 36.574219 C 39.28125 36.375 39.3125 36.46875 43.789062 40.492188 Z M 43.789062 40.492188 " fill-opacity="1" fill-rule="nonzero"/><path fill="#2f292b" d="M 10.3125 62.242188 C 9.726562 62.445312 9.125 62.566406 8.503906 62.605469 C 7.914062 62.644531 7.335938 62.597656 6.761719 62.460938 C 6.113281 62.308594 5.527344 62.03125 4.996094 61.628906 C 4.367188 61.148438 3.925781 60.53125 3.667969 59.777344 C 3.496094 59.257812 3.441406 58.722656 3.507812 58.179688 C 3.5625 57.703125 3.699219 57.253906 3.917969 56.824219 C 4.128906 56.40625 4.40625 56.03125 4.746094 55.707031 C 5.15625 55.304688 5.632812 55.015625 6.175781 54.835938 L 7.71875 54.316406 L 8.664062 55.167969 C 8.664062 55.011719 8.65625 54.84375 8.636719 54.660156 C 8.578125 54.050781 8.484375 53.453125 8.351562 52.855469 C 8.199219 52.136719 8.007812 51.359375 7.777344 50.546875 C 7.535156 49.683594 7.269531 48.773438 6.984375 47.820312 C 6.742188 47.011719 6.503906 46.226562 6.269531 45.464844 C 6.035156 44.699219 5.800781 43.949219 5.5625 43.207031 C 5.320312 42.453125 5.078125 41.699219 4.832031 40.945312 L 4.597656 40.238281 L 2.636719 41.269531 L 0.0898438 35.90625 L 2.113281 34.582031 C 2.804688 34.125 3.441406 33.742188 4.007812 33.4375 C 4.539062 33.140625 5.09375 32.890625 5.664062 32.6875 C 6.3125 32.453125 6.976562 32.371094 7.660156 32.445312 C 8.492188 32.550781 9.203125 32.90625 9.785156 33.507812 C 10.1875 33.929688 10.496094 34.410156 10.707031 34.953125 C 10.8125 35.214844 10.929688 35.535156 11.054688 35.894531 C 11.101562 36.039062 11.171875 36.257812 11.261719 36.554688 C 11.335938 36.789062 11.859375 38.523438 11.859375 38.523438 L 12.269531 39.859375 C 12.609375 40.957031 12.949219 42.078125 13.292969 43.21875 C 13.644531 44.386719 13.972656 45.5625 14.261719 46.707031 C 14.554688 47.851562 14.816406 49.023438 15.023438 50.164062 C 15.234375 51.292969 15.371094 52.425781 15.429688 53.574219 C 15.472656 54.308594 15.445312 55.039062 15.351562 55.769531 C 15.261719 56.433594 15.105469 57.082031 14.882812 57.714844 C 14.667969 58.304688 14.390625 58.863281 14.042969 59.386719 C 13.71875 59.867188 13.347656 60.304688 12.925781 60.695312 C 12.527344 61.0625 12.097656 61.378906 11.628906 61.648438 C 11.207031 61.886719 10.769531 62.085938 10.3125 62.242188 Z M 10.3125 62.242188 " fill-opacity="1" fill-rule="nonzero"/><path fill="#feca36" d="M 10.109375 60.589844 C 9.617188 60.757812 9.113281 60.859375 8.59375 60.894531 C 8.113281 60.925781 7.640625 60.886719 7.171875 60.78125 C 6.679688 60.664062 6.234375 60.457031 5.832031 60.148438 C 5.378906 59.804688 5.058594 59.359375 4.875 58.820312 C 4.753906 58.457031 4.71875 58.085938 4.765625 57.703125 C 4.804688 57.359375 4.902344 57.035156 5.054688 56.726562 C 5.210938 56.417969 5.414062 56.144531 5.664062 55.90625 C 5.957031 55.621094 6.296875 55.414062 6.683594 55.285156 L 7.605469 54.972656 L 8.332031 55.628906 C 8.492188 55.800781 8.683594 55.917969 8.90625 55.988281 C 9.074219 56.019531 9.238281 56.007812 9.398438 55.953125 C 9.507812 55.925781 9.597656 55.871094 9.671875 55.785156 C 9.78125 55.625 9.847656 55.445312 9.871094 55.253906 C 9.933594 54.820312 9.941406 54.390625 9.890625 53.957031 C 9.828125 53.304688 9.726562 52.660156 9.585938 52.023438 C 9.429688 51.28125 9.230469 50.480469 8.996094 49.644531 C 8.75 48.773438 8.484375 47.859375 8.195312 46.898438 C 7.953125 46.089844 7.714844 45.300781 7.480469 44.535156 C 7.246094 43.769531 7.007812 43.015625 6.773438 42.265625 C 6.53125 41.511719 6.285156 40.753906 6.039062 40 C 5.832031 39.371094 5.621094 38.726562 5.398438 38.066406 L 5.117188 38.195312 C 5.015625 38.246094 4.917969 38.289062 4.828125 38.339844 L 3.292969 39.148438 L 1.65625 35.703125 L 2.875 34.90625 C 3.539062 34.472656 4.148438 34.105469 4.683594 33.816406 C 5.160156 33.546875 5.65625 33.324219 6.171875 33.140625 C 6.65625 32.957031 7.15625 32.894531 7.671875 32.945312 C 8.25 33.019531 8.738281 33.265625 9.144531 33.683594 C 9.445312 34 9.671875 34.363281 9.832031 34.769531 C 9.933594 35.019531 10.042969 35.316406 10.15625 35.652344 C 10.203125 35.789062 10.269531 36 10.359375 36.285156 C 10.429688 36.523438 10.953125 38.25 10.953125 38.25 L 11.367188 39.585938 C 11.707031 40.683594 12.046875 41.800781 12.386719 42.941406 C 12.738281 44.105469 13.058594 45.261719 13.34375 46.382812 C 13.632812 47.503906 13.882812 48.648438 14.089844 49.765625 C 14.292969 50.84375 14.421875 51.933594 14.480469 53.027344 C 14.515625 53.691406 14.492188 54.355469 14.40625 55.019531 C 14.332031 55.605469 14.195312 56.175781 14 56.734375 C 13.816406 57.242188 13.578125 57.71875 13.277344 58.167969 C 13.007812 58.574219 12.691406 58.945312 12.332031 59.28125 C 12 59.589844 11.632812 59.859375 11.238281 60.085938 C 10.878906 60.289062 10.503906 60.457031 10.109375 60.589844 Z M 10.109375 60.589844 " fill-opacity="1" fill-rule="nonzero"/><path fill="#2f292b" d="M 29.625 58 C 28.382812 58.433594 27.101562 58.609375 25.789062 58.527344 C 24.457031 58.4375 23.214844 58.058594 22.058594 57.386719 C 20.882812 56.6875 19.890625 55.785156 19.085938 54.679688 C 18.203125 53.457031 17.53125 52.132812 17.070312 50.695312 C 16.75 49.753906 16.511719 48.792969 16.355469 47.808594 C 16.199219 46.839844 16.140625 45.863281 16.179688 44.882812 C 16.21875 43.917969 16.367188 42.96875 16.625 42.039062 C 16.890625 41.078125 17.292969 40.179688 17.832031 39.339844 C 18.386719 38.484375 19.066406 37.738281 19.871094 37.109375 C 20.730469 36.441406 21.675781 35.9375 22.710938 35.597656 C 23.957031 35.164062 25.234375 34.988281 26.550781 35.070312 C 27.878906 35.164062 29.121094 35.542969 30.273438 36.210938 C 31.453125 36.910156 32.445312 37.816406 33.253906 38.925781 C 34.136719 40.144531 34.804688 41.46875 35.269531 42.898438 C 35.585938 43.839844 35.824219 44.804688 35.980469 45.789062 C 36.136719 46.757812 36.195312 47.734375 36.15625 48.714844 C 36.117188 49.679688 35.972656 50.625 35.714844 51.558594 C 35.445312 52.515625 35.042969 53.414062 34.507812 54.253906 C 33.949219 55.109375 33.273438 55.851562 32.46875 56.480469 C 31.609375 57.152344 30.660156 57.660156 29.625 58 Z M 24.511719 41.871094 C 24.335938 41.925781 24.179688 42.007812 24.035156 42.121094 C 23.910156 42.226562 23.808594 42.347656 23.730469 42.492188 C 23.621094 42.703125 23.546875 42.925781 23.507812 43.160156 C 23.441406 43.535156 23.417969 43.914062 23.433594 44.292969 C 23.457031 44.800781 23.523438 45.304688 23.625 45.804688 C 23.75 46.398438 23.910156 46.984375 24.105469 47.5625 C 24.390625 48.460938 24.78125 49.3125 25.28125 50.113281 C 25.589844 50.609375 25.972656 51.039062 26.429688 51.40625 C 26.65625 51.589844 26.914062 51.710938 27.199219 51.769531 C 27.421875 51.808594 27.640625 51.789062 27.855469 51.714844 C 28.03125 51.660156 28.191406 51.578125 28.335938 51.464844 C 28.460938 51.359375 28.558594 51.238281 28.636719 51.09375 C 28.746094 50.882812 28.820312 50.660156 28.859375 50.425781 C 28.925781 50.050781 28.953125 49.675781 28.933594 49.292969 C 28.910156 48.785156 28.847656 48.28125 28.742188 47.785156 C 28.621094 47.1875 28.460938 46.601562 28.261719 46.023438 C 27.976562 45.121094 27.585938 44.269531 27.082031 43.46875 C 26.773438 42.976562 26.390625 42.546875 25.9375 42.183594 C 25.710938 42 25.453125 41.878906 25.171875 41.820312 C 24.945312 41.78125 24.726562 41.796875 24.511719 41.871094 Z M 24.511719 41.871094 " fill-opacity="1" fill-rule="nonzero"/><path fill="#feca36" d="M 29.421875 56.347656 C 28.320312 56.730469 27.183594 56.886719 26.015625 56.816406 C 24.855469 56.738281 23.773438 56.40625 22.769531 55.820312 C 21.722656 55.199219 20.84375 54.394531 20.128906 53.410156 C 19.316406 52.285156 18.695312 51.0625 18.273438 49.742188 C 17.972656 48.859375 17.75 47.957031 17.605469 47.035156 C 17.460938 46.140625 17.40625 45.234375 17.441406 44.328125 C 17.476562 43.449219 17.609375 42.585938 17.84375 41.738281 C 18.078125 40.886719 18.4375 40.089844 18.914062 39.34375 C 19.402344 38.589844 20 37.9375 20.707031 37.382812 C 21.46875 36.792969 22.304688 36.351562 23.21875 36.050781 C 24.320312 35.664062 25.457031 35.507812 26.625 35.582031 C 27.785156 35.660156 28.863281 35.992188 29.871094 36.574219 C 30.917969 37.199219 31.800781 38.007812 32.515625 38.996094 C 33.328125 40.117188 33.945312 41.335938 34.367188 42.65625 C 34.667969 43.539062 34.890625 44.441406 35.035156 45.363281 C 35.179688 46.261719 35.234375 47.164062 35.199219 48.070312 C 35.167969 48.949219 35.03125 49.8125 34.796875 50.660156 C 34.5625 51.511719 34.203125 52.308594 33.726562 53.054688 C 33.238281 53.804688 32.640625 54.457031 31.9375 55.011719 C 31.175781 55.601562 30.335938 56.046875 29.421875 56.347656 Z M 24.3125 40.21875 C 24 40.316406 23.722656 40.46875 23.472656 40.675781 C 23.242188 40.867188 23.054688 41.097656 22.914062 41.359375 C 22.746094 41.675781 22.632812 42.007812 22.574219 42.355469 C 22.492188 42.8125 22.460938 43.273438 22.484375 43.738281 C 22.507812 44.304688 22.578125 44.871094 22.695312 45.425781 C 22.828125 46.066406 23 46.699219 23.210938 47.320312 C 23.527344 48.3125 23.960938 49.25 24.519531 50.128906 C 24.898438 50.734375 25.367188 51.257812 25.925781 51.699219 C 26.296875 51.992188 26.710938 52.179688 27.175781 52.265625 C 27.578125 52.332031 27.976562 52.300781 28.363281 52.167969 C 28.675781 52.066406 28.957031 51.914062 29.210938 51.707031 C 29.4375 51.515625 29.621094 51.285156 29.765625 51.023438 C 29.929688 50.710938 30.042969 50.378906 30.101562 50.027344 C 30.1875 49.570312 30.214844 49.109375 30.195312 48.648438 C 30.167969 48.078125 30.097656 47.515625 29.980469 46.960938 C 29.847656 46.316406 29.675781 45.683594 29.464844 45.0625 C 29.148438 44.070312 28.714844 43.132812 28.15625 42.253906 C 27.777344 41.648438 27.308594 41.125 26.746094 40.683594 C 26.375 40.394531 25.960938 40.207031 25.496094 40.117188 C 25.09375 40.050781 24.699219 40.085938 24.3125 40.21875 Z M 24.3125 40.21875 " fill-opacity="1" fill-rule="nonzero"/><path fill="#2f292b" d="M 50.628906 42.167969 C 50.273438 42.351562 49.90625 42.484375 49.515625 42.570312 C 49.15625 42.648438 48.789062 42.6875 48.417969 42.683594 C 48.070312 42.679688 47.726562 42.640625 47.386719 42.574219 C 47.113281 42.523438 46.832031 42.453125 46.542969 42.367188 C 45.992188 42.203125 45.453125 42.007812 44.925781 41.777344 C 44.828125 41.738281 44.730469 41.695312 44.628906 41.648438 C 44.652344 41.699219 45.714844 43.941406 45.714844 43.941406 L 42.007812 46.46875 L 39.152344 47.523438 L 38.078125 45.183594 C 37.488281 43.886719 36.921875 42.660156 36.378906 41.492188 C 35.839844 40.328125 35.3125 39.203125 34.800781 38.121094 C 34.292969 37.042969 33.78125 35.980469 33.269531 34.941406 C 33 34.390625 32.726562 33.839844 32.449219 33.289062 L 30.730469 34.511719 L 27.445312 29.609375 L 29.273438 28 C 29.878906 27.46875 30.410156 27.023438 30.859375 26.683594 C 31.324219 26.316406 31.816406 25.996094 32.335938 25.71875 C 32.929688 25.402344 33.5625 25.21875 34.234375 25.179688 C 35.058594 25.144531 35.808594 25.359375 36.484375 25.832031 C 36.8125 26.058594 37.101562 26.332031 37.347656 26.644531 C 37.367188 26.582031 37.382812 26.515625 37.398438 26.453125 C 37.644531 25.472656 38.003906 24.53125 38.480469 23.640625 C 39.015625 22.605469 39.800781 21.816406 40.832031 21.273438 C 41.3125 21.023438 41.816406 20.867188 42.351562 20.800781 C 42.878906 20.734375 43.398438 20.773438 43.90625 20.917969 C 44.472656 21.078125 44.96875 21.355469 45.402344 21.75 C 45.761719 22.082031 46.054688 22.460938 46.273438 22.898438 C 46.582031 23.515625 46.742188 24.171875 46.746094 24.863281 C 46.753906 25.554688 46.609375 26.210938 46.308594 26.835938 L 45.90625 27.679688 L 43.941406 28.683594 L 43.707031 28.597656 C 43.628906 28.804688 43.550781 29.035156 43.476562 29.289062 C 43.28125 29.976562 43.125 30.671875 43.003906 31.375 C 42.949219 31.667969 42.898438 31.960938 42.847656 32.269531 C 43.253906 32.519531 43.636719 32.75 43.996094 32.960938 C 44.773438 33.417969 45.460938 33.800781 46.035156 34.097656 C 46.613281 34.398438 47.113281 34.636719 47.511719 34.808594 C 47.921875 34.984375 48.285156 35.117188 48.597656 35.222656 C 48.738281 35.265625 48.871094 35.304688 48.988281 35.332031 C 49.074219 35.257812 49.15625 35.175781 49.246094 35.089844 L 51.175781 33.1875 L 55.453125 37.335938 L 53.761719 39.320312 C 53.492188 39.640625 53.242188 39.925781 53.011719 40.175781 C 52.761719 40.453125 52.527344 40.699219 52.3125 40.914062 C 52.066406 41.15625 51.804688 41.382812 51.53125 41.59375 C 51.246094 41.8125 50.945312 42.003906 50.628906 42.167969 Z M 50.628906 42.167969 " fill-opacity="1" fill-rule="nonzero"/><path fill="#feca36" d="M 50.1875 40.5625 C 49.917969 40.699219 49.636719 40.800781 49.339844 40.867188 C 49.058594 40.929688 48.777344 40.957031 48.492188 40.953125 C 48.210938 40.949219 47.933594 40.921875 47.660156 40.867188 C 47.429688 40.820312 47.179688 40.761719 46.917969 40.683594 C 46.40625 40.53125 45.910156 40.351562 45.421875 40.136719 C 44.863281 39.898438 44.226562 39.589844 43.476562 39.191406 C 43.109375 38.996094 42.714844 38.777344 42.292969 38.535156 C 42.414062 38.800781 43.398438 40.886719 43.757812 41.652344 L 44.371094 42.9375 L 41.558594 44.855469 L 39.796875 45.507812 L 39.152344 44.105469 C 38.558594 42.808594 37.992188 41.578125 37.453125 40.414062 C 36.910156 39.25 36.382812 38.125 35.867188 37.035156 C 35.355469 35.949219 34.839844 34.886719 34.328125 33.839844 C 33.871094 32.90625 33.40625 31.972656 32.929688 31.039062 C 32.804688 31.117188 32.652344 31.21875 32.476562 31.34375 L 31.082031 32.335938 L 28.972656 29.183594 L 30.070312 28.21875 C 30.648438 27.707031 31.164062 27.28125 31.59375 26.949219 C 32.007812 26.625 32.445312 26.339844 32.90625 26.09375 C 33.355469 25.847656 33.832031 25.707031 34.34375 25.671875 C 34.917969 25.648438 35.441406 25.796875 35.914062 26.125 C 36.285156 26.390625 36.585938 26.714844 36.816406 27.109375 C 36.964844 27.347656 37.117188 27.628906 37.289062 27.960938 C 37.328125 28.042969 37.414062 28.222656 37.550781 28.503906 L 37.894531 29.226562 C 38.082031 28.066406 38.296875 27.019531 38.535156 26.121094 C 38.757812 25.226562 39.082031 24.375 39.511719 23.558594 C 39.945312 22.726562 40.574219 22.089844 41.398438 21.648438 C 41.757812 21.457031 42.136719 21.339844 42.539062 21.289062 C 42.917969 21.242188 43.296875 21.269531 43.664062 21.371094 C 44.0625 21.484375 44.414062 21.679688 44.71875 21.957031 C 44.976562 22.195312 45.1875 22.472656 45.347656 22.789062 C 45.578125 23.25 45.695312 23.742188 45.699219 24.261719 C 45.703125 24.777344 45.59375 25.273438 45.371094 25.738281 L 45.128906 26.246094 L 43.929688 26.855469 L 43.25 26.609375 C 43.160156 26.695312 43.089844 26.789062 43.039062 26.902344 C 42.796875 27.371094 42.609375 27.855469 42.472656 28.363281 C 42.265625 29.089844 42.097656 29.820312 41.96875 30.5625 C 41.875 31.085938 41.78125 31.628906 41.691406 32.203125 C 42.347656 32.613281 42.953125 32.984375 43.496094 33.304688 C 44.277344 33.761719 44.980469 34.15625 45.582031 34.46875 C 46.1875 34.78125 46.707031 35.03125 47.136719 35.214844 C 47.570312 35.394531 47.964844 35.546875 48.308594 35.660156 C 48.5 35.722656 48.691406 35.777344 48.886719 35.820312 C 48.996094 35.84375 49.105469 35.859375 49.214844 35.867188 C 49.253906 35.867188 49.289062 35.867188 49.324219 35.859375 C 49.355469 35.855469 49.382812 35.84375 49.410156 35.828125 C 49.488281 35.785156 49.5625 35.734375 49.632812 35.675781 C 49.765625 35.566406 49.917969 35.425781 50.082031 35.261719 L 51.242188 34.121094 L 53.992188 36.792969 L 52.976562 37.980469 C 52.714844 38.289062 52.472656 38.566406 52.25 38.8125 C 52.015625 39.070312 51.796875 39.300781 51.589844 39.503906 C 51.378906 39.714844 51.152344 39.910156 50.914062 40.09375 C 50.6875 40.273438 50.445312 40.425781 50.1875 40.5625 Z M 50.1875 40.5625 " fill-opacity="1" fill-rule="nonzero"/><path fill="#2f292b" d="M 68.945312 40.925781 C 68.527344 41.0625 68.105469 41.167969 67.671875 41.242188 C 67.355469 41.300781 66.996094 41.359375 66.601562 41.425781 C 66.257812 41.484375 65.902344 41.550781 65.515625 41.636719 C 65.148438 41.71875 64.789062 41.820312 64.433594 41.941406 C 64.054688 42.074219 63.683594 42.222656 63.324219 42.394531 C 62.917969 42.582031 62.523438 42.792969 62.144531 43.03125 L 61.742188 43.285156 L 58.324219 44.039062 L 57.816406 41.191406 C 57.738281 40.761719 57.621094 40.230469 57.464844 39.609375 C 57.300781 38.949219 57.109375 38.226562 56.890625 37.449219 C 56.671875 36.671875 56.433594 35.84375 56.167969 34.96875 C 55.902344 34.089844 55.632812 33.207031 55.351562 32.316406 C 55.070312 31.429688 54.785156 30.550781 54.503906 29.683594 L 54.246094 28.902344 L 52.394531 29.785156 L 49.753906 24.226562 L 52.128906 22.988281 C 52.582031 22.753906 53 22.542969 53.390625 22.347656 C 53.777344 22.152344 54.15625 21.96875 54.503906 21.804688 C 54.878906 21.628906 55.234375 21.472656 55.570312 21.332031 C 55.925781 21.1875 56.257812 21.0625 56.574219 20.957031 C 57.300781 20.710938 57.984375 20.472656 58.628906 20.242188 C 59.277344 20.007812 59.855469 19.800781 60.363281 19.617188 C 60.871094 19.433594 61.273438 19.28125 61.589844 19.164062 C 61.960938 19.023438 62.195312 18.9375 62.28125 18.90625 C 63.125 18.601562 63.960938 18.621094 64.789062 18.964844 C 65.242188 19.15625 65.632812 19.433594 65.960938 19.796875 C 66.289062 20.160156 66.527344 20.578125 66.675781 21.046875 C 66.710938 21.164062 66.777344 21.382812 66.867188 21.714844 L 67.097656 22.617188 C 67.183594 22.960938 67.269531 23.316406 67.355469 23.6875 C 67.441406 24.050781 67.519531 24.386719 67.585938 24.703125 L 68.363281 26.714844 L 66.898438 27.160156 C 67 27.257812 67.097656 27.359375 67.183594 27.46875 C 67.519531 27.878906 67.773438 28.332031 67.949219 28.835938 C 68.195312 29.558594 68.191406 30.28125 67.941406 31 L 70.636719 30.25 L 71.449219 32.804688 C 71.714844 33.609375 71.914062 34.433594 72.039062 35.273438 C 72.164062 36.046875 72.152344 36.816406 72.003906 37.585938 C 71.828125 38.476562 71.414062 39.234375 70.757812 39.859375 C 70.230469 40.347656 69.625 40.699219 68.945312 40.925781 Z M 63.890625 35.171875 C 64.296875 35.039062 64.699219 34.917969 65.082031 34.816406 C 65.222656 34.777344 65.363281 34.738281 65.503906 34.695312 C 65.488281 34.605469 65.472656 34.507812 65.445312 34.398438 L 65.253906 33.480469 C 65.066406 33.554688 64.875 33.628906 64.671875 33.695312 C 64.335938 33.8125 63.964844 33.921875 63.570312 34.03125 C 63.648438 34.300781 63.855469 35.054688 63.890625 35.171875 Z M 62.636719 27.289062 L 62.125 26.207031 L 62.074219 26.023438 L 61.238281 26.304688 L 61.648438 27.625 C 61.714844 27.601562 62.566406 27.3125 62.636719 27.289062 Z M 62.636719 27.289062 " fill-opacity="1" fill-rule="nonzero"/><path fill="#feca36" d="M 68.742188 39.269531 C 68.382812 39.390625 68.011719 39.484375 67.632812 39.546875 C 67.316406 39.605469 66.960938 39.664062 66.570312 39.730469 C 66.214844 39.789062 65.835938 39.859375 65.429688 39.949219 C 65.023438 40.039062 64.625 40.152344 64.230469 40.289062 C 63.816406 40.429688 63.410156 40.597656 63.011719 40.78125 C 62.5625 40.988281 62.128906 41.222656 61.710938 41.484375 L 61.464844 41.636719 L 59.363281 42.097656 L 59.058594 40.390625 C 58.976562 39.9375 58.851562 39.378906 58.691406 38.734375 C 58.523438 38.0625 58.332031 37.332031 58.109375 36.542969 C 57.890625 35.753906 57.648438 34.921875 57.382812 34.042969 C 57.113281 33.160156 56.84375 32.269531 56.5625 31.378906 C 56.285156 30.484375 56 29.601562 55.710938 28.730469 C 55.488281 28.046875 55.269531 27.386719 55.058594 26.761719 C 54.910156 26.828125 54.75 26.898438 54.574219 26.984375 L 53.074219 27.699219 L 51.371094 24.113281 L 52.796875 23.371094 C 53.238281 23.140625 53.65625 22.929688 54.039062 22.738281 C 54.421875 22.546875 54.785156 22.367188 55.132812 22.207031 C 55.488281 22.039062 55.824219 21.886719 56.144531 21.757812 C 56.476562 21.621094 56.789062 21.503906 57.085938 21.40625 C 57.816406 21.160156 58.503906 20.917969 59.15625 20.683594 C 59.808594 20.453125 60.386719 20.242188 60.898438 20.054688 C 61.402344 19.871094 61.8125 19.71875 62.136719 19.597656 C 62.484375 19.464844 62.707031 19.382812 62.792969 19.355469 C 63.367188 19.140625 63.945312 19.152344 64.515625 19.382812 C 65.152344 19.660156 65.570312 20.128906 65.777344 20.792969 C 65.8125 20.898438 65.871094 21.097656 65.953125 21.398438 C 66.019531 21.660156 66.09375 21.953125 66.179688 22.28125 C 66.261719 22.613281 66.347656 22.96875 66.433594 23.335938 C 66.574219 23.78125 66.734375 24.21875 66.921875 24.644531 L 63.027344 25.835938 C 63.027344 25.835938 62.539062 24.667969 62.496094 24.546875 C 62.449219 24.414062 62.410156 24.304688 62.375 24.214844 C 62.34375 24.222656 61.0625 24.644531 61.0625 24.644531 C 60.714844 24.761719 60.011719 24.996094 60.011719 24.996094 C 60.011719 24.996094 61.035156 28.316406 61.070312 28.425781 L 61.097656 28.414062 C 61.554688 28.273438 61.976562 28.136719 62.363281 28.003906 C 62.796875 27.859375 63.183594 27.710938 63.503906 27.574219 C 63.792969 27.449219 64.070312 27.3125 64.34375 27.15625 C 64.515625 27.058594 64.699219 26.992188 64.894531 26.957031 C 65.089844 26.925781 65.285156 26.925781 65.480469 26.960938 C 65.675781 27 65.859375 27.070312 66.03125 27.171875 C 66.199219 27.273438 66.347656 27.402344 66.472656 27.558594 C 66.726562 27.867188 66.917969 28.210938 67.050781 28.585938 C 67.234375 29.121094 67.214844 29.648438 66.992188 30.167969 C 66.820312 30.554688 66.566406 30.882812 66.238281 31.144531 C 65.96875 31.363281 65.679688 31.539062 65.367188 31.683594 C 65.074219 31.820312 64.777344 31.941406 64.46875 32.042969 C 63.945312 32.222656 63.332031 32.394531 62.660156 32.558594 L 62.339844 32.632812 C 62.390625 32.808594 62.441406 32.984375 62.496094 33.171875 C 62.621094 33.617188 62.753906 34.074219 62.882812 34.542969 C 63.011719 35.007812 63.273438 35.972656 63.285156 36.019531 C 63.550781 35.914062 63.796875 35.824219 64.035156 35.746094 C 64.550781 35.570312 65.050781 35.414062 65.527344 35.285156 C 65.921875 35.179688 66.324219 35.054688 66.71875 34.921875 C 66.753906 34.910156 66.789062 34.898438 66.824219 34.882812 C 66.832031 34.796875 66.835938 34.710938 66.832031 34.628906 C 66.816406 34.269531 66.765625 33.914062 66.683594 33.566406 L 66.511719 32.492188 L 70.214844 31.464844 L 70.542969 32.53125 C 70.792969 33.277344 70.976562 34.039062 71.09375 34.816406 C 71.199219 35.460938 71.191406 36.105469 71.070312 36.75 C 70.945312 37.414062 70.636719 37.976562 70.148438 38.445312 C 69.742188 38.824219 69.273438 39.097656 68.742188 39.269531 Z M 68.742188 39.269531 " fill-opacity="1" fill-rule="nonzero"/></svg>