<svg xmlns="http://www.w3.org/2000/svg" xmlns:xlink="http://www.w3.org/1999/xlink" width="100" zoomAndPan="magnify" viewBox="0 0 75 74.999997" height="100" preserveAspectRatio="xMidYMid meet" version="1.0"><defs><filter x="0%" y="0%" width="100%" height="100%" id="4e2104fdbc"><feColorMatrix values="0 0 0 0 1 0 0 0 0 1 0 0 0 0 1 0 0 0 1 0" color-interpolation-filters="sRGB"/></filter><clipPath id="b54cc55347"><path d="M 29 1.21875 L 44 1.21875 L 44 15 L 29 15 Z M 29 1.21875 " clip-rule="nonzero"/></clipPath><clipPath id="80f262ebc9"><path d="M 29 1.21875 L 44 1.21875 L 44 16 L 29 16 Z M 29 1.21875 " clip-rule="nonzero"/></clipPath><mask id="4b8afec527"><g filter="url(#4e2104fdbc)"><rect x="-7.5" width="90" fill="#000000" y="-7.5" height="89.999996" fill-opacity="0.1765"/></g></mask><clipPath id="d1313f08b9"><path d="M 4 0.761719 L 5 0.761719 L 5 3 L 4 3 Z M 4 0.761719 " clip-rule="nonzero"/></clipPath><clipPath id="bf28105f5a"><path d="M 1 6 L 5.878906 6 L 5.878906 8.921875 L 1 8.921875 Z M 1 6 " clip-rule="nonzero"/></clipPath><clipPath id="509b8ef543"><rect x="0" width="6" y="0" height="9"/></clipPath><clipPath id="eabc961e12"><path d="M 45 28 L 69 28 L 69 73.96875 L 45 73.96875 Z M 45 28 " clip-rule="nonzero"/></clipPath><clipPath id="951116f6ab"><path d="M 45 55 L 56 55 L 56 73.96875 L 45 73.96875 Z M 45 55 " clip-rule="nonzero"/></clipPath><clipPath id="0eff131a0c"><path d="M 45 28 L 70 28 L 70 73.96875 L 45 73.96875 Z M 45 28 " clip-rule="nonzero"/></clipPath></defs><path fill="#a75efd" d="M 2.902344 46.894531 C 4.71875 51.667969 9.996094 51.0625 12.972656 47.714844 C 15.574219 44.789062 16.300781 40.980469 16.375 37.222656 C 16.4375 34.34375 17.164062 31.660156 17.464844 28.824219 C 17.617188 27.460938 16.785156 27.746094 15.574219 28.035156 C 8.632812 29.671875 0 39.3125 2.902344 46.894531 Z M 2.902344 46.894531 " fill-opacity="1" fill-rule="nonzero"/><path fill="#00053f" d="M 2.765625 46.484375 C 2.8125 46.621094 2.859375 46.757812 2.902344 46.894531 C 4.71875 51.667969 9.996094 51.0625 12.972656 47.714844 C 15.574219 44.789062 16.300781 40.980469 16.375 37.222656 C 16.40625 35.828125 16.511719 34.585938 16.632812 33.507812 C 15.832031 33.628906 15.058594 33.933594 14.363281 34.34375 C 12.671875 35.371094 11.460938 37.054688 10.449219 38.769531 C 9.421875 40.480469 8.527344 42.285156 7.210938 43.785156 C 6.046875 45.136719 4.492188 46.226562 2.765625 46.484375 Z M 2.765625 46.484375 " fill-opacity="0.2471" fill-rule="nonzero"/><path fill="#00053f" d="M 7.574219 50.519531 C 7.242188 50.519531 6.925781 50.488281 6.609375 50.425781 C 4.839844 50.09375 3.460938 48.863281 2.738281 46.941406 C 1.40625 43.4375 2.585938 39.949219 3.808594 37.648438 C 6.273438 32.992188 11.203125 28.882812 15.542969 27.867188 L 15.769531 27.808594 C 16.496094 27.640625 17.070312 27.488281 17.402344 27.792969 C 17.617188 27.988281 17.691406 28.324219 17.644531 28.839844 C 17.523438 29.945312 17.34375 31.050781 17.164062 32.113281 C 16.890625 33.765625 16.585938 35.480469 16.558594 37.222656 C 16.453125 41.921875 15.363281 45.289062 13.109375 47.820312 C 11.582031 49.53125 9.496094 50.519531 7.574219 50.519531 Z M 16.84375 27.988281 C 16.585938 27.988281 16.238281 28.082031 15.847656 28.171875 L 15.605469 28.230469 C 11.355469 29.234375 6.515625 33.265625 4.097656 37.828125 C 2.902344 40.074219 1.769531 43.46875 3.054688 46.832031 C 3.929688 49.136719 5.488281 49.882812 6.652344 50.09375 C 8.710938 50.472656 11.144531 49.5 12.824219 47.605469 C 15.015625 45.136719 16.089844 41.847656 16.179688 37.238281 C 16.210938 35.464844 16.511719 33.75 16.785156 32.082031 C 16.964844 31.023438 17.148438 29.929688 17.269531 28.839844 C 17.3125 28.460938 17.269531 28.203125 17.148438 28.097656 C 17.101562 28.003906 16.996094 27.988281 16.84375 27.988281 Z M 16.84375 27.988281 " fill-opacity="1" fill-rule="nonzero"/><path fill="#a75efd" d="M 53.996094 40.34375 C 53.4375 45.425781 48.175781 46.167969 44.457031 43.679688 C 41.203125 41.511719 39.542969 37.996094 38.527344 34.386719 C 37.03125 29.050781 35.066406 26.398438 35.109375 25.761719 C 35.1875 24.746094 38.785156 25.414062 39.34375 25.503906 C 46.316406 26.703125 54.785156 33.28125 53.996094 40.34375 Z M 53.996094 40.34375 " fill-opacity="1" fill-rule="nonzero"/><path fill="#00053f" d="M 54.027344 39.921875 C 54.027344 40.058594 54.011719 40.207031 53.996094 40.34375 C 53.4375 45.425781 48.175781 46.167969 44.457031 43.679688 C 41.203125 41.511719 39.542969 37.996094 38.527344 34.386719 C 38.148438 33.039062 37.742188 31.871094 37.347656 30.855469 C 38.148438 30.78125 38.980469 30.871094 39.753906 31.097656 C 41.660156 31.671875 43.246094 32.992188 44.652344 34.386719 C 46.074219 35.78125 47.390625 37.296875 49.039062 38.433594 C 50.503906 39.449219 52.289062 40.117188 54.027344 39.921875 Z M 54.027344 39.921875 " fill-opacity="0.2471" fill-rule="nonzero"/><path fill="#00053f" d="M 48.808594 45.242188 C 47.328125 45.242188 45.742188 44.757812 44.363281 43.832031 C 41.550781 41.953125 39.648438 38.964844 38.363281 34.433594 C 37.410156 31.035156 36.261719 28.71875 35.566406 27.339844 C 35.140625 26.488281 34.914062 26.019531 34.929688 25.746094 C 34.945312 25.578125 35.019531 25.429688 35.171875 25.320312 C 35.683594 24.925781 37.078125 24.925781 39.328125 25.320312 L 39.390625 25.335938 C 46.859375 26.625 54.949219 33.476562 54.179688 40.375 C 53.953125 42.421875 52.9375 43.953125 51.304688 44.726562 C 50.550781 45.058594 49.703125 45.242188 48.808594 45.242188 Z M 36.609375 25.382812 C 35.804688 25.382812 35.503906 25.519531 35.382812 25.609375 C 35.292969 25.671875 35.292969 25.746094 35.277344 25.777344 C 35.261719 25.957031 35.535156 26.488281 35.867188 27.1875 C 36.5625 28.582031 37.726562 30.914062 38.679688 34.34375 C 39.933594 38.785156 41.792969 41.710938 44.53125 43.542969 C 46.632812 44.953125 49.234375 45.289062 51.125 44.394531 C 52.199219 43.894531 53.527344 42.785156 53.785156 40.332031 C 54.148438 37.148438 52.589844 33.796875 49.429688 30.855469 C 46.585938 28.21875 42.792969 26.277344 39.285156 25.683594 L 39.222656 25.671875 C 38.042969 25.457031 37.199219 25.382812 36.609375 25.382812 Z M 36.609375 25.382812 " fill-opacity="1" fill-rule="nonzero"/><path fill="#a75efd" d="M 44.441406 54.625 C 41.070312 60.855469 33.175781 63.675781 25.855469 62.996094 C 20.292969 62.480469 15.621094 59.539062 13.382812 54.429688 C 13.214844 54.066406 13.066406 53.671875 12.945312 53.292969 C 11.160156 48.09375 12.066406 41.042969 13.761719 35.796875 C 15.90625 29.125 22.332031 23.898438 29.515625 24.820312 C 32.707031 25.230469 35.15625 26.320312 37.152344 27.929688 C 39.875 30.128906 41.71875 33.28125 43.382812 36.980469 C 45.832031 42.40625 47.449219 49.0625 44.441406 54.625 Z M 44.441406 54.625 " fill-opacity="1" fill-rule="nonzero"/><path fill="#00053f" d="M 44.441406 54.625 C 41.070312 60.855469 33.175781 63.675781 25.855469 62.996094 C 20.292969 62.480469 15.621094 59.539062 13.382812 54.429688 C 20.066406 56.507812 26.976562 54.519531 30.996094 48.410156 C 34.65625 42.847656 37.347656 35.101562 37.152344 27.914062 C 39.875 30.113281 41.71875 33.265625 43.382812 36.964844 C 45.832031 42.40625 47.449219 49.0625 44.441406 54.625 Z M 44.441406 54.625 " fill-opacity="0.2471" fill-rule="nonzero"/><path fill="#00053f" d="M 27.945312 63.265625 C 27.234375 63.265625 26.523438 63.238281 25.828125 63.175781 C 19.976562 62.628906 15.378906 59.460938 13.214844 54.503906 C 13.050781 54.125 12.898438 53.730469 12.761719 53.351562 C 10.917969 47.984375 11.976562 40.738281 13.578125 35.738281 C 14.667969 32.355469 16.816406 29.371094 19.628906 27.308594 C 22.589844 25.140625 26.097656 24.199219 29.53125 24.640625 C 32.585938 25.035156 35.109375 26.066406 37.257812 27.792969 C 40.3125 30.265625 42.21875 33.964844 43.546875 36.902344 C 46.769531 44.074219 47.117188 50.0625 44.589844 54.71875 C 41.324219 60.734375 34.21875 63.265625 27.945312 63.265625 Z M 27.835938 24.882812 C 25.023438 24.882812 22.289062 25.808594 19.839844 27.59375 C 17.085938 29.613281 14.96875 32.539062 13.910156 35.84375 C 12.324219 40.785156 11.28125 47.941406 13.09375 53.230469 C 13.230469 53.609375 13.367188 53.988281 13.535156 54.351562 C 15.648438 59.1875 20.140625 62.28125 25.855469 62.8125 C 32.449219 63.433594 40.707031 61.113281 44.273438 54.535156 C 46.738281 49.988281 46.390625 44.089844 43.214844 37.039062 C 40.734375 31.492188 38.605469 29.324219 37.03125 28.066406 C 34.945312 26.382812 32.480469 25.367188 29.484375 24.988281 C 28.941406 24.914062 28.382812 24.882812 27.835938 24.882812 Z M 27.835938 24.882812 " fill-opacity="1" fill-rule="nonzero"/><g clip-path="url(#b54cc55347)"><path fill="#a75efd" d="M 36.304688 14.9375 C 33.796875 14.9375 31.601562 13.648438 30.4375 11.511719 C 30.242188 11.164062 30.089844 10.785156 29.96875 10.417969 C 28.972656 7.328125 30.378906 3.914062 33.328125 2.308594 C 34.386719 1.734375 35.566406 1.429688 36.742188 1.429688 C 38.484375 1.429688 40.117188 2.082031 41.355469 3.277344 C 42.1875 4.082031 42.808594 5.128906 43.125 6.28125 C 43.957031 9.585938 42.171875 13.085938 38.953125 14.4375 C 38.148438 14.753906 37.226562 14.9375 36.304688 14.9375 Z M 36.304688 14.9375 " fill-opacity="1" fill-rule="nonzero"/></g><path fill="#00053f" d="M 42.957031 6.3125 C 43.820312 9.707031 41.871094 12.996094 38.890625 14.253906 C 36.230469 15.375 32.390625 14.726562 30.605469 11.421875 C 30.421875 11.070312 30.257812 10.722656 30.152344 10.359375 C 31.875 10.570312 33.660156 10.753906 35.308594 10.253906 C 37.484375 9.601562 39.179688 7.8125 40.222656 5.796875 C 40.628906 5.023438 40.949219 4.21875 41.21875 3.386719 C 42.019531 4.144531 42.625 5.128906 42.957031 6.3125 Z M 42.957031 6.3125 " fill-opacity="0.2471" fill-rule="nonzero"/><g clip-path="url(#80f262ebc9)"><path fill="#00053f" d="M 36.742188 1.582031 C 38.4375 1.582031 40.039062 2.21875 41.234375 3.371094 C 42.019531 4.128906 42.640625 5.128906 42.957031 6.296875 C 43.820312 9.691406 41.871094 12.980469 38.890625 14.238281 C 38.105469 14.574219 37.210938 14.738281 36.304688 14.738281 C 34.144531 14.738281 31.859375 13.722656 30.589844 11.40625 C 30.410156 11.054688 30.242188 10.707031 30.136719 10.34375 C 29.183594 7.371094 30.542969 4.007812 33.417969 2.445312 C 34.492188 1.855469 35.640625 1.582031 36.742188 1.582031 M 36.742188 1.230469 L 36.742188 1.582031 L 36.742188 1.230469 C 35.550781 1.230469 34.339844 1.550781 33.25 2.140625 C 31.800781 2.929688 30.648438 4.21875 30.015625 5.734375 C 29.394531 7.25 29.320312 8.933594 29.804688 10.449219 C 29.925781 10.828125 30.089844 11.207031 30.289062 11.570312 C 31.480469 13.769531 33.734375 15.089844 36.304688 15.089844 C 37.257812 15.089844 38.195312 14.90625 39.027344 14.558594 C 40.585938 13.90625 41.871094 12.722656 42.671875 11.238281 C 43.503906 9.691406 43.730469 7.902344 43.292969 6.203125 C 42.957031 5.007812 42.324219 3.945312 41.460938 3.113281 C 40.207031 1.898438 38.527344 1.230469 36.742188 1.230469 Z M 36.742188 1.230469 " fill-opacity="1" fill-rule="nonzero"/></g><path fill="#ff8dc5" d="M 40.296875 7.570312 C 40.855469 11.496094 35.324219 14.875 32.828125 11.070312 C 32.34375 10.328125 32.191406 9.511719 32.269531 8.691406 C 32.554688 5.992188 35.488281 3.429688 38.195312 4.660156 C 38.4375 4.765625 38.648438 4.902344 38.847656 5.050781 C 39.664062 5.644531 40.160156 6.570312 40.296875 7.570312 Z M 40.296875 7.570312 " fill-opacity="1" fill-rule="nonzero"/><path fill="#fc097a" d="M 40.296875 7.570312 C 40.855469 11.496094 35.324219 14.875 32.828125 11.070312 C 32.34375 10.328125 32.191406 9.511719 32.269531 8.691406 C 32.402344 8.691406 32.539062 8.691406 32.675781 8.691406 C 34.324219 8.691406 35.914062 8.265625 37.210938 7.21875 C 37.96875 6.597656 38.46875 5.855469 38.847656 5.050781 C 39.664062 5.644531 40.160156 6.570312 40.296875 7.570312 Z M 40.296875 7.570312 " fill-opacity="0.2471" fill-rule="nonzero"/><path fill="#00053f" d="M 35.746094 12.921875 C 34.519531 12.921875 33.449219 12.3125 32.691406 11.164062 C 32.207031 10.433594 32.011719 9.570312 32.101562 8.660156 C 32.269531 7.085938 33.296875 5.539062 34.71875 4.71875 C 35.882812 4.050781 37.136719 3.976562 38.269531 4.492188 C 38.511719 4.613281 38.753906 4.75 38.964844 4.902344 C 39.769531 5.523438 40.328125 6.476562 40.480469 7.539062 C 40.8125 9.917969 39.058594 11.933594 37.226562 12.632812 C 36.730469 12.828125 36.230469 12.921875 35.746094 12.921875 Z M 36.757812 4.507812 C 36.140625 4.507812 35.503906 4.6875 34.898438 5.023438 C 33.570312 5.78125 32.601562 7.21875 32.449219 8.691406 C 32.359375 9.511719 32.539062 10.296875 32.980469 10.964844 C 33.929688 12.421875 35.457031 12.90625 37.089844 12.300781 C 39.359375 11.433594 40.34375 9.238281 40.117188 7.585938 C 39.980469 6.613281 39.480469 5.734375 38.738281 5.175781 C 38.558594 5.023438 38.347656 4.902344 38.121094 4.796875 C 37.695312 4.613281 37.226562 4.507812 36.757812 4.507812 Z M 36.757812 4.507812 " fill-opacity="1" fill-rule="nonzero"/><path fill="#a75efd" d="M 12.019531 18.042969 C 11.703125 18.042969 11.402344 18.03125 11.097656 17.984375 C 7.652344 17.484375 5.035156 14.542969 5.019531 11.148438 C 5.035156 9.933594 5.382812 8.78125 5.988281 7.78125 C 7.199219 5.796875 9.34375 4.613281 11.734375 4.613281 C 12.324219 4.613281 12.914062 4.6875 13.503906 4.824219 C 16.753906 5.628906 18.976562 8.585938 18.78125 11.828125 C 18.765625 12.222656 18.703125 12.617188 18.597656 13.011719 C 17.753906 16.46875 14.605469 18.042969 12.019531 18.042969 Z M 12.019531 18.042969 " fill-opacity="1" fill-rule="nonzero"/><path fill="#00053f" d="M 5.203125 11.132812 C 5.214844 14.632812 7.921875 17.332031 11.128906 17.789062 C 13.988281 18.195312 17.539062 16.605469 18.449219 12.964844 C 18.539062 12.585938 18.597656 12.191406 18.628906 11.8125 C 17.011719 12.449219 15.332031 13.074219 13.609375 13.011719 C 11.339844 12.921875 9.253906 11.632812 7.726562 9.949219 C 7.136719 9.296875 6.621094 8.601562 6.152344 7.871094 C 5.566406 8.8125 5.230469 9.917969 5.203125 11.132812 Z M 5.203125 11.132812 " fill-opacity="0.2471" fill-rule="nonzero"/><path fill="#00053f" d="M 11.75 4.78125 C 12.308594 4.78125 12.898438 4.855469 13.472656 4.992188 C 16.648438 5.78125 18.808594 8.691406 18.613281 11.8125 C 18.597656 12.191406 18.539062 12.570312 18.433594 12.964844 C 17.617188 16.242188 14.683594 17.863281 12.019531 17.863281 C 11.71875 17.863281 11.417969 17.847656 11.128906 17.800781 C 7.9375 17.347656 5.214844 14.648438 5.203125 11.148438 C 5.214844 9.933594 5.566406 8.8125 6.140625 7.871094 C 7.289062 5.992188 9.390625 4.78125 11.75 4.78125 M 11.75 4.429688 C 9.300781 4.429688 7.089844 5.644531 5.851562 7.675781 C 5.230469 8.691406 4.882812 9.890625 4.855469 11.117188 C 4.855469 12.875 5.519531 14.542969 6.714844 15.832031 C 7.863281 17.074219 9.40625 17.894531 11.082031 18.136719 C 11.386719 18.179688 11.71875 18.195312 12.035156 18.195312 C 13.488281 18.195312 14.953125 17.742188 16.132812 16.90625 C 17.480469 15.984375 18.386719 14.632812 18.796875 13.027344 C 18.902344 12.632812 18.960938 12.222656 18.976562 11.8125 C 19.066406 10.222656 18.582031 8.617188 17.601562 7.296875 C 16.601562 5.976562 15.179688 5.023438 13.5625 4.628906 C 12.957031 4.507812 12.339844 4.429688 11.75 4.429688 Z M 11.75 4.429688 " fill-opacity="1" fill-rule="nonzero"/><path fill="#ff8dc5" d="M 8.089844 11.691406 C 8.542969 15.632812 14.742188 17.515625 16.195312 13.207031 C 16.480469 12.375 16.421875 11.527344 16.132812 10.753906 C 15.179688 8.207031 11.6875 6.460938 9.375 8.34375 C 9.179688 8.507812 8.996094 8.691406 8.847656 8.886719 C 8.226562 9.660156 7.96875 10.691406 8.089844 11.691406 Z M 8.089844 11.691406 " fill-opacity="1" fill-rule="nonzero"/><path fill="#fc097a" d="M 8.089844 11.691406 C 8.542969 15.632812 14.742188 17.515625 16.195312 13.207031 C 16.480469 12.375 16.421875 11.527344 16.132812 10.753906 C 15.996094 10.796875 15.878906 10.828125 15.742188 10.859375 C 14.152344 11.269531 12.488281 11.269531 10.976562 10.570312 C 10.085938 10.160156 9.421875 9.570312 8.847656 8.886719 C 8.226562 9.660156 7.96875 10.691406 8.089844 11.691406 Z M 8.089844 11.691406 " fill-opacity="0.2471" fill-rule="nonzero"/><path fill="#00053f" d="M 12.824219 15.847656 C 12.65625 15.847656 12.488281 15.832031 12.324219 15.816406 C 10.386719 15.605469 8.179688 14.101562 7.910156 11.707031 C 7.789062 10.648438 8.074219 9.570312 8.710938 8.78125 C 8.875 8.570312 9.058594 8.371094 9.269531 8.207031 C 10.238281 7.417969 11.476562 7.191406 12.761719 7.539062 C 14.351562 7.980469 15.726562 9.207031 16.285156 10.691406 C 16.601562 11.542969 16.632812 12.4375 16.347656 13.253906 C 15.800781 14.90625 14.5 15.847656 12.824219 15.847656 Z M 8.257812 11.664062 C 8.4375 13.316406 9.949219 15.210938 12.367188 15.46875 C 14.109375 15.648438 15.46875 14.785156 16.027344 13.148438 C 16.285156 12.40625 16.253906 11.585938 15.96875 10.8125 C 15.453125 9.433594 14.167969 8.28125 12.6875 7.871094 C 11.507812 7.554688 10.371094 7.765625 9.511719 8.480469 C 9.316406 8.628906 9.148438 8.8125 9.011719 8.996094 C 8.40625 9.722656 8.148438 10.691406 8.257812 11.664062 Z M 8.257812 11.664062 " fill-opacity="1" fill-rule="nonzero"/><path fill="#a75efd" d="M 12.15625 24.65625 C 8.890625 16.226562 14.0625 6.960938 23.679688 5.6875 C 30.257812 4.824219 36.578125 8.113281 38.980469 15.058594 C 40.660156 19.878906 39.542969 26.09375 35.140625 29.703125 C 28.414062 35.25 15.847656 34.191406 12.15625 24.65625 Z M 12.15625 24.65625 " fill-opacity="1" fill-rule="nonzero"/><path fill="#ff8dc5" d="M 32.707031 21.242188 C 32.84375 22.351562 34.082031 23.09375 35.472656 22.910156 C 36.863281 22.730469 37.863281 21.699219 37.726562 20.589844 C 37.589844 19.484375 36.351562 18.742188 34.960938 18.925781 C 33.582031 19.105469 32.570312 20.136719 32.707031 21.242188 Z M 32.707031 21.242188 " fill-opacity="1" fill-rule="nonzero"/><path fill="#ff8dc5" d="M 13.851562 23.652344 C 13.988281 24.761719 15.226562 25.503906 16.617188 25.320312 C 18.007812 25.140625 19.007812 24.109375 18.871094 23.003906 C 18.734375 21.894531 17.496094 21.152344 16.105469 21.335938 C 14.710938 21.515625 13.699219 22.546875 13.851562 23.652344 Z M 13.851562 23.652344 " fill-opacity="1" fill-rule="nonzero"/><path fill="#00053f" d="M 25.265625 33.25 C 23.875 33.25 22.484375 33.082031 21.140625 32.71875 C 16.800781 31.566406 13.546875 28.734375 12.007812 24.730469 C 10.417969 20.605469 10.75 16.121094 12.957031 12.40625 C 15.179688 8.644531 19.097656 6.128906 23.679688 5.539062 C 30.769531 4.613281 36.851562 8.328125 39.179688 15.027344 C 41.023438 20.363281 39.421875 26.457031 35.277344 29.871094 C 32.585938 32.054688 28.925781 33.25 25.265625 33.25 Z M 25.78125 5.734375 C 25.101562 5.734375 24.40625 5.78125 23.695312 5.871094 C 19.21875 6.460938 15.410156 8.902344 13.230469 12.570312 C 11.082031 16.195312 10.75 20.578125 12.308594 24.59375 C 13.820312 28.488281 16.980469 31.265625 21.214844 32.371094 C 26.007812 33.628906 31.421875 32.539062 35.019531 29.566406 C 39.058594 26.246094 40.613281 20.304688 38.816406 15.105469 C 36.789062 9.253906 31.785156 5.734375 25.78125 5.734375 Z M 25.78125 5.734375 " fill-opacity="1" fill-rule="nonzero"/><path fill="#00053f" d="M 28.773438 16.710938 C 28.882812 17.589844 29.683594 18.195312 30.542969 18.089844 C 31.421875 17.984375 32.027344 17.179688 31.921875 16.316406 C 31.816406 15.4375 31.011719 14.832031 30.152344 14.9375 C 29.289062 15.042969 28.667969 15.832031 28.773438 16.710938 Z M 28.773438 16.710938 " fill-opacity="1" fill-rule="nonzero"/><path fill="#00053f" d="M 18.386719 18.042969 C 18.492188 18.925781 19.292969 19.53125 20.15625 19.425781 C 21.035156 19.316406 21.636719 18.515625 21.53125 17.652344 C 21.425781 16.785156 20.625 16.164062 19.761719 16.269531 C 18.886719 16.378906 18.265625 17.164062 18.386719 18.042969 Z M 18.386719 18.042969 " fill-opacity="1" fill-rule="nonzero"/><path fill="#00053f" d="M 26.765625 13.695312 C 26.445312 13.695312 26.128906 13.617188 25.839844 13.464844 C 25.117188 13.085938 24.664062 12.300781 24.316406 11.464844 C 23.589844 12.890625 22.226562 13.558594 21.214844 13.453125 C 20.429688 13.375 19.898438 12.859375 19.777344 12.042969 C 19.671875 11.390625 19.867188 10.707031 20.351562 10.054688 C 21.003906 9.175781 22.121094 8.480469 23.074219 8.359375 C 23.164062 8.34375 23.257812 8.417969 23.269531 8.507812 C 23.285156 8.601562 23.210938 8.691406 23.121094 8.707031 C 22.257812 8.8125 21.230469 9.449219 20.640625 10.269531 C 20.351562 10.660156 20.019531 11.285156 20.140625 11.980469 C 20.246094 12.632812 20.65625 13.027344 21.273438 13.085938 C 22.257812 13.195312 23.605469 12.421875 24.179688 10.933594 C 24.207031 10.875 24.269531 10.828125 24.34375 10.828125 C 24.421875 10.828125 24.480469 10.875 24.511719 10.933594 C 24.84375 11.785156 25.253906 12.722656 26.023438 13.132812 C 26.765625 13.527344 27.761719 13.269531 28.292969 12.558594 C 28.789062 11.890625 28.894531 10.980469 28.578125 10.117188 C 28.214844 9.175781 27.429688 8.507812 26.445312 8.3125 C 26.355469 8.296875 26.296875 8.207031 26.308594 8.101562 C 26.324219 8.007812 26.417969 7.949219 26.523438 7.964844 C 27.625 8.191406 28.519531 8.933594 28.910156 9.996094 C 29.273438 10.964844 29.152344 11.996094 28.578125 12.769531 C 28.125 13.375 27.429688 13.695312 26.765625 13.695312 Z M 26.765625 13.695312 " fill-opacity="1" fill-rule="nonzero"/><path fill="#ffffff" d="M 19.839844 24.957031 C 19.171875 22.789062 19.429688 20.726562 20.761719 18.910156 C 23.484375 15.164062 28.941406 15.527344 31.269531 19.394531 C 32.054688 20.699219 32.402344 22.109375 32.238281 23.625 C 31.664062 29.1875 21.636719 30.855469 19.839844 24.957031 Z M 19.839844 24.957031 " fill-opacity="1" fill-rule="nonzero"/><path fill="#00053f" d="M 25.464844 28.839844 C 23.179688 28.839844 20.550781 27.867188 19.671875 25.019531 C 18.976562 22.730469 19.292969 20.636719 20.625 18.804688 C 21.925781 17 23.9375 16.027344 26.113281 16.121094 C 28.292969 16.210938 30.289062 17.40625 31.4375 19.304688 C 32.253906 20.652344 32.585938 22.121094 32.433594 23.640625 C 32.207031 25.851562 30.179688 28.414062 26.265625 28.792969 C 25.976562 28.824219 25.722656 28.839844 25.464844 28.839844 Z M 20.003906 24.914062 C 20.914062 27.882812 23.90625 28.671875 26.203125 28.445312 C 29.925781 28.082031 31.859375 25.671875 32.070312 23.609375 C 32.222656 22.167969 31.90625 20.773438 31.117188 19.484375 C 30.03125 17.679688 28.15625 16.558594 26.082031 16.46875 C 24.027344 16.378906 22.136719 17.300781 20.898438 19.015625 C 19.640625 20.742188 19.339844 22.730469 20.003906 24.914062 Z M 20.003906 24.914062 " fill-opacity="1" fill-rule="nonzero"/><path fill="#ff8dc5" d="M 28.066406 23.246094 C 27.882812 25.699219 24.828125 26.414062 23.816406 23.789062 C 24.617188 23.625 25.253906 23.046875 25.480469 22 C 25.613281 21.363281 25.570312 20.683594 25.507812 20.015625 C 25.613281 20.636719 25.734375 21.257812 25.992188 21.835938 C 26.476562 22.835938 27.21875 23.273438 28.066406 23.246094 Z M 28.066406 23.246094 " fill-opacity="1" fill-rule="nonzero"/><path fill="#00053f" d="M 25.917969 25.625 C 25.101562 25.625 24.164062 25.171875 23.648438 23.851562 C 23.632812 23.804688 23.632812 23.746094 23.664062 23.699219 C 23.695312 23.652344 23.726562 23.625 23.785156 23.609375 C 24.585938 23.441406 25.117188 22.882812 25.3125 21.972656 C 25.3125 21.972656 25.3125 21.957031 25.3125 21.957031 C 25.449219 21.335938 25.386719 20.636719 25.34375 20.03125 C 25.328125 19.941406 25.402344 19.847656 25.492188 19.847656 C 25.585938 19.832031 25.675781 19.894531 25.691406 20 C 25.796875 20.605469 25.902344 21.226562 26.160156 21.773438 C 26.582031 22.667969 27.234375 23.109375 28.066406 23.078125 C 28.109375 23.078125 28.15625 23.09375 28.199219 23.136719 C 28.230469 23.167969 28.246094 23.230469 28.246094 23.273438 C 28.140625 24.699219 27.15625 25.488281 26.234375 25.625 C 26.128906 25.609375 26.023438 25.625 25.917969 25.625 Z M 24.058594 23.910156 C 24.570312 25.046875 25.480469 25.351562 26.175781 25.261719 C 26.914062 25.15625 27.703125 24.546875 27.867188 23.425781 C 26.992188 23.382812 26.296875 22.867188 25.839844 21.925781 C 25.796875 21.835938 25.765625 21.742188 25.722656 21.636719 C 25.707031 21.773438 25.691406 21.910156 25.660156 22.03125 C 25.660156 22.03125 25.660156 22.046875 25.660156 22.046875 C 25.449219 23.003906 24.890625 23.652344 24.058594 23.910156 Z M 24.058594 23.910156 " fill-opacity="1" fill-rule="nonzero"/><path fill="#00053f" d="M 28.003906 23.425781 C 27.15625 23.425781 26.429688 22.988281 25.976562 22.183594 C 25.933594 22.09375 25.886719 22.015625 25.839844 21.925781 C 25.570312 21.335938 25.449219 20.683594 25.34375 20.0625 C 25.328125 19.96875 25.386719 19.878906 25.480469 19.847656 C 25.570312 19.832031 25.660156 19.894531 25.675781 19.984375 C 25.78125 20.589844 25.886719 21.214844 26.144531 21.757812 C 26.175781 21.835938 26.21875 21.925781 26.265625 22 C 26.671875 22.714844 27.292969 23.09375 28.050781 23.0625 C 28.109375 23.0625 28.15625 23.0625 28.214844 23.046875 C 28.835938 22.988281 29.484375 22.636719 29.953125 22.09375 C 30.015625 22.015625 30.136719 22.015625 30.195312 22.078125 C 30.273438 22.136719 30.273438 22.257812 30.210938 22.320312 C 29.667969 22.925781 28.957031 23.320312 28.246094 23.394531 C 28.183594 23.394531 28.109375 23.410156 28.050781 23.410156 C 28.050781 23.425781 28.019531 23.425781 28.003906 23.425781 Z M 28.003906 23.425781 " fill-opacity="1" fill-rule="nonzero"/><path fill="#00053f" d="M 23.316406 24.019531 C 22.710938 24.019531 22.078125 23.820312 21.53125 23.457031 C 21.457031 23.394531 21.425781 23.289062 21.488281 23.214844 C 21.546875 23.136719 21.652344 23.109375 21.730469 23.167969 C 22.347656 23.578125 23.058594 23.761719 23.695312 23.652344 C 23.726562 23.652344 23.753906 23.640625 23.785156 23.640625 C 24.542969 23.488281 25.054688 22.957031 25.28125 22.152344 C 25.296875 22.109375 25.3125 22.046875 25.3125 22 C 25.3125 22 25.3125 21.988281 25.3125 21.988281 C 25.449219 21.363281 25.386719 20.667969 25.34375 20.0625 C 25.328125 19.96875 25.402344 19.878906 25.507812 19.863281 C 25.613281 19.863281 25.691406 19.925781 25.707031 20.03125 C 25.75 20.652344 25.8125 21.378906 25.675781 22.046875 C 25.675781 22.046875 25.675781 22.0625 25.675781 22.0625 C 25.660156 22.121094 25.644531 22.183594 25.628906 22.246094 C 25.386719 23.183594 24.753906 23.804688 23.875 23.988281 C 23.847656 23.988281 23.816406 24.003906 23.769531 24.003906 C 23.617188 24.003906 23.46875 24.019531 23.316406 24.019531 Z M 23.316406 24.019531 " fill-opacity="1" fill-rule="nonzero"/><path fill="#fc097a" d="M 26.871094 21.5625 C 25.78125 22.441406 24.542969 22.0625 23.832031 21.304688 C 23.226562 20.652344 23.015625 19.699219 23.664062 19.015625 C 24.285156 18.363281 25.464844 18.121094 26.417969 18.347656 C 26.734375 18.425781 27.019531 18.546875 27.261719 18.726562 C 28.214844 19.453125 27.65625 20.925781 26.871094 21.5625 Z M 26.871094 21.5625 " fill-opacity="1" fill-rule="nonzero"/><path fill="#00053f" d="M 26.871094 21.5625 C 25.78125 22.441406 24.542969 22.0625 23.832031 21.304688 C 24.269531 21.214844 24.691406 21.03125 25.054688 20.773438 C 25.828125 20.210938 26.308594 19.304688 26.417969 18.347656 C 26.734375 18.425781 27.019531 18.546875 27.261719 18.726562 C 28.214844 19.453125 27.65625 20.925781 26.871094 21.5625 Z M 26.871094 21.5625 " fill-opacity="0.2471" fill-rule="nonzero"/><path fill="#00053f" d="M 25.507812 22.246094 C 24.796875 22.246094 24.148438 21.894531 23.695312 21.410156 C 22.953125 20.605469 22.878906 19.5625 23.527344 18.878906 C 24.164062 18.210938 25.386719 17.910156 26.460938 18.167969 C 26.808594 18.257812 27.128906 18.394531 27.367188 18.574219 C 27.730469 18.847656 27.929688 19.257812 27.929688 19.742188 C 27.945312 20.425781 27.535156 21.226562 26.960938 21.699219 C 26.507812 22.078125 25.992188 22.246094 25.507812 22.246094 Z M 25.691406 18.4375 C 24.949219 18.4375 24.207031 18.695312 23.785156 19.136719 C 23.179688 19.773438 23.4375 20.621094 23.953125 21.183594 C 24.585938 21.863281 25.734375 22.246094 26.75 21.425781 C 27.234375 21.03125 27.582031 20.335938 27.582031 19.757812 C 27.582031 19.378906 27.429688 19.089844 27.15625 18.878906 C 26.945312 18.710938 26.6875 18.605469 26.371094 18.53125 C 26.160156 18.46875 25.933594 18.4375 25.691406 18.4375 Z M 26.871094 21.5625 Z M 26.871094 21.5625 " fill-opacity="1" fill-rule="nonzero"/><path fill="#fc097a" d="M 35.550781 51.367188 C 31.890625 54.808594 28.109375 55.292969 23.664062 52.867188 C 21.925781 51.925781 20.292969 50.730469 18.796875 49.367188 C 16.707031 47.441406 14.953125 45.136719 13.683594 42.648438 C 10.011719 35.386719 12.6875 29.261719 20.214844 30.945312 C 23.179688 31.613281 25.070312 32.839844 27.367188 34.371094 C 27.640625 34.054688 27.851562 33.796875 28.078125 33.554688 C 30.421875 30.886719 33.78125 28.308594 37.332031 28.15625 C 38 28.125 38.617188 28.203125 39.179688 28.382812 C 45.152344 30.25 44.394531 43.042969 35.550781 51.367188 Z M 35.550781 51.367188 " fill-opacity="1" fill-rule="nonzero"/><path fill="#00053f" d="M 35.550781 51.367188 C 31.890625 54.808594 28.109375 55.292969 23.664062 52.867188 C 21.925781 51.925781 20.292969 50.730469 18.796875 49.367188 C 19.097656 49.351562 19.386719 49.335938 19.6875 49.320312 C 23.695312 49.109375 27.882812 48.546875 31.195312 46.273438 C 34.082031 44.285156 36.035156 41.132812 37.199219 37.828125 C 38.269531 34.796875 38.738281 31.597656 39.164062 28.398438 C 45.152344 30.25 44.394531 43.042969 35.550781 51.367188 Z M 35.550781 51.367188 " fill-opacity="0.2471" fill-rule="nonzero"/><path fill="#ff8dc5" d="M 15 33.554688 C 15.785156 33.3125 16.617188 33.191406 17.449219 33.144531 C 18.28125 33.097656 19.128906 33.144531 19.945312 33.296875 C 20.777344 33.449219 21.578125 33.691406 22.347656 34.023438 C 23.121094 34.371094 23.832031 34.8125 24.464844 35.359375 C 24.542969 35.417969 24.542969 35.523438 24.480469 35.601562 C 24.421875 35.660156 24.328125 35.675781 24.269531 35.628906 C 23.574219 35.222656 22.863281 34.871094 22.121094 34.585938 C 21.382812 34.3125 20.609375 34.097656 19.839844 33.964844 C 19.066406 33.828125 18.265625 33.75 17.464844 33.734375 C 16.664062 33.71875 15.863281 33.78125 15.058594 33.855469 C 14.96875 33.871094 14.894531 33.796875 14.878906 33.71875 C 14.878906 33.660156 14.925781 33.582031 15 33.554688 Z M 15 33.554688 " fill-opacity="1" fill-rule="nonzero"/><path fill="#ffffff" d="M 22.921875 43.527344 C 22.574219 43.621094 20.335938 43.710938 20.050781 43.832031 C 20.050781 43.816406 19.355469 38.691406 19.277344 37.828125 C 18.839844 37.707031 17.796875 37.859375 17.511719 38.027344 C 18.476562 44.816406 18.207031 43.5 18.460938 45.816406 C 22.03125 45.425781 22.515625 45.257812 22.816406 45.242188 C 23.121094 45.195312 23.164062 45.257812 22.96875 44.195312 C 22.953125 44.015625 22.953125 43.742188 22.921875 43.527344 Z M 22.921875 43.527344 " fill-opacity="1" fill-rule="nonzero"/><path fill="#ffffff" d="M 27.246094 38.027344 C 26.644531 36.796875 24.648438 36.859375 23.496094 37.617188 C 22.410156 38.421875 23.058594 41.117188 23.421875 43.285156 C 23.664062 44.832031 24.316406 45.105469 25.402344 45.074219 C 26.203125 45.03125 27.324219 44.679688 27.703125 43.984375 C 28.199219 42.878906 27.777344 41.164062 27.6875 39.785156 C 27.609375 39.222656 27.535156 38.511719 27.246094 38.027344 Z M 26.476562 41.40625 C 26.476562 41.4375 26.507812 41.679688 26.523438 41.984375 C 26.550781 42.632812 26.660156 42.621094 26.429688 43.011719 C 26.039062 43.574219 25.101562 43.636719 24.753906 43.089844 C 24.511719 42.527344 24.117188 40.832031 24.207031 39.722656 C 24.316406 39.058594 24.875 38.464844 25.480469 38.632812 C 25.839844 38.753906 26.082031 39.085938 26.175781 39.496094 C 26.21875 39.753906 26.296875 40.117188 26.296875 40.117188 L 26.417969 40.859375 Z M 26.476562 41.40625 " fill-opacity="1" fill-rule="nonzero"/><path fill="#ffffff" d="M 30.984375 36.417969 C 30.847656 36.433594 30.90625 39.269531 30.648438 41.753906 C 29.757812 39.4375 29.589844 37.191406 29.410156 36.632812 C 29.167969 36.601562 27.988281 36.722656 27.851562 36.949219 C 27.945312 37.296875 28.5625 40.601562 30.105469 44.273438 C 30.621094 44.378906 31.707031 44.121094 31.722656 44.105469 C 32.101562 41.453125 32.433594 38.996094 32.601562 36.3125 C 32.070312 36.28125 31.496094 36.464844 30.984375 36.417969 Z M 30.984375 36.417969 " fill-opacity="1" fill-rule="nonzero"/><path fill="#ffffff" d="M 38.589844 41.710938 C 37.589844 41.875 36.652344 41.90625 35.683594 42.027344 L 35.671875 42.011719 C 35.640625 41.847656 35.59375 41.632812 35.550781 41.40625 C 35.503906 41.148438 35.472656 40.859375 35.488281 40.632812 C 35.566406 40.558594 35.777344 40.527344 36.046875 40.496094 C 36.304688 40.464844 36.59375 40.421875 36.820312 40.332031 C 36.757812 39.921875 36.742188 39.527344 36.683594 39.148438 C 36.667969 39.027344 36.636719 38.90625 36.609375 38.800781 L 36.609375 38.785156 C 36.152344 38.828125 35.683594 38.90625 35.246094 38.921875 L 35.230469 38.90625 C 35.082031 38.527344 35.125 38.039062 35.050781 37.617188 L 35.066406 37.601562 L 35.097656 37.601562 C 35.851562 37.433594 36.636719 37.417969 37.394531 37.269531 C 37.589844 37.222656 37.789062 37.175781 37.984375 37.101562 C 37.984375 37.085938 37.9375 36.3125 37.847656 35.78125 C 37.832031 35.675781 37.800781 35.585938 37.789062 35.507812 C 37.773438 35.449219 34.929688 35.859375 33.222656 36.160156 C 33.386719 38.632812 33.808594 41.011719 34.144531 43.5 L 34.171875 43.742188 C 35.609375 43.679688 37.199219 43.363281 38.710938 43.179688 C 38.769531 42.632812 38.648438 42.117188 38.589844 41.710938 Z M 38.589844 41.710938 " fill-opacity="1" fill-rule="nonzero"/><g mask="url(#4b8afec527)"><g transform="matrix(1, 0, 0, 1, 33, 35)"><g clip-path="url(#509b8ef543)"><path fill="#00053f" d="M 3.820312 5.332031 C 3.609375 5.421875 3.304688 5.453125 3.046875 5.496094 C 3.273438 5.058594 3.488281 4.601562 3.667969 4.148438 C 3.742188 4.527344 3.757812 4.921875 3.820312 5.332031 Z M 3.820312 5.332031 " fill-opacity="1" fill-rule="nonzero"/><g clip-path="url(#d1313f08b9)"><path fill="#00053f" d="M 4.96875 2.101562 C 4.773438 2.175781 4.589844 2.222656 4.378906 2.269531 C 4.546875 1.78125 4.679688 1.28125 4.816406 0.78125 C 4.921875 1.3125 4.96875 2.085938 4.96875 2.101562 Z M 4.96875 2.101562 " fill-opacity="1" fill-rule="nonzero"/></g><g clip-path="url(#bf28105f5a)"><path fill="#00053f" d="M 5.695312 8.195312 C 4.199219 8.378906 2.609375 8.695312 1.160156 8.757812 L 1.128906 8.515625 C 1.65625 7.863281 2.125 7.148438 2.566406 6.40625 C 2.59375 6.632812 2.640625 6.847656 2.683594 7.011719 L 2.699219 7.027344 C 3.667969 6.90625 4.605469 6.875 5.605469 6.710938 C 5.648438 7.117188 5.769531 7.632812 5.695312 8.195312 Z M 5.695312 8.195312 " fill-opacity="1" fill-rule="nonzero"/></g></g></g></g><path fill="#00053f" d="M 28.894531 54.566406 C 27.21875 54.566406 25.449219 54.050781 23.574219 53.035156 C 21.835938 52.078125 20.1875 50.898438 18.675781 49.503906 C 16.558594 47.53125 14.773438 45.195312 13.519531 42.742188 C 11.460938 38.675781 11.308594 34.886719 13.09375 32.566406 C 14.53125 30.71875 17.070312 30.082031 20.246094 30.792969 C 23.257812 31.460938 25.238281 32.765625 27.324219 34.160156 L 27.476562 33.976562 C 27.640625 33.796875 27.777344 33.613281 27.929688 33.449219 C 29.652344 31.492188 33.160156 28.171875 37.304688 27.988281 C 37.984375 27.960938 38.617188 28.035156 39.207031 28.230469 C 41.054688 28.808594 42.355469 30.429688 42.898438 32.824219 C 43.488281 35.402344 43.171875 38.617188 41.992188 41.890625 C 40.707031 45.484375 38.496094 48.804688 35.640625 51.503906 C 33.492188 53.535156 31.269531 54.566406 28.894531 54.566406 Z M 17.859375 30.839844 C 15.90625 30.839844 14.363281 31.492188 13.382812 32.765625 C 11.671875 34.964844 11.855469 38.632812 13.851562 42.558594 C 15.074219 44.984375 16.828125 47.289062 18.929688 49.230469 C 20.414062 50.609375 22.046875 51.777344 23.753906 52.699219 C 28.125 55.082031 31.828125 54.609375 35.429688 51.230469 C 40.070312 46.863281 44.015625 39.164062 42.582031 32.886719 C 42.066406 30.628906 40.839844 29.097656 39.117188 28.550781 C 38.574219 28.382812 37.96875 28.308594 37.332031 28.339844 C 34.398438 28.460938 31.074219 30.398438 28.199219 33.675781 C 28.050781 33.839844 27.914062 34.007812 27.761719 34.191406 L 27.503906 34.492188 C 27.445312 34.554688 27.355469 34.570312 27.277344 34.523438 C 25.085938 33.054688 23.195312 31.78125 20.1875 31.113281 C 19.371094 30.929688 18.582031 30.839844 17.859375 30.839844 Z M 35.550781 51.367188 Z M 35.550781 51.367188 " fill-opacity="1" fill-rule="nonzero"/><path fill="#a75efd" d="M 51.984375 52.441406 C 51.0625 59.113281 43.640625 66.875 36.683594 62.160156 C 34.171875 60.460938 33.085938 57.902344 32.992188 55.15625 C 32.84375 50.351562 35.804688 45 39.796875 42.847656 C 43.367188 40.921875 47.375 41.800781 49.824219 44.53125 C 51.503906 46.394531 52.441406 49.136719 51.984375 52.441406 Z M 51.984375 52.441406 " fill-opacity="1" fill-rule="nonzero"/><path fill="#00053f" d="M 51.984375 52.441406 C 51.0625 59.113281 43.640625 66.875 36.683594 62.160156 C 34.171875 60.460938 33.085938 57.902344 32.992188 55.15625 C 34.507812 55.640625 36.09375 55.855469 37.679688 55.898438 C 40.085938 55.976562 42.582031 55.640625 44.605469 54.339844 C 46.464844 53.140625 47.753906 51.214844 48.570312 49.152344 C 49.160156 47.667969 49.519531 46.089844 49.824219 44.515625 C 51.503906 46.394531 52.441406 49.136719 51.984375 52.441406 Z M 51.984375 52.441406 " fill-opacity="0.2471" fill-rule="nonzero"/><path fill="#00053f" d="M 41.144531 63.78125 C 39.570312 63.78125 38.042969 63.28125 36.59375 62.296875 C 34.21875 60.691406 32.917969 58.21875 32.828125 55.15625 C 32.675781 50.246094 35.640625 44.894531 39.722656 42.679688 C 43.230469 40.785156 47.34375 41.480469 49.960938 44.394531 C 51.820312 46.453125 52.605469 49.320312 52.167969 52.457031 C 51.5625 56.871094 48.339844 61.3125 44.53125 63.007812 C 43.398438 63.539062 42.261719 63.78125 41.144531 63.78125 Z M 43.804688 41.984375 C 42.488281 41.984375 41.144531 42.316406 39.875 43 C 35.957031 45.105469 33.007812 50.441406 33.160156 55.140625 C 33.222656 57.203125 33.902344 60.054688 36.773438 62.007812 C 39.148438 63.617188 41.777344 63.859375 44.363281 62.707031 C 48.023438 61.070312 51.214844 56.65625 51.804688 52.429688 C 52.210938 49.394531 51.472656 46.636719 49.6875 44.652344 C 48.128906 42.90625 45.996094 41.984375 43.804688 41.984375 Z M 51.984375 52.441406 Z M 51.984375 52.441406 " fill-opacity="1" fill-rule="nonzero"/><path fill="#ff8dc5" d="M 48.386719 52.382812 C 47.238281 60.8125 37.515625 63.859375 36.320312 55.824219 C 36.320312 55.808594 36.320312 55.792969 36.304688 55.777344 C 35.914062 51.578125 38.511719 47.652344 41.445312 46.257812 C 44.5 44.800781 47.644531 46.289062 48.328125 49.730469 C 48.492188 50.503906 48.523438 51.398438 48.386719 52.382812 Z M 48.386719 52.382812 " fill-opacity="1" fill-rule="nonzero"/><path fill="#fc097a" d="M 48.386719 52.382812 C 47.238281 60.8125 37.515625 63.859375 36.320312 55.824219 C 36.773438 55.871094 37.226562 55.898438 37.679688 55.914062 C 40.085938 55.992188 42.582031 55.65625 44.605469 54.351562 C 46.300781 53.261719 47.523438 51.5625 48.339844 49.714844 C 48.492188 50.503906 48.523438 51.398438 48.386719 52.382812 Z M 48.386719 52.382812 " fill-opacity="0.2471" fill-rule="nonzero"/><path fill="#00053f" d="M 40.828125 60.691406 C 38.347656 60.691406 36.59375 58.886719 36.152344 55.855469 C 36.152344 55.855469 36.152344 55.824219 36.140625 55.792969 C 35.730469 51.304688 38.527344 47.457031 41.386719 46.089844 C 42.945312 45.347656 44.53125 45.316406 45.890625 46 C 47.238281 46.683594 48.175781 47.984375 48.507812 49.683594 C 48.675781 50.519531 48.691406 51.441406 48.570312 52.414062 C 47.871094 57.566406 44.09375 60.675781 40.855469 60.691406 C 40.839844 60.691406 40.839844 60.691406 40.828125 60.691406 Z M 43.804688 45.847656 C 43.066406 45.847656 42.292969 46.03125 41.539062 46.394531 C 38.800781 47.714844 36.09375 51.425781 36.488281 55.746094 C 36.488281 55.746094 36.488281 55.761719 36.488281 55.777344 C 37.089844 59.886719 39.707031 60.328125 40.828125 60.328125 C 40.839844 60.328125 40.839844 60.328125 40.855469 60.328125 C 44.742188 60.3125 47.691406 56.171875 48.222656 52.351562 C 48.339844 51.414062 48.328125 50.53125 48.175781 49.746094 C 47.859375 48.152344 46.996094 46.941406 45.757812 46.316406 C 45.136719 46 44.484375 45.847656 43.804688 45.847656 Z M 48.386719 52.382812 Z M 48.386719 52.382812 " fill-opacity="1" fill-rule="nonzero"/><path fill="#a75efd" d="M 8.015625 58.066406 C 10.570312 64.28125 19.71875 69.921875 25.253906 63.617188 C 27.246094 61.34375 27.671875 58.582031 27.066406 55.898438 C 26.007812 51.199219 21.789062 46.773438 17.402344 45.695312 C 13.472656 44.742188 9.8125 46.589844 8.121094 49.851562 C 6.972656 52.09375 6.742188 54.988281 8.015625 58.066406 Z M 8.015625 58.066406 " fill-opacity="1" fill-rule="nonzero"/><path fill="#00053f" d="M 8.015625 58.066406 C 10.570312 64.28125 19.71875 69.921875 25.253906 63.617188 C 27.246094 61.34375 27.671875 58.582031 27.066406 55.898438 C 25.722656 56.75 24.238281 57.355469 22.710938 57.808594 C 20.414062 58.492188 17.902344 58.796875 15.621094 58.050781 C 13.519531 57.355469 11.792969 55.824219 10.480469 54.035156 C 9.527344 52.746094 8.785156 51.320312 8.105469 49.867188 C 6.972656 52.09375 6.742188 54.988281 8.015625 58.066406 Z M 8.015625 58.066406 " fill-opacity="0.2471" fill-rule="nonzero"/><path fill="#00053f" d="M 19.386719 66.558594 C 18.902344 66.558594 18.402344 66.511719 17.902344 66.4375 C 13.773438 65.738281 9.554688 62.25 7.863281 58.144531 C 6.667969 55.21875 6.699219 52.246094 7.984375 49.773438 C 9.785156 46.289062 13.59375 44.589844 17.464844 45.53125 C 21.972656 46.636719 26.191406 51.078125 27.261719 55.871094 C 27.929688 58.855469 27.292969 61.585938 25.402344 63.738281 C 23.753906 65.601562 21.699219 66.558594 19.386719 66.558594 Z M 8.179688 58.007812 C 9.796875 61.949219 14.003906 65.421875 17.949219 66.085938 C 20.746094 66.558594 23.226562 65.664062 25.132812 63.511719 C 27.414062 60.902344 27.367188 57.960938 26.914062 55.960938 C 25.886719 51.367188 21.699219 46.941406 17.375 45.894531 C 13.667969 44.984375 10.023438 46.621094 8.285156 49.957031 C 7.0625 52.320312 7.015625 55.171875 8.179688 58.007812 Z M 8.179688 58.007812 " fill-opacity="1" fill-rule="nonzero"/><path fill="#ff8dc5" d="M 11.476562 57.097656 C 14.699219 64.964844 24.875 65.464844 24.011719 57.386719 C 24.011719 57.371094 24.011719 57.355469 24.011719 57.339844 C 23.332031 53.171875 19.855469 50.03125 16.648438 49.410156 C 13.320312 48.773438 10.660156 51.003906 10.855469 54.503906 C 10.902344 55.308594 11.113281 56.171875 11.476562 57.097656 Z M 11.476562 57.097656 " fill-opacity="1" fill-rule="nonzero"/><path fill="#fc097a" d="M 11.476562 57.097656 C 14.699219 64.964844 24.875 65.464844 24.011719 57.386719 C 23.589844 57.535156 23.148438 57.6875 22.710938 57.808594 C 20.414062 58.492188 17.902344 58.796875 15.621094 58.050781 C 13.714844 57.414062 12.097656 56.082031 10.839844 54.503906 C 10.902344 55.308594 11.113281 56.171875 11.476562 57.097656 Z M 11.476562 57.097656 " fill-opacity="0.2471" fill-rule="nonzero"/><path fill="#00053f" d="M 19.476562 63.402344 C 16.527344 63.402344 13.019531 61.296875 11.324219 57.15625 C 10.949219 56.25 10.734375 55.355469 10.691406 54.503906 C 10.585938 52.777344 11.160156 51.289062 12.292969 50.289062 C 13.441406 49.289062 15 48.910156 16.679688 49.246094 C 19.777344 49.851562 23.46875 52.882812 24.195312 57.308594 C 24.195312 57.339844 24.195312 57.355469 24.195312 57.386719 C 24.527344 60.433594 23.269531 62.628906 20.851562 63.238281 C 20.414062 63.359375 19.945312 63.402344 19.476562 63.402344 Z M 11.644531 57.035156 C 13.09375 60.597656 17.011719 63.859375 20.761719 62.902344 C 21.835938 62.628906 24.285156 61.554688 23.847656 57.414062 C 23.847656 57.386719 23.847656 57.386719 23.847656 57.371094 C 23.148438 53.09375 19.597656 50.167969 16.617188 49.59375 C 15.046875 49.289062 13.59375 49.636719 12.535156 50.5625 C 11.476562 51.488281 10.949219 52.882812 11.054688 54.488281 C 11.082031 55.308594 11.28125 56.15625 11.644531 57.035156 Z M 11.644531 57.035156 " fill-opacity="1" fill-rule="nonzero"/><path fill="#0097fe" d="M 69.785156 42.089844 C 69.753906 42.210938 69.648438 42.285156 69.570312 42.363281 C 68.453125 43.574219 68.300781 44.558594 67.183594 45.226562 C 67.136719 45.257812 67.089844 45.273438 67.046875 45.300781 C 66.367188 45.667969 65.625 45.742188 64.988281 45.636719 C 64.277344 45.53125 63.703125 45.179688 63.476562 44.757812 C 63.449219 44.695312 63.417969 44.621094 63.402344 44.558594 C 63.402344 44.558594 63.402344 44.542969 63.402344 44.542969 C 63.296875 44.074219 63.613281 43.5 63.855469 43.121094 C 64.929688 41.453125 67.320312 40.9375 69.269531 41.632812 C 69.433594 41.695312 69.769531 41.800781 69.796875 42.011719 C 69.796875 42.027344 69.796875 42.058594 69.785156 42.089844 Z M 69.785156 42.089844 " fill-opacity="1" fill-rule="nonzero"/><path fill="#5617a6" d="M 69.785156 42.089844 C 69.753906 42.210938 69.648438 42.285156 69.570312 42.363281 C 68.453125 43.574219 68.300781 44.558594 67.183594 45.226562 C 66.019531 45.96875 63.871094 45.847656 63.386719 44.542969 C 63.492188 41.859375 66.910156 40.722656 69.253906 41.617188 C 69.449219 41.695312 69.84375 41.816406 69.785156 42.089844 Z M 69.785156 42.089844 " fill-opacity="0.349" fill-rule="nonzero"/><path fill="#5617a6" d="M 69.785156 42.089844 C 69.753906 42.210938 69.648438 42.285156 69.570312 42.363281 C 68.453125 43.574219 68.300781 44.558594 67.183594 45.226562 C 66.0625 45.925781 63.871094 45.863281 63.402344 44.558594 C 64.355469 43.847656 67.273438 41.953125 69.796875 41.996094 C 69.796875 42.027344 69.796875 42.058594 69.785156 42.089844 Z M 69.785156 42.089844 " fill-opacity="0.2471" fill-rule="nonzero"/><path fill="#ffffff" d="M 67.441406 41.511719 C 68.363281 41.527344 68.242188 41.90625 68.058594 41.96875 C 67.394531 42.195312 65.714844 42.511719 65.851562 42.496094 C 65.214844 42.558594 66.125 41.496094 67.441406 41.511719 Z M 67.441406 41.511719 " fill-opacity="0.498" fill-rule="nonzero"/><path fill="#00053f" d="M 65.519531 45.863281 C 65.335938 45.863281 65.15625 45.847656 64.960938 45.816406 C 64.203125 45.695312 63.582031 45.332031 63.328125 44.847656 C 63.28125 44.773438 63.25 44.679688 63.234375 44.605469 C 63.234375 44.589844 63.234375 44.589844 63.234375 44.589844 C 63.144531 44.179688 63.296875 43.679688 63.71875 43.027344 C 64.777344 41.375 67.199219 40.710938 69.34375 41.46875 L 69.375 41.480469 C 69.585938 41.558594 69.949219 41.679688 69.980469 41.996094 C 69.980469 42.042969 69.980469 42.089844 69.980469 42.132812 C 69.949219 42.285156 69.859375 42.375 69.785156 42.4375 C 69.769531 42.453125 69.753906 42.46875 69.722656 42.496094 C 69.269531 42.984375 68.964844 43.453125 68.710938 43.863281 C 68.316406 44.46875 67.984375 44.984375 67.289062 45.410156 C 67.242188 45.4375 67.199219 45.453125 67.152344 45.484375 C 66.636719 45.726562 66.078125 45.863281 65.519531 45.863281 Z M 67.5 41.496094 C 66.046875 41.496094 64.703125 42.117188 63.992188 43.210938 C 63.628906 43.769531 63.492188 44.195312 63.570312 44.5 C 63.582031 44.558594 63.613281 44.621094 63.644531 44.679688 C 63.839844 45.058594 64.386719 45.363281 65.019531 45.453125 C 65.683594 45.558594 66.382812 45.453125 66.972656 45.136719 C 67.015625 45.105469 67.0625 45.089844 67.089844 45.058594 C 67.710938 44.679688 68.015625 44.226562 68.390625 43.636719 C 68.664062 43.210938 68.964844 42.742188 69.449219 42.226562 C 69.464844 42.195312 69.496094 42.179688 69.511719 42.164062 C 69.554688 42.117188 69.601562 42.074219 69.617188 42.042969 C 69.617188 42.042969 69.617188 42.027344 69.617188 42.027344 C 69.601562 41.9375 69.34375 41.847656 69.238281 41.800781 L 69.207031 41.785156 C 68.648438 41.605469 68.058594 41.496094 67.5 41.496094 Z M 67.5 41.496094 " fill-opacity="1" fill-rule="nonzero"/><path fill="#00053f" d="M 59.335938 47.683594 C 59.289062 47.683594 59.230469 47.667969 59.199219 47.621094 C 59.136719 47.546875 59.136719 47.441406 59.214844 47.378906 C 59.457031 47.167969 65.261719 42.148438 69.253906 41.921875 C 69.34375 41.921875 69.433594 41.996094 69.433594 42.089844 C 69.433594 42.179688 69.359375 42.269531 69.269531 42.269531 C 65.414062 42.496094 59.5 47.589844 59.441406 47.636719 C 59.410156 47.667969 59.378906 47.683594 59.335938 47.683594 Z M 59.335938 47.683594 " fill-opacity="1" fill-rule="nonzero"/><path fill="#0097fe" d="M 56.160156 39.648438 C 56.054688 39.738281 56.054688 39.875 56.007812 39.996094 C 55.449219 41.738281 54.617188 42.40625 54.554688 43.863281 C 54.554688 43.921875 54.554688 43.96875 54.554688 44.027344 C 54.554688 44.894531 54.859375 45.652344 55.265625 46.226562 C 55.722656 46.847656 56.324219 47.226562 56.824219 47.226562 C 56.898438 47.226562 56.976562 47.210938 57.050781 47.199219 C 57.050781 47.199219 57.066406 47.199219 57.066406 47.199219 C 57.550781 47.0625 57.929688 46.425781 58.15625 45.984375 C 59.167969 44.042969 58.441406 41.4375 56.824219 39.90625 C 56.6875 39.769531 56.417969 39.511719 56.203125 39.601562 C 56.203125 39.617188 56.175781 39.632812 56.160156 39.648438 Z M 56.160156 39.648438 " fill-opacity="1" fill-rule="nonzero"/><path fill="#5617a6" d="M 56.160156 39.648438 C 55.570312 41.4375 54.554688 42.484375 54.554688 44.042969 C 54.542969 45.484375 55.644531 47.425781 57.082031 47.199219 C 59.515625 45.636719 58.835938 41.710938 56.855469 39.90625 C 56.6875 39.753906 56.371094 39.449219 56.160156 39.648438 Z M 56.160156 39.648438 " fill-opacity="0.349" fill-rule="nonzero"/><path fill="#5617a6" d="M 56.160156 39.648438 C 55.601562 41.375 54.632812 42.40625 54.554688 43.878906 C 54.464844 45.289062 55.570312 47.441406 57.050781 47.210938 C 57.234375 45.894531 57.519531 42.027344 56.21875 39.601562 C 56.203125 39.617188 56.175781 39.632812 56.160156 39.648438 Z M 56.160156 39.648438 " fill-opacity="0.2471" fill-rule="nonzero"/><path fill="#ffffff" d="M 57.582031 43.074219 L 57.429688 42.46875 C 57.15625 41.359375 57.128906 41.210938 57.140625 41.253906 C 57.113281 41.089844 57.308594 40.96875 57.445312 41.089844 C 58.078125 41.679688 58.335938 42.890625 58.09375 43.695312 C 58.050781 43.847656 57.824219 43.863281 57.777344 43.710938 C 57.761719 43.695312 57.625 43.269531 57.582031 43.074219 Z M 57.582031 43.074219 " fill-opacity="0.498" fill-rule="nonzero"/><path fill="#00053f" d="M 56.824219 47.410156 C 56.265625 47.410156 55.613281 47 55.132812 46.332031 C 54.648438 45.679688 54.390625 44.863281 54.375 44.042969 C 54.375 43.984375 54.375 43.921875 54.375 43.863281 C 54.40625 42.96875 54.722656 42.363281 55.085938 41.664062 C 55.328125 41.195312 55.613281 40.648438 55.839844 39.9375 C 55.855469 39.90625 55.855469 39.875 55.871094 39.859375 C 55.902344 39.753906 55.933594 39.617188 56.054688 39.511719 C 56.082031 39.480469 56.128906 39.449219 56.175781 39.4375 C 56.476562 39.300781 56.777344 39.585938 56.945312 39.753906 L 56.976562 39.785156 C 58.746094 41.453125 59.335938 44.164062 58.335938 46.074219 C 57.945312 46.832031 57.550781 47.257812 57.140625 47.378906 C 57.140625 47.378906 57.128906 47.378906 57.128906 47.378906 C 57.019531 47.394531 56.929688 47.410156 56.824219 47.410156 Z M 56.324219 39.753906 C 56.308594 39.753906 56.308594 39.753906 56.296875 39.753906 C 56.296875 39.753906 56.28125 39.769531 56.28125 39.769531 C 56.25 39.800781 56.21875 39.875 56.203125 39.949219 C 56.191406 39.980469 56.191406 40.011719 56.175781 40.058594 C 55.933594 40.800781 55.660156 41.347656 55.402344 41.832031 C 55.039062 42.511719 54.769531 43.058594 54.738281 43.878906 C 54.738281 43.9375 54.738281 43.984375 54.738281 44.042969 C 54.738281 44.789062 54.980469 45.53125 55.417969 46.136719 C 55.839844 46.710938 56.371094 47.0625 56.824219 47.0625 C 56.886719 47.0625 56.945312 47.046875 57.007812 47.03125 C 57.019531 47.03125 57.019531 47.03125 57.035156 47.03125 C 57.339844 46.941406 57.671875 46.5625 58.019531 45.910156 C 58.941406 44.136719 58.382812 41.605469 56.734375 40.042969 L 56.703125 40.011719 C 56.613281 39.9375 56.429688 39.753906 56.324219 39.753906 Z M 56.160156 39.648438 Z M 56.160156 39.648438 " fill-opacity="1" fill-rule="nonzero"/><path fill="#00053f" d="M 56.507812 52.246094 C 56.492188 52.246094 56.476562 52.246094 56.476562 52.246094 C 56.386719 52.230469 56.324219 52.125 56.339844 52.035156 C 56.355469 51.957031 57.988281 44.136719 56.265625 40.238281 C 56.21875 40.148438 56.265625 40.042969 56.355469 40.011719 C 56.445312 39.964844 56.550781 40.011719 56.582031 40.101562 C 57.324219 41.785156 57.566406 44.316406 57.308594 47.636719 C 57.113281 50.09375 56.6875 52.09375 56.6875 52.109375 C 56.660156 52.183594 56.582031 52.246094 56.507812 52.246094 Z M 56.507812 52.246094 " fill-opacity="1" fill-rule="nonzero"/><path fill="#0097fe" d="M 48.25 52.382812 C 48.144531 52.472656 48.128906 52.625 48.085938 52.761719 C 47.480469 54.609375 46.558594 55.324219 46.511719 56.871094 C 46.511719 56.929688 46.511719 56.992188 46.511719 57.050781 C 46.527344 57.960938 46.875 58.765625 47.34375 59.371094 C 47.859375 60.039062 48.539062 60.433594 49.097656 60.433594 C 49.1875 60.433594 49.265625 60.417969 49.355469 60.402344 C 49.355469 60.402344 49.371094 60.402344 49.371094 60.402344 C 49.914062 60.25 50.324219 59.582031 50.578125 59.113281 C 51.683594 57.050781 50.851562 54.292969 49.023438 52.671875 C 48.855469 52.535156 48.570312 52.246094 48.328125 52.351562 C 48.296875 52.351562 48.265625 52.367188 48.25 52.382812 Z M 48.25 52.382812 " fill-opacity="1" fill-rule="nonzero"/><path fill="#5617a6" d="M 48.25 52.382812 C 48.144531 52.472656 48.128906 52.625 48.085938 52.761719 C 47.464844 54.671875 46.480469 55.398438 46.511719 57.035156 C 46.511719 58.613281 47.828125 60.628906 49.371094 60.371094 C 52.0625 58.734375 51.273438 54.566406 49.007812 52.65625 C 48.839844 52.503906 48.492188 52.183594 48.25 52.382812 Z M 48.25 52.382812 " fill-opacity="0.349" fill-rule="nonzero"/><path fill="#5617a6" d="M 48.25 52.382812 C 48.144531 52.472656 48.128906 52.625 48.085938 52.761719 C 47.464844 54.671875 46.480469 55.398438 46.511719 57.035156 C 46.511719 58.539062 47.8125 60.628906 49.355469 60.386719 C 49.550781 58.992188 49.824219 54.898438 48.328125 52.335938 C 48.296875 52.351562 48.265625 52.367188 48.25 52.382812 Z M 48.25 52.382812 " fill-opacity="0.2471" fill-rule="nonzero"/><path fill="#ffffff" d="M 49.386719 54.09375 C 49.355469 54.003906 49.414062 53.898438 49.519531 53.882812 C 49.808594 53.824219 50.472656 54.824219 50.519531 55.945312 C 50.550781 57.019531 50.171875 56.839844 50.125 56.6875 C 50.003906 56.398438 49.371094 54.050781 49.386719 54.09375 Z M 49.386719 54.09375 " fill-opacity="0.498" fill-rule="nonzero"/><path fill="#00053f" d="M 49.082031 60.597656 C 48.460938 60.597656 47.738281 60.175781 47.191406 59.476562 C 46.648438 58.78125 46.347656 57.914062 46.332031 57.050781 C 46.332031 56.992188 46.332031 56.929688 46.332031 56.871094 C 46.359375 55.929688 46.707031 55.277344 47.101562 54.550781 C 47.375 54.050781 47.675781 53.472656 47.917969 52.730469 C 47.933594 52.699219 47.933594 52.671875 47.949219 52.640625 C 47.980469 52.519531 48.023438 52.382812 48.144531 52.277344 C 48.175781 52.246094 48.222656 52.214844 48.265625 52.199219 C 48.582031 52.0625 48.917969 52.351562 49.113281 52.535156 L 49.144531 52.5625 C 51.140625 54.324219 51.835938 57.1875 50.746094 59.21875 C 50.324219 60.007812 49.898438 60.460938 49.429688 60.582031 C 49.414062 60.582031 49.414062 60.582031 49.398438 60.597656 C 49.292969 60.582031 49.203125 60.597656 49.082031 60.597656 C 49.097656 60.597656 49.097656 60.597656 49.082031 60.597656 Z M 48.433594 52.503906 C 48.417969 52.503906 48.402344 52.503906 48.386719 52.503906 C 48.371094 52.503906 48.371094 52.519531 48.355469 52.519531 C 48.3125 52.550781 48.296875 52.625 48.28125 52.714844 C 48.265625 52.746094 48.265625 52.792969 48.25 52.820312 C 47.992188 53.609375 47.691406 54.1875 47.402344 54.703125 C 47.011719 55.429688 46.707031 56.003906 46.679688 56.871094 C 46.679688 56.929688 46.679688 56.992188 46.679688 57.035156 C 46.695312 57.824219 46.964844 58.613281 47.464844 59.25 C 47.949219 59.855469 48.554688 60.234375 49.066406 60.234375 C 49.066406 60.234375 49.066406 60.234375 49.082031 60.234375 C 49.160156 60.234375 49.234375 60.21875 49.292969 60.203125 C 49.308594 60.203125 49.308594 60.203125 49.324219 60.203125 C 49.671875 60.097656 50.050781 59.703125 50.414062 59.007812 C 51.425781 57.128906 50.761719 54.445312 48.886719 52.792969 L 48.855469 52.761719 C 48.765625 52.6875 48.554688 52.503906 48.433594 52.503906 Z M 48.25 52.382812 Z M 48.25 52.382812 " fill-opacity="1" fill-rule="nonzero"/><path fill="#00053f" d="M 48.660156 66.4375 C 48.644531 66.4375 48.628906 66.4375 48.628906 66.4375 C 48.539062 66.421875 48.476562 66.3125 48.492188 66.222656 C 48.507812 66.132812 50.367188 57.128906 48.386719 53.003906 C 48.339844 52.914062 48.386719 52.808594 48.460938 52.761719 C 48.554688 52.714844 48.660156 52.761719 48.703125 52.835938 C 49.566406 54.609375 49.839844 57.414062 49.550781 61.175781 C 49.324219 63.964844 48.855469 66.253906 48.855469 66.285156 C 48.808594 66.375 48.75 66.4375 48.660156 66.4375 Z M 48.660156 66.4375 " fill-opacity="1" fill-rule="nonzero"/><path fill="#0097fe" d="M 58.535156 63.859375 C 58.519531 63.996094 58.414062 64.101562 58.320312 64.207031 C 57.15625 65.753906 57.128906 66.921875 55.902344 67.84375 C 55.855469 67.875 55.8125 67.921875 55.75 67.953125 C 55.011719 68.46875 54.148438 68.648438 53.390625 68.605469 C 52.558594 68.558594 51.851562 68.238281 51.515625 67.785156 C 51.472656 67.710938 51.425781 67.632812 51.394531 67.558594 C 51.394531 67.558594 51.394531 67.542969 51.382812 67.542969 C 51.199219 67.011719 51.503906 66.285156 51.730469 65.828125 C 52.773438 63.753906 55.480469 62.84375 57.835938 63.402344 C 58.050781 63.449219 58.441406 63.523438 58.503906 63.78125 C 58.535156 63.796875 58.535156 63.828125 58.535156 63.859375 Z M 58.535156 63.859375 " fill-opacity="1" fill-rule="nonzero"/><path fill="#5617a6" d="M 58.535156 63.859375 C 58.519531 63.996094 58.414062 64.101562 58.320312 64.207031 C 57.128906 65.8125 57.113281 67.027344 55.75 67.953125 C 54.464844 68.859375 52.089844 68.9375 51.394531 67.542969 C 51.183594 64.402344 55.011719 62.660156 57.867188 63.402344 C 58.09375 63.449219 58.5625 63.539062 58.535156 63.859375 Z M 58.535156 63.859375 " fill-opacity="0.349" fill-rule="nonzero"/><path fill="#5617a6" d="M 58.535156 63.859375 C 58.519531 63.996094 58.414062 64.101562 58.320312 64.207031 C 57.128906 65.8125 57.113281 67.027344 55.75 67.953125 C 54.527344 68.816406 52.089844 68.953125 51.410156 67.558594 C 52.441406 66.601562 55.601562 64.023438 58.535156 63.78125 C 58.535156 63.796875 58.535156 63.828125 58.535156 63.859375 Z M 58.535156 63.859375 " fill-opacity="0.2471" fill-rule="nonzero"/><path fill="#ffffff" d="M 56.476562 63.570312 C 56.644531 63.617188 56.660156 63.84375 56.507812 63.917969 C 56.128906 64.070312 53.953125 64.828125 53.996094 64.8125 C 53.90625 64.84375 53.816406 64.785156 53.785156 64.691406 C 53.679688 64.34375 55.222656 63.28125 56.476562 63.570312 Z M 56.476562 63.570312 " fill-opacity="0.498" fill-rule="nonzero"/><path fill="#00053f" d="M 53.605469 68.785156 C 53.527344 68.785156 53.46875 68.785156 53.390625 68.785156 C 52.515625 68.738281 51.742188 68.390625 51.382812 67.890625 C 51.320312 67.800781 51.273438 67.710938 51.246094 67.632812 C 51.246094 67.617188 51.246094 67.617188 51.230469 67.617188 C 51.0625 67.164062 51.183594 66.558594 51.59375 65.753906 C 52.621094 63.707031 55.328125 62.628906 57.914062 63.238281 L 57.957031 63.253906 C 58.214844 63.3125 58.640625 63.402344 58.714844 63.753906 C 58.730469 63.796875 58.730469 63.84375 58.730469 63.890625 C 58.714844 64.054688 58.625 64.160156 58.546875 64.253906 C 58.535156 64.28125 58.503906 64.296875 58.488281 64.328125 C 58.019531 64.964844 57.730469 65.527344 57.476562 66.042969 C 57.097656 66.785156 56.777344 67.4375 56.023438 67.996094 C 55.976562 68.027344 55.933594 68.074219 55.871094 68.101562 C 55.191406 68.542969 54.40625 68.785156 53.605469 68.785156 Z M 56.445312 63.402344 C 54.496094 63.402344 52.679688 64.359375 51.910156 65.890625 C 51.5625 66.585938 51.441406 67.117188 51.578125 67.464844 C 51.609375 67.542969 51.636719 67.601562 51.683594 67.679688 C 51.972656 68.101562 52.636719 68.390625 53.421875 68.421875 C 54.222656 68.46875 55.023438 68.238281 55.675781 67.800781 C 55.722656 67.769531 55.765625 67.738281 55.8125 67.710938 C 56.492188 67.195312 56.792969 66.601562 57.15625 65.875 C 57.414062 65.359375 57.714844 64.769531 58.199219 64.117188 C 58.214844 64.085938 58.246094 64.054688 58.277344 64.023438 C 58.335938 63.964844 58.382812 63.902344 58.382812 63.84375 C 58.382812 63.84375 58.382812 63.828125 58.382812 63.8125 C 58.351562 63.675781 58.035156 63.601562 57.898438 63.570312 L 57.851562 63.554688 C 57.367188 63.464844 56.898438 63.402344 56.445312 63.402344 Z M 56.445312 63.402344 " fill-opacity="1" fill-rule="nonzero"/><path fill="#00053f" d="M 47.042969 71.664062 C 46.996094 71.664062 46.949219 71.652344 46.921875 71.621094 C 46.84375 71.558594 46.84375 71.4375 46.90625 71.378906 C 46.921875 71.363281 48.507812 69.648438 50.640625 67.875 C 53.511719 65.480469 55.949219 64.101562 57.882812 63.765625 C 57.972656 63.753906 58.066406 63.8125 58.078125 63.917969 C 58.09375 64.011719 58.035156 64.101562 57.929688 64.117188 C 53.453125 64.859375 47.222656 71.542969 47.148438 71.605469 C 47.148438 71.652344 47.101562 71.664062 47.042969 71.664062 Z M 47.042969 71.664062 " fill-opacity="1" fill-rule="nonzero"/><path fill="#0097fe" d="M 64.007812 53.1875 C 63.992188 53.324219 63.871094 53.398438 63.796875 53.503906 C 62.617188 54.882812 62.511719 55.976562 61.316406 56.761719 C 61.269531 56.792969 61.226562 56.824219 61.179688 56.855469 C 60.453125 57.292969 59.636719 57.414062 58.941406 57.324219 C 58.171875 57.234375 57.519531 56.898438 57.246094 56.445312 C 57.203125 56.371094 57.171875 56.308594 57.15625 56.234375 C 57.15625 56.234375 57.15625 56.21875 57.15625 56.21875 C 57.019531 55.71875 57.339844 55.050781 57.582031 54.625 C 58.667969 52.746094 61.253906 52.0625 63.449219 52.730469 C 63.644531 52.792969 64.007812 52.882812 64.039062 53.125 C 64.007812 53.125 64.007812 53.15625 64.007812 53.1875 Z M 64.007812 53.1875 " fill-opacity="1" fill-rule="nonzero"/><path fill="#5617a6" d="M 64.007812 53.1875 C 63.992188 53.324219 63.871094 53.398438 63.796875 53.503906 C 62.617188 54.882812 62.511719 55.976562 61.316406 56.761719 C 60.074219 57.628906 57.714844 57.613281 57.128906 56.203125 C 57.113281 53.261719 60.785156 51.851562 63.417969 52.714844 C 63.628906 52.777344 64.050781 52.898438 64.007812 53.1875 Z M 64.007812 53.1875 " fill-opacity="0.349" fill-rule="nonzero"/><path fill="#5617a6" d="M 64.007812 53.1875 C 63.992188 53.324219 63.871094 53.398438 63.796875 53.503906 C 62.617188 54.882812 62.511719 55.976562 61.316406 56.761719 C 60.121094 57.582031 57.714844 57.628906 57.140625 56.21875 C 58.15625 55.382812 61.253906 53.171875 64.023438 53.109375 C 64.007812 53.125 64.007812 53.15625 64.007812 53.1875 Z M 64.007812 53.1875 " fill-opacity="0.2471" fill-rule="nonzero"/><path fill="#ffffff" d="M 59.546875 53.535156 C 60.453125 52.519531 62.359375 52.550781 62.222656 53.019531 C 62.207031 53.078125 62.164062 53.109375 62.117188 53.140625 C 61.921875 53.214844 60.300781 53.6875 60.332031 53.671875 C 59.832031 53.808594 59.667969 53.835938 59.710938 53.824219 C 59.546875 53.835938 59.441406 53.65625 59.546875 53.535156 Z M 59.546875 53.535156 " fill-opacity="0.498" fill-rule="nonzero"/><path fill="#00053f" d="M 59.335938 57.523438 C 59.183594 57.523438 59.046875 57.507812 58.894531 57.492188 C 58.066406 57.398438 57.367188 57.019531 57.066406 56.519531 C 57.019531 56.429688 56.976562 56.355469 56.945312 56.261719 C 56.945312 56.25 56.945312 56.25 56.945312 56.25 C 56.824219 55.808594 56.960938 55.246094 57.382812 54.519531 C 58.457031 52.671875 61.074219 51.804688 63.449219 52.535156 L 63.476562 52.550781 C 63.71875 52.625 64.113281 52.746094 64.160156 53.066406 C 64.171875 53.109375 64.160156 53.15625 64.160156 53.199219 C 64.128906 53.351562 64.039062 53.457031 63.960938 53.535156 C 63.945312 53.550781 63.917969 53.578125 63.902344 53.59375 C 63.417969 54.15625 63.128906 54.671875 62.859375 55.140625 C 62.464844 55.824219 62.117188 56.398438 61.390625 56.886719 C 61.347656 56.914062 61.300781 56.945312 61.238281 56.976562 C 60.679688 57.339844 60.015625 57.523438 59.335938 57.523438 Z M 61.722656 52.640625 C 60.03125 52.640625 58.457031 53.398438 57.703125 54.703125 C 57.339844 55.339844 57.203125 55.824219 57.292969 56.15625 C 57.324219 56.234375 57.339844 56.292969 57.382812 56.355469 C 57.625 56.761719 58.230469 57.066406 58.957031 57.144531 C 59.699219 57.234375 60.453125 57.066406 61.089844 56.6875 C 61.132812 56.65625 61.179688 56.628906 61.226562 56.613281 C 61.890625 56.171875 62.191406 55.640625 62.585938 54.976562 C 62.859375 54.503906 63.175781 53.972656 63.660156 53.382812 C 63.675781 53.351562 63.703125 53.335938 63.734375 53.308594 C 63.796875 53.246094 63.839844 53.199219 63.839844 53.15625 C 63.839844 53.15625 63.839844 53.140625 63.839844 53.140625 C 63.824219 53.019531 63.539062 52.941406 63.402344 52.898438 L 63.355469 52.882812 C 62.8125 52.714844 62.269531 52.640625 61.722656 52.640625 Z M 61.722656 52.640625 " fill-opacity="1" fill-rule="nonzero"/><path fill="#00053f" d="M 52.816406 59.8125 C 52.773438 59.8125 52.726562 59.796875 52.695312 59.75 C 52.636719 59.675781 52.636719 59.566406 52.695312 59.507812 C 52.710938 59.492188 54.300781 57.992188 56.402344 56.460938 C 59.230469 54.382812 61.585938 53.246094 63.417969 53.050781 C 63.507812 53.035156 63.597656 53.109375 63.613281 53.199219 C 63.628906 53.292969 63.554688 53.382812 63.460938 53.398438 C 59.242188 53.835938 53.015625 59.703125 52.953125 59.765625 C 52.910156 59.796875 52.863281 59.8125 52.816406 59.8125 Z M 52.816406 59.8125 " fill-opacity="1" fill-rule="nonzero"/><g clip-path="url(#eabc961e12)"><path fill="#0097fe" d="M 46.074219 73.757812 C 45.996094 73.757812 45.921875 73.742188 45.863281 73.726562 C 45.679688 73.667969 45.527344 73.546875 45.4375 73.363281 C 45.347656 73.167969 45.332031 72.925781 45.421875 72.695312 C 46.117188 70.878906 46.949219 68.996094 47.933594 66.9375 C 48.765625 65.238281 49.671875 63.464844 50.820312 61.355469 C 51.335938 60.433594 52.089844 59.097656 52.910156 57.703125 L 53.511719 56.65625 C 56.296875 51.914062 60.484375 44.726562 64.1875 37.402344 C 64.535156 36.722656 64.855469 36.023438 65.171875 35.359375 C 65.535156 34.585938 65.898438 33.78125 66.304688 33.007812 C 66.425781 32.765625 66.5625 32.523438 66.683594 32.28125 C 67.332031 31.066406 68 29.808594 68.4375 28.488281 C 68.46875 28.382812 68.558594 28.324219 68.664062 28.324219 C 68.738281 28.324219 68.800781 28.355469 68.847656 28.414062 C 68.890625 28.476562 68.90625 28.550781 68.875 28.625 C 66.667969 35.980469 62.191406 43.90625 57.460938 52.292969 C 56.777344 53.488281 56.097656 54.703125 55.417969 55.914062 C 54.074219 58.308594 53.015625 60.25 52.078125 62.007812 C 51.019531 63.996094 50.109375 65.800781 49.292969 67.542969 C 48.328125 69.558594 47.539062 71.410156 46.875 73.183594 C 46.738281 73.515625 46.40625 73.757812 46.074219 73.757812 Z M 46.074219 73.757812 " fill-opacity="1" fill-rule="nonzero"/></g><g clip-path="url(#951116f6ab)"><path fill="#5617a6" d="M 55.265625 55.824219 C 53.121094 59.660156 51.019531 63.496094 49.144531 67.464844 C 48.25 69.332031 47.433594 71.210938 46.707031 73.121094 C 46.574219 73.46875 46.226562 73.667969 45.90625 73.574219 C 45.589844 73.484375 45.453125 73.121094 45.589844 72.773438 C 47.085938 68.859375 48.976562 65.117188 50.972656 61.449219 C 51.457031 60.554688 52.183594 59.308594 53.058594 57.808594 C 53.832031 57.203125 54.570312 56.535156 55.265625 55.824219 Z M 55.265625 55.824219 " fill-opacity="0.2471" fill-rule="nonzero"/></g><g clip-path="url(#0eff131a0c)"><path fill="#00053f" d="M 68.664062 28.503906 C 68.695312 28.503906 68.726562 28.535156 68.710938 28.582031 C 66.183594 36.980469 60.589844 46.316406 55.265625 55.824219 C 54.132812 57.855469 53 59.886719 51.925781 61.933594 C 50.957031 63.765625 50.019531 65.601562 49.144531 67.464844 C 48.25 69.332031 47.433594 71.210938 46.707031 73.121094 C 46.601562 73.410156 46.332031 73.589844 46.074219 73.589844 C 46.011719 73.589844 45.96875 73.574219 45.90625 73.5625 C 45.589844 73.46875 45.453125 73.105469 45.589844 72.757812 C 46.347656 70.800781 47.191406 68.890625 48.101562 66.996094 C 49.007812 65.117188 49.988281 63.265625 50.988281 61.433594 C 51.472656 60.539062 52.199219 59.296875 53.074219 57.792969 C 55.902344 52.957031 60.394531 45.363281 64.371094 37.480469 C 65.109375 36.023438 65.714844 34.539062 66.472656 33.082031 C 67.242188 31.597656 68.089844 30.128906 68.617188 28.550781 C 68.617188 28.519531 68.632812 28.503906 68.664062 28.503906 M 68.664062 28.15625 C 68.484375 28.15625 68.332031 28.277344 68.269531 28.445312 C 67.832031 29.75 67.167969 30.992188 66.53125 32.203125 C 66.410156 32.445312 66.273438 32.691406 66.152344 32.933594 C 65.746094 33.707031 65.382812 34.507812 65.019531 35.28125 C 64.703125 35.949219 64.386719 36.644531 64.050781 37.328125 C 60.347656 44.652344 56.160156 51.820312 53.378906 56.582031 L 52.773438 57.628906 C 51.957031 59.023438 51.183594 60.355469 50.683594 61.28125 C 49.535156 63.386719 48.628906 65.148438 47.796875 66.859375 C 46.800781 68.9375 45.984375 70.816406 45.273438 72.636719 C 45.167969 72.910156 45.179688 73.210938 45.300781 73.453125 C 45.410156 73.683594 45.589844 73.832031 45.832031 73.910156 C 45.921875 73.941406 46.011719 73.957031 46.105469 73.957031 C 46.527344 73.957031 46.90625 73.667969 47.070312 73.257812 C 47.738281 71.484375 48.539062 69.648438 49.492188 67.632812 C 50.308594 65.90625 51.214844 64.085938 52.273438 62.113281 C 53.210938 60.355469 54.269531 58.417969 55.613281 56.019531 C 56.296875 54.808594 56.992188 53.59375 57.65625 52.398438 C 62.402344 44 66.878906 36.070312 69.101562 28.703125 C 69.132812 28.566406 69.117188 28.429688 69.042969 28.339844 C 68.90625 28.21875 68.785156 28.15625 68.664062 28.15625 Z M 68.664062 28.15625 " fill-opacity="1" fill-rule="nonzero"/></g><path fill="#0097fe" d="M 66.167969 38.238281 C 65.535156 38.675781 64.460938 39.359375 63.78125 38.691406 C 63.523438 38.433594 63.3125 37.996094 63.207031 37.449219 C 63.023438 36.511719 63.160156 35.25 63.871094 34.113281 C 64.265625 33.492188 65.15625 33.570312 65.804688 33.675781 C 66.304688 33.765625 66.789062 33.949219 67.226562 34.21875 C 67.425781 34.34375 67.621094 34.492188 67.789062 34.644531 C 68.9375 35.691406 66.984375 37.660156 66.167969 38.238281 Z M 66.167969 38.238281 " fill-opacity="1" fill-rule="nonzero"/><path fill="#5617a6" d="M 66.167969 38.238281 C 64.914062 39.207031 63.539062 39.40625 63.207031 37.449219 C 63.023438 36.511719 63.160156 35.25 63.871094 34.113281 C 64.265625 33.492188 65.15625 33.570312 65.804688 33.675781 C 69.269531 34.417969 68.347656 36.585938 66.167969 38.238281 Z M 66.167969 38.238281 " fill-opacity="0.349" fill-rule="nonzero"/><path fill="#5617a6" d="M 66.167969 38.238281 C 64.914062 39.207031 63.539062 39.40625 63.207031 37.449219 C 64.839844 36.660156 66.167969 35.628906 67.242188 34.21875 C 69.285156 35.160156 67.273438 37.480469 66.167969 38.238281 Z M 66.167969 38.238281 " fill-opacity="0.2471" fill-rule="nonzero"/><path fill="#00053f" d="M 64.476562 39.148438 C 64.1875 39.148438 63.902344 39.058594 63.660156 38.8125 C 63.371094 38.527344 63.144531 38.054688 63.039062 37.480469 C 62.828125 36.328125 63.070312 35.070312 63.734375 34.023438 C 64.1875 33.3125 65.15625 33.386719 65.851562 33.507812 C 66.382812 33.597656 66.894531 33.796875 67.332031 34.070312 C 67.546875 34.207031 67.742188 34.34375 67.921875 34.507812 C 68.226562 34.78125 68.363281 35.128906 68.332031 35.539062 C 68.257812 36.660156 66.910156 37.949219 66.273438 38.390625 C 65.914062 38.632812 65.171875 39.148438 64.476562 39.148438 Z M 65.050781 33.765625 C 64.628906 33.765625 64.234375 33.855469 64.023438 34.191406 C 63.417969 35.160156 63.175781 36.359375 63.371094 37.402344 C 63.460938 37.90625 63.660156 38.328125 63.886719 38.554688 C 64.445312 39.101562 65.335938 38.585938 66.0625 38.085938 C 66.699219 37.648438 67.910156 36.433594 67.96875 35.492188 C 67.984375 35.191406 67.894531 34.949219 67.679688 34.75 C 67.515625 34.601562 67.332031 34.464844 67.136719 34.34375 C 66.730469 34.085938 66.261719 33.902344 65.777344 33.828125 C 65.550781 33.8125 65.292969 33.765625 65.050781 33.765625 Z M 65.050781 33.765625 " fill-opacity="1" fill-rule="nonzero"/><path fill="#fc097a" d="M 72.367188 28.125 C 71.976562 28.382812 71.539062 28.503906 71.070312 28.488281 C 70.371094 28.488281 69.691406 28.382812 69.042969 28.15625 C 68.980469 28.125 68.90625 28.109375 68.847656 28.082031 C 68.105469 27.761719 67.136719 27.398438 66.984375 26.503906 C 66.972656 26.429688 66.972656 26.351562 66.972656 26.277344 C 66.972656 25.625 67.425781 25.019531 67.953125 24.640625 C 69.269531 23.683594 71.097656 23.789062 71.023438 24.941406 C 71.023438 25.003906 71.007812 25.09375 70.992188 25.199219 C 70.976562 25.441406 70.992188 25.746094 71.25 25.746094 C 71.75 25.761719 72.550781 25.429688 72.867188 26.09375 C 73.214844 26.835938 72.929688 27.761719 72.367188 28.125 Z M 72.367188 28.125 " fill-opacity="1" fill-rule="nonzero"/><path fill="#00053f" d="M 69.042969 28.15625 C 68.980469 28.125 68.90625 28.109375 68.847656 28.082031 C 68.105469 27.761719 67.136719 27.398438 66.984375 26.503906 C 66.972656 26.429688 66.972656 26.351562 66.972656 26.277344 C 66.972656 25.625 67.425781 25.019531 67.953125 24.640625 C 69.269531 23.683594 71.097656 23.789062 71.023438 24.941406 C 71.023438 25.003906 71.007812 25.09375 70.992188 25.199219 C 70.707031 25.429688 70.417969 25.683594 70.175781 25.957031 C 69.617188 26.578125 69.195312 27.351562 69.042969 28.15625 Z M 69.042969 28.15625 " fill-opacity="0.2471" fill-rule="nonzero"/><path fill="#00053f" d="M 71.082031 28.671875 C 70.3125 28.671875 69.617188 28.550781 68.980469 28.324219 C 68.90625 28.292969 68.847656 28.277344 68.769531 28.246094 L 68.695312 28.21875 C 67.9375 27.898438 66.984375 27.503906 66.820312 26.550781 C 66.804688 26.457031 66.804688 26.382812 66.804688 26.292969 C 66.804688 25.65625 67.199219 24.988281 67.847656 24.519531 C 68.753906 23.851562 69.980469 23.640625 70.675781 24.03125 C 71.039062 24.230469 71.21875 24.5625 71.203125 24.988281 C 71.203125 25.019531 71.203125 25.0625 71.191406 25.109375 C 71.191406 25.15625 71.175781 25.199219 71.175781 25.246094 C 71.160156 25.488281 71.191406 25.5625 71.21875 25.578125 C 71.21875 25.578125 71.234375 25.59375 71.265625 25.59375 C 71.371094 25.59375 71.507812 25.578125 71.660156 25.5625 C 72.113281 25.503906 72.746094 25.429688 73.035156 26.050781 C 73.414062 26.835938 73.15625 27.867188 72.476562 28.292969 C 72.050781 28.550781 71.582031 28.671875 71.082031 28.671875 Z M 69.8125 24.167969 C 69.285156 24.167969 68.632812 24.351562 68.042969 24.777344 C 67.46875 25.183594 67.136719 25.746094 67.136719 26.261719 C 67.136719 26.320312 67.136719 26.398438 67.152344 26.457031 C 67.289062 27.214844 68.105469 27.566406 68.816406 27.867188 L 68.90625 27.898438 C 68.964844 27.929688 69.027344 27.945312 69.101562 27.976562 C 69.691406 28.203125 70.34375 28.308594 71.070312 28.308594 C 71.507812 28.308594 71.898438 28.1875 72.261719 27.960938 C 72.730469 27.65625 73.019531 26.851562 72.703125 26.15625 C 72.519531 25.792969 72.203125 25.808594 71.671875 25.867188 C 71.523438 25.882812 71.371094 25.914062 71.234375 25.898438 C 71.113281 25.898438 71.007812 25.851562 70.933594 25.761719 C 70.796875 25.609375 70.796875 25.351562 70.8125 25.15625 C 70.8125 25.109375 70.828125 25.0625 70.828125 25.019531 C 70.828125 24.972656 70.839844 24.941406 70.839844 24.914062 C 70.855469 24.640625 70.75 24.425781 70.507812 24.289062 C 70.328125 24.230469 70.085938 24.167969 69.8125 24.167969 Z M 69.8125 24.167969 " fill-opacity="1" fill-rule="nonzero"/><path fill="#fc097a" d="M 71.71875 29.519531 C 71.175781 29.597656 70.523438 29.582031 69.796875 29.382812 C 64.476562 28.019531 68.300781 23.609375 69.949219 25.609375 C 69.996094 25.65625 70.023438 25.699219 70.054688 25.761719 C 70.238281 26.035156 70.464844 26.261719 70.691406 26.472656 C 71.160156 26.929688 71.808594 26.929688 72.808594 26.972656 C 74.621094 27.09375 73.972656 29.203125 71.71875 29.519531 Z M 71.71875 29.519531 " fill-opacity="1" fill-rule="nonzero"/><path fill="#00053f" d="M 71.71875 29.519531 C 71.175781 29.597656 70.523438 29.582031 69.796875 29.382812 C 64.476562 28.019531 68.300781 23.609375 69.949219 25.609375 C 69.675781 26.1875 69.585938 26.835938 69.769531 27.445312 C 70.039062 28.414062 70.828125 29.125 71.71875 29.519531 Z M 71.71875 29.519531 " fill-opacity="0.2471" fill-rule="nonzero"/><path fill="#00053f" d="M 71.113281 29.75 C 70.675781 29.75 70.238281 29.6875 69.769531 29.566406 C 67.378906 28.960938 66.957031 27.792969 66.910156 27.15625 C 66.851562 26.292969 67.453125 25.398438 68.300781 25.0625 C 68.980469 24.792969 69.648438 24.972656 70.101562 25.519531 C 70.144531 25.5625 70.175781 25.625 70.222656 25.683594 C 70.386719 25.929688 70.601562 26.140625 70.828125 26.367188 C 71.21875 26.746094 71.765625 26.777344 72.597656 26.808594 L 72.824219 26.824219 C 73.546875 26.851562 74.003906 27.214844 74.03125 27.761719 C 74.0625 28.519531 73.199219 29.476562 71.75 29.6875 C 71.539062 29.734375 71.324219 29.75 71.113281 29.75 Z M 68.921875 25.292969 C 68.753906 25.292969 68.589844 25.320312 68.421875 25.398438 C 67.816406 25.640625 67.210938 26.320312 67.257812 27.140625 C 67.320312 28.082031 68.242188 28.824219 69.84375 29.234375 C 70.507812 29.398438 71.128906 29.445312 71.6875 29.355469 C 73.019531 29.15625 73.699219 28.324219 73.667969 27.792969 C 73.652344 27.429688 73.335938 27.214844 72.792969 27.1875 L 72.566406 27.171875 C 71.6875 27.125 71.039062 27.09375 70.554688 26.625 C 70.296875 26.382812 70.085938 26.15625 69.890625 25.882812 C 69.859375 25.835938 69.828125 25.792969 69.785156 25.746094 C 69.570312 25.441406 69.269531 25.292969 68.921875 25.292969 Z M 68.921875 25.292969 " fill-opacity="1" fill-rule="nonzero"/><path fill="#fc097a" d="M 66.394531 35.402344 C 64.808594 35.070312 63.355469 33.523438 63.175781 31.902344 C 62.933594 29.703125 65.050781 28.640625 65.503906 26.6875 C 65.625 26.140625 65.699219 25.609375 65.957031 25.109375 C 66.046875 24.941406 66.152344 24.804688 66.261719 24.683594 C 66.667969 24.261719 67.183594 24.230469 67.46875 24.410156 C 67.773438 24.609375 67.652344 24.972656 67.558594 25.261719 C 67.046875 26.703125 68.453125 26.746094 69.464844 26.746094 C 69.675781 26.746094 69.902344 26.777344 70.070312 26.898438 C 70.507812 27.246094 69.796875 27.960938 69.632812 28.324219 C 68.617188 30.371094 69.890625 31.644531 69.316406 33.3125 C 68.859375 34.585938 67.832031 35.707031 66.394531 35.402344 Z M 66.394531 35.402344 " fill-opacity="1" fill-rule="nonzero"/><path fill="#ff8dc5" d="M 68.300781 27.445312 C 68.089844 27.761719 67.894531 28.097656 67.710938 28.429688 C 67.53125 28.761719 67.363281 29.097656 67.242188 29.445312 C 67.121094 29.792969 67.046875 30.144531 67 30.492188 C 66.984375 30.839844 67.03125 31.1875 67.105469 31.566406 L 67.105469 31.582031 C 67.121094 31.671875 67.078125 31.765625 66.972656 31.796875 C 66.894531 31.808594 66.835938 31.78125 66.789062 31.71875 C 66.546875 31.371094 66.394531 30.929688 66.382812 30.492188 C 66.367188 30.050781 66.441406 29.613281 66.59375 29.21875 C 66.742188 28.808594 66.957031 28.445312 67.199219 28.109375 C 67.441406 27.777344 67.726562 27.472656 68.058594 27.214844 C 68.136719 27.15625 68.242188 27.171875 68.285156 27.246094 C 68.347656 27.308594 68.347656 27.382812 68.300781 27.445312 Z M 68.300781 27.445312 " fill-opacity="1" fill-rule="nonzero"/><path fill="#00053f" d="M 66.394531 35.402344 C 64.808594 35.070312 63.355469 33.523438 63.175781 31.902344 C 62.933594 29.703125 65.050781 28.640625 65.503906 26.6875 C 65.625 26.140625 65.699219 25.609375 65.957031 25.109375 C 66.046875 24.941406 66.152344 24.804688 66.261719 24.683594 C 66.515625 24.941406 66.699219 25.261719 66.789062 25.609375 C 67 26.382812 66.820312 27.1875 66.578125 27.945312 C 66.335938 28.703125 66.035156 29.445312 65.957031 30.234375 C 65.882812 31.023438 66.09375 31.902344 66.714844 32.386719 C 67.441406 32.945312 68.484375 32.855469 69.285156 33.3125 C 69.285156 33.3125 69.285156 33.3125 69.300781 33.3125 C 68.859375 34.585938 67.832031 35.707031 66.394531 35.402344 Z M 66.394531 35.402344 " fill-opacity="0.2471" fill-rule="nonzero"/><path fill="#00053f" d="M 66.863281 35.628906 C 66.699219 35.628906 66.53125 35.617188 66.351562 35.570312 C 64.671875 35.222656 63.175781 33.582031 62.992188 31.917969 C 62.84375 30.582031 63.539062 29.640625 64.203125 28.734375 C 64.671875 28.097656 65.140625 27.429688 65.335938 26.640625 C 65.367188 26.535156 65.382812 26.414062 65.414062 26.308594 C 65.503906 25.882812 65.59375 25.441406 65.804688 25.019531 C 65.898438 24.835938 66.003906 24.683594 66.140625 24.5625 C 66.621094 24.078125 67.226562 24.046875 67.558594 24.261719 C 67.984375 24.546875 67.800781 25.046875 67.710938 25.320312 C 67.574219 25.683594 67.574219 25.972656 67.710938 26.15625 C 68 26.566406 68.90625 26.566406 69.449219 26.566406 C 69.675781 26.566406 69.949219 26.59375 70.160156 26.761719 C 70.628906 27.125 70.222656 27.71875 69.949219 28.109375 C 69.875 28.21875 69.796875 28.324219 69.769531 28.398438 C 69.222656 29.492188 69.359375 30.371094 69.496094 31.203125 C 69.601562 31.886719 69.722656 32.582031 69.449219 33.355469 C 69.449219 33.355469 69.449219 33.355469 69.449219 33.371094 C 69.085938 34.464844 68.195312 35.628906 66.863281 35.628906 Z M 66.425781 35.238281 C 67.816406 35.523438 68.726562 34.417969 69.132812 33.265625 C 69.132812 33.265625 69.132812 33.265625 69.132812 33.25 C 69.375 32.554688 69.269531 31.929688 69.164062 31.265625 C 69.027344 30.414062 68.859375 29.445312 69.464844 28.246094 C 69.511719 28.15625 69.585938 28.035156 69.675781 27.914062 C 69.949219 27.519531 70.144531 27.1875 69.964844 27.050781 C 69.828125 26.945312 69.632812 26.929688 69.464844 26.929688 C 68.816406 26.929688 67.832031 26.914062 67.441406 26.367188 C 67.242188 26.078125 67.226562 25.683594 67.394531 25.214844 C 67.515625 24.882812 67.546875 24.683594 67.378906 24.5625 C 67.199219 24.441406 66.773438 24.441406 66.394531 24.820312 C 66.289062 24.925781 66.199219 25.046875 66.125 25.199219 C 65.925781 25.578125 65.851562 25.972656 65.761719 26.398438 C 65.730469 26.503906 65.714844 26.625 65.683594 26.730469 C 65.488281 27.59375 64.988281 28.277344 64.507812 28.945312 C 63.855469 29.839844 63.234375 30.6875 63.371094 31.886719 C 63.507812 33.402344 64.882812 34.902344 66.425781 35.238281 Z M 66.425781 35.238281 " fill-opacity="1" fill-rule="nonzero"/><path fill="#fc097a" d="M 68.300781 36.070312 C 67.710938 36.023438 66.894531 35.902344 66.472656 35.433594 C 66.367188 35.328125 66.304688 35.175781 66.335938 35.023438 C 66.367188 34.828125 66.546875 34.691406 66.699219 34.570312 C 68.421875 33.113281 67.695312 31.78125 68.074219 29.992188 C 68.226562 29.234375 68.542969 28.488281 69.042969 27.898438 C 69.34375 27.550781 69.585938 27.503906 69.828125 27.59375 C 70.054688 27.6875 70.28125 27.929688 70.523438 28.171875 C 71.023438 28.65625 71.71875 28.746094 72.382812 28.671875 C 73.292969 28.566406 73.414062 28.535156 74.03125 28.613281 C 74.273438 28.640625 74.847656 28.792969 74.789062 29.140625 C 74.710938 29.566406 73.988281 29.871094 73.699219 30.171875 C 72.792969 31.128906 72.582031 32.492188 72.035156 33.660156 C 71.808594 34.144531 71.507812 34.585938 71.144531 34.949219 C 70.386719 35.707031 69.375 36.160156 68.300781 36.070312 Z M 68.300781 36.070312 " fill-opacity="1" fill-rule="nonzero"/><path fill="#00053f" d="M 68.300781 36.070312 C 67.710938 36.023438 66.894531 35.902344 66.472656 35.433594 C 66.367188 35.328125 66.304688 35.175781 66.335938 35.023438 C 66.367188 34.828125 66.546875 34.691406 66.699219 34.570312 C 68.421875 33.113281 67.695312 31.78125 68.074219 29.992188 C 68.226562 29.234375 68.542969 28.488281 69.042969 27.898438 C 69.34375 27.550781 69.585938 27.503906 69.828125 27.59375 C 69.964844 27.777344 70.070312 28.003906 70.132812 28.21875 C 70.296875 28.882812 70.144531 29.582031 69.964844 30.25 C 69.769531 30.914062 69.542969 31.566406 69.542969 32.265625 C 69.542969 33.28125 70.101562 34.296875 70.960938 34.828125 C 71.023438 34.855469 71.082031 34.902344 71.144531 34.933594 C 70.386719 35.707031 69.375 36.160156 68.300781 36.070312 Z M 68.300781 36.070312 " fill-opacity="0.2471" fill-rule="nonzero"/><path fill="#ff8dc5" d="M 73.546875 29.582031 C 73.183594 29.777344 72.867188 30.007812 72.566406 30.25 C 72.261719 30.492188 71.992188 30.78125 71.75 31.082031 C 71.507812 31.386719 71.296875 31.71875 71.113281 32.054688 C 70.933594 32.402344 70.796875 32.765625 70.675781 33.160156 C 70.644531 33.25 70.554688 33.296875 70.464844 33.28125 C 70.386719 33.265625 70.34375 33.191406 70.34375 33.113281 C 70.328125 32.675781 70.417969 32.21875 70.570312 31.808594 C 70.722656 31.386719 70.949219 30.992188 71.234375 30.644531 C 71.523438 30.292969 71.855469 29.992188 72.234375 29.75 C 72.609375 29.507812 73.035156 29.339844 73.472656 29.261719 C 73.5625 29.25 73.640625 29.308594 73.652344 29.398438 C 73.640625 29.476562 73.609375 29.550781 73.546875 29.582031 Z M 73.546875 29.582031 " fill-opacity="1" fill-rule="nonzero"/><path fill="#00053f" d="M 68.574219 36.253906 C 68.46875 36.253906 68.378906 36.253906 68.269531 36.238281 C 67.605469 36.175781 66.789062 36.054688 66.335938 35.539062 C 66.183594 35.371094 66.125 35.175781 66.152344 34.980469 C 66.199219 34.734375 66.382812 34.570312 66.546875 34.433594 L 66.578125 34.402344 C 67.710938 33.449219 67.726562 32.539062 67.757812 31.492188 C 67.773438 31.007812 67.789062 30.492188 67.894531 29.929688 C 68.074219 29.066406 68.421875 28.308594 68.90625 27.746094 C 69.222656 27.367188 69.554688 27.261719 69.902344 27.398438 C 70.132812 27.488281 70.34375 27.703125 70.554688 27.914062 L 70.660156 28.003906 C 71.054688 28.382812 71.628906 28.535156 72.382812 28.445312 L 72.535156 28.429688 C 73.320312 28.339844 73.472656 28.308594 74.078125 28.382812 C 74.304688 28.414062 74.710938 28.519531 74.894531 28.761719 C 74.96875 28.867188 75 28.992188 74.984375 29.113281 C 74.925781 29.460938 74.5625 29.71875 74.230469 29.945312 C 74.078125 30.050781 73.941406 30.144531 73.851562 30.234375 C 73.261719 30.855469 72.988281 31.644531 72.6875 32.460938 C 72.550781 32.855469 72.398438 33.28125 72.21875 33.660156 C 71.976562 34.160156 71.671875 34.613281 71.296875 34.992188 C 70.507812 35.84375 69.570312 36.253906 68.574219 36.253906 Z M 69.617188 27.730469 C 69.496094 27.730469 69.359375 27.792969 69.179688 28.019531 C 68.738281 28.535156 68.40625 29.234375 68.242188 30.035156 C 68.136719 30.566406 68.121094 31.050781 68.105469 31.539062 C 68.074219 32.628906 68.058594 33.644531 66.804688 34.707031 L 66.773438 34.734375 C 66.652344 34.84375 66.53125 34.949219 66.503906 35.070312 C 66.488281 35.144531 66.53125 35.25 66.59375 35.328125 C 66.972656 35.75 67.742188 35.859375 68.300781 35.902344 C 69.285156 35.996094 70.253906 35.601562 71.007812 34.8125 C 71.355469 34.464844 71.644531 34.039062 71.871094 33.570312 C 72.050781 33.191406 72.1875 32.796875 72.324219 32.402344 C 72.625 31.566406 72.929688 30.71875 73.5625 30.035156 C 73.667969 29.914062 73.835938 29.808594 74.003906 29.703125 C 74.273438 29.519531 74.578125 29.308594 74.605469 29.097656 C 74.605469 29.082031 74.605469 29.050781 74.589844 29.019531 C 74.5 28.882812 74.199219 28.808594 74.015625 28.777344 C 73.457031 28.71875 73.320312 28.734375 72.566406 28.824219 L 72.414062 28.839844 C 71.550781 28.945312 70.886719 28.761719 70.402344 28.292969 L 70.296875 28.203125 C 70.101562 28.003906 69.917969 27.839844 69.753906 27.761719 C 69.722656 27.746094 69.675781 27.730469 69.617188 27.730469 Z M 69.617188 27.730469 " fill-opacity="1" fill-rule="nonzero"/><path fill="#0097fe" d="M 70.660156 37.085938 C 70.628906 37.101562 70.601562 37.132812 70.554688 37.148438 C 69.722656 37.648438 68.648438 37.796875 67.679688 37.269531 C 66.835938 36.8125 65.609375 35.492188 66.125 34.523438 C 66.394531 34.007812 67.015625 33.949219 67.53125 34.28125 C 67.832031 34.492188 68.089844 34.691406 68.316406 34.871094 C 68.996094 35.402344 69.464844 35.75 70.523438 35.359375 C 70.828125 35.238281 71.417969 34.75 71.75 34.964844 C 72.582031 35.464844 71.007812 36.859375 70.660156 37.085938 Z M 70.660156 37.085938 " fill-opacity="1" fill-rule="nonzero"/><path fill="#5617a6" d="M 70.570312 37.148438 C 69.738281 37.648438 68.664062 37.796875 67.695312 37.269531 C 66.851562 36.8125 65.625 35.492188 66.140625 34.523438 C 66.652344 33.554688 67.789062 34.386719 68.316406 34.871094 C 68.695312 35.902344 69.527344 36.828125 70.570312 37.148438 Z M 70.570312 37.148438 " fill-opacity="0.2471" fill-rule="nonzero"/><path fill="#00053f" d="M 68.996094 37.769531 C 68.511719 37.769531 68.042969 37.648438 67.621094 37.417969 C 66.773438 36.964844 65.398438 35.570312 66.003906 34.433594 C 66.140625 34.160156 66.367188 33.992188 66.636719 33.917969 C 66.957031 33.839844 67.332031 33.917969 67.652344 34.128906 C 67.9375 34.328125 68.179688 34.507812 68.390625 34.675781 L 68.453125 34.722656 C 69.132812 35.265625 69.542969 35.539062 70.480469 35.175781 C 70.554688 35.144531 70.660156 35.085938 70.765625 35.023438 C 71.097656 34.828125 71.523438 34.585938 71.855469 34.78125 C 72.066406 34.902344 72.171875 35.101562 72.171875 35.328125 C 72.1875 36.085938 70.949219 37.085938 70.765625 37.207031 C 70.734375 37.238281 70.691406 37.253906 70.660156 37.269531 C 70.132812 37.617188 69.554688 37.769531 68.996094 37.769531 Z M 66.894531 34.25 C 66.835938 34.25 66.773438 34.25 66.714844 34.265625 C 66.53125 34.3125 66.394531 34.433594 66.304688 34.601562 C 65.851562 35.464844 67.03125 36.691406 67.789062 37.101562 C 68.617188 37.554688 69.601562 37.511719 70.480469 36.980469 C 70.507812 36.964844 70.539062 36.933594 70.570312 36.917969 C 70.886719 36.707031 71.824219 35.84375 71.808594 35.34375 C 71.808594 35.238281 71.765625 35.160156 71.660156 35.101562 C 71.507812 35.007812 71.160156 35.207031 70.917969 35.34375 C 70.796875 35.417969 70.675781 35.480469 70.585938 35.507812 C 69.40625 35.949219 68.847656 35.507812 68.210938 34.992188 L 68.148438 34.949219 C 67.9375 34.78125 67.710938 34.601562 67.441406 34.417969 C 67.273438 34.3125 67.078125 34.25 66.894531 34.25 Z M 70.660156 37.085938 Z M 70.660156 37.085938 " fill-opacity="1" fill-rule="nonzero"/><path fill="#0097fe" d="M 62.117188 33.007812 C 61.90625 32.566406 61.722656 31.945312 61.722656 31.402344 C 61.722656 31.007812 61.816406 30.65625 62.070312 30.445312 C 62.191406 30.339844 62.417969 30.414062 62.496094 30.582031 C 62.753906 31.160156 62.980469 31.796875 63.449219 32.234375 C 63.734375 32.507812 64.113281 32.613281 64.460938 32.765625 C 64.746094 32.886719 65.019531 33.023438 65.203125 33.28125 C 65.398438 33.570312 65.445312 33.964844 65.308594 34.25 C 64.867188 35.175781 63.007812 34.796875 62.117188 33.007812 Z M 62.117188 33.007812 " fill-opacity="1" fill-rule="nonzero"/><path fill="#5617a6" d="M 62.117188 33.007812 C 61.90625 32.566406 61.722656 31.945312 61.722656 31.402344 C 62.269531 32.355469 63.371094 32.796875 64.445312 32.78125 C 65.066406 32.960938 65.59375 33.644531 65.292969 34.28125 C 64.867188 35.175781 63.007812 34.796875 62.117188 33.007812 Z M 62.117188 33.007812 " fill-opacity="0.2471" fill-rule="nonzero"/><path fill="#00053f" d="M 64.445312 34.917969 C 63.660156 34.917969 62.601562 34.355469 61.964844 33.082031 C 61.769531 32.675781 61.558594 32.023438 61.558594 31.386719 C 61.558594 30.902344 61.695312 30.523438 61.964844 30.292969 C 62.054688 30.21875 62.175781 30.1875 62.3125 30.21875 C 62.464844 30.25 62.601562 30.355469 62.660156 30.492188 C 62.691406 30.566406 62.738281 30.65625 62.765625 30.734375 C 62.980469 31.21875 63.207031 31.734375 63.570312 32.097656 C 63.78125 32.296875 64.050781 32.402344 64.339844 32.523438 C 64.398438 32.554688 64.476562 32.566406 64.535156 32.597656 C 64.839844 32.71875 65.140625 32.871094 65.351562 33.175781 C 65.59375 33.523438 65.640625 33.964844 65.472656 34.328125 C 65.308594 34.691406 64.945312 34.886719 64.476562 34.902344 C 64.460938 34.917969 64.445312 34.917969 64.445312 34.917969 Z M 62.285156 32.933594 C 62.84375 34.054688 63.796875 34.570312 64.445312 34.570312 C 64.445312 34.570312 64.460938 34.570312 64.460938 34.570312 C 64.65625 34.570312 64.988281 34.507812 65.140625 34.207031 C 65.246094 33.964844 65.214844 33.644531 65.050781 33.402344 C 64.898438 33.191406 64.671875 33.070312 64.386719 32.945312 C 64.324219 32.917969 64.265625 32.902344 64.203125 32.871094 C 63.902344 32.75 63.582031 32.628906 63.328125 32.371094 C 62.902344 31.960938 62.675781 31.417969 62.449219 30.902344 C 62.417969 30.824219 62.375 30.734375 62.34375 30.65625 C 62.328125 30.628906 62.296875 30.597656 62.253906 30.582031 C 62.222656 30.566406 62.207031 30.582031 62.191406 30.582031 C 61.964844 30.78125 61.921875 31.128906 61.921875 31.402344 C 61.90625 31.871094 62.042969 32.476562 62.285156 32.933594 Z M 62.285156 32.933594 " fill-opacity="1" fill-rule="nonzero"/><path fill="#0097fe" d="M 64.25 35.765625 C 63.675781 35.628906 63.175781 35.371094 62.765625 35.101562 C 61.464844 34.21875 61.058594 32.976562 62.207031 33.554688 C 63.371094 34.113281 64.277344 33.339844 65.429688 33.339844 C 65.535156 33.339844 65.640625 33.355469 65.761719 33.371094 C 66.410156 33.492188 67.015625 33.976562 66.820312 34.734375 C 66.53125 35.886719 65.082031 35.980469 64.25 35.765625 Z M 64.25 35.765625 " fill-opacity="1" fill-rule="nonzero"/><path fill="#5617a6" d="M 64.25 35.765625 C 63.675781 35.628906 63.175781 35.371094 62.765625 35.101562 C 63.929688 34.964844 65.003906 34.265625 65.761719 33.371094 C 67.96875 33.976562 66.5625 36.402344 64.25 35.765625 Z M 64.25 35.765625 " fill-opacity="0.2471" fill-rule="nonzero"/><path fill="#00053f" d="M 64.988281 36.039062 C 64.703125 36.039062 64.429688 36.007812 64.203125 35.949219 C 63.660156 35.8125 63.144531 35.585938 62.660156 35.25 C 61.753906 34.628906 61.179688 33.796875 61.390625 33.402344 C 61.480469 33.25 61.707031 33.113281 62.269531 33.386719 C 62.933594 33.707031 63.523438 33.554688 64.144531 33.386719 C 64.535156 33.28125 64.945312 33.160156 65.414062 33.175781 C 65.535156 33.175781 65.65625 33.191406 65.777344 33.203125 C 66.246094 33.296875 66.636719 33.539062 66.851562 33.871094 C 67.015625 34.144531 67.0625 34.449219 66.984375 34.78125 C 66.757812 35.738281 65.820312 36.039062 64.988281 36.039062 Z M 64.292969 35.601562 C 64.945312 35.765625 66.382812 35.75 66.652344 34.707031 C 66.714844 34.464844 66.683594 34.25 66.5625 34.070312 C 66.410156 33.828125 66.09375 33.628906 65.714844 33.570312 C 65.609375 33.554688 65.503906 33.539062 65.414062 33.539062 C 65.003906 33.539062 64.628906 33.644531 64.25 33.75 C 63.582031 33.933594 62.917969 34.113281 62.132812 33.734375 C 61.800781 33.570312 61.707031 33.613281 61.707031 33.613281 C 61.664062 33.71875 61.996094 34.371094 62.871094 34.980469 C 63.3125 35.25 63.78125 35.480469 64.292969 35.601562 Z M 64.292969 35.601562 " fill-opacity="1" fill-rule="nonzero"/></svg>