<svg xmlns="http://www.w3.org/2000/svg" xmlns:xlink="http://www.w3.org/1999/xlink" width="100" zoomAndPan="magnify" viewBox="0 0 75 74.999997" height="100" preserveAspectRatio="xMidYMid meet" version="1.0"><defs><clipPath id="cc00420c0b"><path d="M 1 9 L 73 9 L 73 66.375 L 1 66.375 Z M 1 9 " clip-rule="nonzero"/></clipPath><clipPath id="466bbec240"><path d="M 1 9 L 73 9 L 73 66.375 L 1 66.375 Z M 1 9 " clip-rule="nonzero"/></clipPath></defs><rect x="-7.5" width="90" fill="#ffffff" y="-7.5" height="89.999996" fill-opacity="1"/><rect x="-7.5" width="90" fill="#ffffff" y="-7.5" height="89.999996" fill-opacity="1"/><g clip-path="url(#cc00420c0b)"><path fill="#000000" d="M 16.144531 48.304688 C 16.652344 48.910156 17.191406 49.480469 17.746094 50.035156 C 16.203125 50.746094 14.632812 51.429688 13.03125 52.09375 C 10.546875 53.125 7.898438 54.289062 5.171875 54.410156 C 4.167969 54.339844 4.679688 53.777344 5.105469 52.96875 C 5.753906 51.75 6.683594 50.664062 7.5625 49.609375 C 9.335938 47.5 11.230469 45.476562 13.164062 43.5 C 13.910156 45.195312 14.894531 46.816406 16.144531 48.304688 Z M 68.988281 14.597656 C 68.289062 15.957031 67.085938 17.195312 66.125 18.378906 C 64.007812 20.976562 61.542969 23.25 58.902344 25.324219 C 57.75 22.058594 55.945312 19.058594 53.59375 16.542969 C 55.511719 15.847656 57.460938 15.210938 59.457031 14.636719 C 61.722656 13.992188 64.046875 13.457031 66.40625 13.273438 C 67.632812 13.179688 69.898438 12.8125 68.988281 14.597656 Z M 71.558594 11.070312 C 71.492188 11 71.421875 10.953125 71.347656 10.917969 C 69.046875 9.242188 65.5 9.921875 62.929688 10.382812 C 58.785156 11.132812 54.746094 12.527344 50.8125 14.003906 C 49.160156 12.714844 47.320312 11.628906 45.316406 10.785156 C 40.289062 8.679688 34.695312 9.144531 29.410156 9.785156 C 23.867188 10.464844 19.976562 14.640625 16.753906 18.90625 C 12.207031 24.929688 10.257812 32.871094 11.972656 39.992188 C 11.074219 40.878906 10.179688 41.773438 9.308594 42.695312 C 6.472656 45.703125 1.972656 49.625 1.265625 53.949219 C -0.0078125 61.707031 15.363281 55.050781 20.648438 52.589844 C 25.742188 56.460938 32.050781 58.488281 38.347656 57.976562 C 39.265625 59.183594 40.21875 60.351562 41.460938 61.292969 C 41.660156 61.542969 42.007812 61.6875 42.378906 61.523438 C 42.511719 61.460938 42.644531 61.390625 42.777344 61.316406 C 42.828125 61.589844 42.898438 61.84375 43.003906 62.074219 C 43.089844 62.34375 43.234375 62.558594 43.355469 62.792969 C 43.5 63.007812 43.644531 63.222656 43.804688 63.410156 L 44.058594 63.691406 L 44.1875 63.832031 L 44.429688 64.007812 C 44.585938 64.128906 44.746094 64.246094 44.902344 64.367188 C 45.058594 64.480469 45.242188 64.578125 45.402344 64.679688 L 45.65625 64.835938 L 45.78125 64.910156 L 45.84375 64.78125 C 45.914062 64.628906 45.984375 64.480469 46.050781 64.328125 C 46.601562 64.90625 47.214844 65.347656 47.882812 65.683594 C 48.378906 65.898438 48.808594 66.042969 49.285156 66.15625 C 49.511719 66.214844 49.746094 66.253906 50.007812 66.277344 C 50.070312 66.285156 50.183594 66.28125 50.269531 66.277344 C 50.363281 66.28125 50.457031 66.265625 50.546875 66.246094 C 50.726562 66.222656 50.875 66.128906 51.03125 66.046875 C 51.214844 65.855469 51.378906 65.632812 51.421875 65.367188 C 51.453125 65.242188 51.4375 65.101562 51.453125 64.972656 C 51.460938 64.835938 51.433594 64.777344 51.429688 64.679688 C 51.382812 64.34375 51.300781 64.054688 51.214844 63.789062 C 51.042969 63.257812 50.847656 62.808594 50.664062 62.410156 C 50.523438 62.101562 50.363281 61.835938 50.214844 61.589844 C 50.261719 61.625 50.3125 61.664062 50.355469 61.699219 C 51 62.164062 51.6875 62.296875 52.136719 62.273438 C 52.226562 62.269531 52.304688 62.261719 52.382812 62.257812 C 52.527344 62.300781 52.683594 62.335938 52.863281 62.367188 C 53.105469 62.394531 53.476562 62.410156 53.777344 62.3125 C 53.945312 62.273438 54.078125 62.199219 54.246094 62.132812 C 54.316406 62.09375 54.421875 62.066406 54.476562 62.015625 C 54.453125 61.9375 54.441406 61.855469 54.421875 61.773438 C 54.355469 61.441406 54.28125 61.089844 54.203125 60.710938 C 54.140625 60.453125 54.078125 60.175781 54.011719 59.882812 C 53.953125 59.609375 53.8125 59.269531 53.695312 58.941406 C 53.550781 58.609375 53.382812 58.285156 53.226562 57.960938 C 53.34375 57.929688 53.449219 57.878906 53.539062 57.816406 C 53.578125 57.863281 53.617188 57.910156 53.660156 57.957031 L 53.867188 58.179688 C 53.902344 58.214844 53.941406 58.246094 53.984375 58.28125 L 54.164062 58.429688 C 54.433594 58.648438 54.695312 58.714844 54.953125 58.839844 C 55.082031 58.902344 55.21875 58.945312 55.351562 58.992188 L 55.546875 59.070312 L 55.648438 59.101562 C 55.664062 59.109375 55.683594 59.121094 55.695312 59.117188 L 55.714844 59.070312 C 55.820312 58.820312 55.9375 58.707031 56.023438 58.429688 C 56.03125 58.410156 56.035156 58.460938 56.039062 58.460938 C 56.046875 58.460938 56.050781 58.460938 56.050781 58.460938 L 56.101562 58.40625 C 56.277344 58.585938 56.445312 58.714844 56.613281 58.886719 C 56.960938 59.246094 57.308594 59.558594 57.644531 59.855469 C 58.316406 60.457031 58.960938 60.921875 59.566406 61.269531 C 60.148438 61.601562 60.679688 61.808594 61.140625 61.941406 C 61.285156 62.015625 61.433594 62.089844 61.601562 62.171875 C 61.714844 62.222656 61.835938 62.269531 61.957031 62.324219 C 62.113281 62.386719 62.265625 62.453125 62.429688 62.519531 C 62.859375 62.695312 63.347656 62.832031 63.894531 63.003906 C 64.171875 63.085938 64.457031 63.171875 64.753906 63.261719 L 64.863281 63.296875 C 64.898438 63.316406 64.875 63.28125 64.871094 63.269531 L 64.847656 63.222656 L 64.765625 63.019531 C 64.707031 62.886719 64.648438 62.75 64.589844 62.609375 C 64.46875 62.328125 64.34375 62.03125 64.191406 61.707031 C 64.046875 61.398438 63.90625 61.078125 63.753906 60.75 C 63.582031 60.351562 63.386719 59.9375 63.191406 59.5 C 62.988281 59.054688 62.789062 58.585938 62.539062 58.097656 C 62.265625 57.613281 62.023438 57.105469 61.6875 56.570312 C 61.34375 56.039062 60.9375 55.546875 60.5625 55.050781 C 60.46875 54.925781 60.371094 54.800781 60.292969 54.679688 L 60.214844 54.640625 C 60.238281 54.640625 60.261719 54.640625 60.261719 54.640625 L 60.28125 54.640625 L 60.3125 54.617188 L 60.457031 54.546875 L 60.832031 54.378906 L 60.808594 53.894531 C 60.789062 53.421875 60.652344 52.984375 60.453125 52.59375 C 60.457031 52.59375 60.464844 52.59375 60.464844 52.597656 C 60.847656 52.875 61.238281 53.066406 61.613281 53.226562 C 61.984375 53.363281 62.339844 53.449219 62.679688 53.546875 C 62.996094 53.640625 63.304688 53.726562 63.589844 53.808594 C 63.832031 53.875 64.070312 53.945312 64.304688 54.011719 C 64.523438 54.058594 64.734375 54.105469 64.945312 54.148438 C 64.992188 54.152344 65.050781 54.179688 65.085938 54.175781 L 65.105469 54.007812 C 65.121094 53.902344 65.136719 53.789062 65.152344 53.691406 C 65.1875 53.480469 65.183594 53.285156 65.203125 53.101562 C 65.21875 52.914062 65.226562 52.726562 65.203125 52.550781 C 65.1875 52.421875 65.179688 52.320312 65.160156 52.210938 C 65.078125 51.722656 64.984375 51.332031 64.886719 51.027344 C 64.855469 50.824219 64.804688 50.605469 64.742188 50.371094 C 65.015625 50.550781 65.324219 50.734375 65.671875 50.90625 C 66.019531 51.078125 66.402344 51.269531 66.824219 51.476562 C 66.933594 51.535156 67.050781 51.589844 67.167969 51.652344 C 67.355469 51.746094 67.554688 51.863281 67.765625 52.007812 C 68.160156 52.253906 68.679688 52.640625 69.113281 52.949219 L 69.140625 52.796875 C 69.144531 52.746094 69.140625 52.644531 69.140625 52.570312 C 69.136719 52.40625 69.136719 52.246094 69.132812 52.078125 C 69.132812 51.734375 69.097656 51.410156 69.082031 51.050781 C 69.078125 50.882812 69.046875 50.6875 69.011719 50.492188 C 68.976562 50.335938 68.9375 50.175781 68.90625 50.011719 C 68.84375 49.777344 68.800781 49.558594 68.707031 49.304688 C 68.601562 49.0625 68.5 48.765625 68.375 48.546875 C 68.308594 48.4375 68.246094 48.320312 68.183594 48.207031 L 68.097656 48.054688 L 68.082031 48.011719 L 68.039062 47.929688 C 68.027344 47.90625 68.035156 47.914062 68.035156 47.902344 C 68.023438 47.878906 68.050781 47.902344 68.066406 47.902344 C 68.082031 47.898438 68.050781 47.90625 68.097656 47.894531 C 68.289062 47.753906 68.390625 47.566406 68.441406 47.429688 C 68.542969 47.136719 68.539062 46.941406 68.539062 46.753906 C 68.523438 46.390625 68.476562 46.097656 68.410156 45.78125 C 68.269531 45.160156 68.070312 44.546875 67.800781 43.933594 C 67.523438 43.316406 67.1875 42.691406 66.707031 42.105469 C 66.472656 41.804688 66.191406 41.527344 65.875 41.261719 C 65.679688 41.113281 65.464844 40.980469 65.238281 40.859375 C 65.3125 40.613281 65.371094 40.351562 65.398438 40.085938 C 65.414062 39.941406 65.390625 39.824219 65.339844 39.722656 C 65.316406 39.664062 65.289062 39.605469 65.242188 39.546875 C 63.679688 37.515625 62.257812 35.332031 60.382812 33.566406 C 60.382812 33.398438 60.371094 33.234375 60.367188 33.070312 C 60.789062 32.734375 61.203125 32.402344 61.609375 32.0625 C 61.78125 31.921875 61.847656 31.753906 61.847656 31.59375 C 61.949219 31.363281 61.917969 31.089844 61.671875 30.871094 C 61.101562 30.375 60.511719 29.878906 59.96875 29.339844 C 59.933594 29.148438 59.894531 28.953125 59.859375 28.761719 C 62.28125 26.910156 64.601562 24.917969 66.726562 22.722656 C 69.1875 20.175781 74.996094 14.75 71.558594 11.070312 " fill-opacity="1" fill-rule="nonzero"/></g><path fill="#fcee21" d="M 67.789062 50.648438 C 67.789062 50.675781 67.820312 50.765625 67.785156 50.726562 C 67.75 50.710938 67.703125 50.691406 67.65625 50.675781 L 67.570312 50.652344 C 67.464844 50.601562 67.359375 50.5625 67.257812 50.515625 C 66.8125 50.335938 66.40625 50.195312 66.054688 50.054688 C 65.339844 49.785156 64.816406 49.535156 64.433594 49.296875 C 64.363281 49.246094 64.300781 49.210938 64.238281 49.167969 C 64.171875 49.03125 64.105469 48.902344 64.039062 48.769531 C 64.15625 48.710938 64.265625 48.628906 64.363281 48.515625 C 64.457031 48.382812 64.511719 48.230469 64.554688 48.070312 C 64.554688 47.894531 64.59375 47.71875 64.554688 47.53125 L 64.515625 47.242188 C 64.5 47.171875 64.476562 47.105469 64.457031 47.035156 C 64.371094 46.757812 64.25 46.523438 64.105469 46.296875 C 63.609375 45.570312 62.929688 45.058594 62.214844 44.589844 C 62.226562 44.480469 62.199219 44.371094 62.164062 44.269531 C 63.101562 43.722656 63.996094 43.019531 64.605469 42.140625 C 64.734375 42.214844 64.863281 42.292969 64.984375 42.386719 C 65.203125 42.570312 65.414062 42.773438 65.597656 43 C 65.972656 43.460938 66.261719 43.984375 66.507812 44.507812 C 66.742188 45.035156 66.925781 45.574219 67.046875 46.082031 C 67.09375 46.269531 67.128906 46.476562 67.144531 46.648438 L 67.035156 46.550781 L 66.945312 46.476562 C 66.914062 46.453125 66.890625 46.429688 66.886719 46.429688 L 66.84375 46.40625 L 66.5 46.242188 L 65.722656 45.867188 C 65.964844 46.484375 65.988281 46.546875 66.003906 46.609375 C 66.003906 46.625 66.140625 46.9375 66.214844 47.128906 C 66.3125 47.359375 66.398438 47.601562 66.496094 47.808594 C 66.601562 48.007812 66.703125 48.203125 66.800781 48.398438 L 66.949219 48.6875 C 66.996094 48.785156 67.011719 48.804688 67.050781 48.867188 C 67.109375 48.964844 67.167969 49.066406 67.230469 49.167969 C 67.359375 49.371094 67.402344 49.539062 67.5 49.714844 C 67.578125 49.898438 67.632812 50.125 67.699219 50.320312 L 67.730469 50.46875 L 67.742188 50.484375 C 67.746094 50.496094 67.753906 50.515625 67.761719 50.53125 C 67.765625 50.566406 67.785156 50.601562 67.789062 50.648438 " fill-opacity="1" fill-rule="nonzero"/><path fill="#fcee21" d="M 64.191406 52.234375 C 64.207031 52.316406 64.234375 52.394531 64.253906 52.46875 C 64.25 52.503906 64.25 52.539062 64.25 52.570312 C 64.242188 52.613281 64.234375 52.640625 64.226562 52.675781 C 64.214844 52.707031 64.214844 52.738281 64.199219 52.765625 L 64.179688 52.804688 L 64.171875 52.824219 C 64.164062 52.824219 64.152344 52.8125 64.144531 52.808594 C 64.0625 52.769531 64.035156 52.746094 63.9375 52.703125 C 63.660156 52.601562 63.363281 52.496094 63.050781 52.382812 C 62.761719 52.273438 62.433594 52.179688 62.121094 52.050781 C 61.828125 51.90625 61.527344 51.746094 61.257812 51.53125 C 60.707031 51.125 60.273438 50.464844 59.753906 49.640625 L 59.179688 48.71875 L 58.59375 49.664062 L 58.5 49.867188 L 58.492188 49.867188 C 58.492188 49.867188 58.488281 49.816406 58.484375 49.8125 C 58.445312 49.769531 58.40625 49.699219 58.367188 49.652344 C 58.074219 49.28125 57.792969 48.664062 57.628906 48.101562 C 58.9375 47.402344 60.214844 46.707031 61.3125 45.71875 C 62.023438 46.175781 62.617188 46.625 62.941406 47.089844 C 63.03125 47.21875 63.097656 47.347656 63.136719 47.453125 L 63.160156 47.53125 L 63.164062 47.535156 L 63.167969 47.546875 C 63.175781 47.558594 63.175781 47.574219 63.164062 47.578125 L 63.152344 47.582031 L 63.007812 47.601562 L 62.054688 47.71875 L 62.457031 48.507812 C 62.589844 48.757812 62.710938 49.011719 62.835938 49.21875 C 62.960938 49.421875 63.078125 49.617188 63.1875 49.796875 C 63.289062 49.972656 63.40625 50.136719 63.484375 50.292969 C 63.558594 50.445312 63.632812 50.59375 63.699219 50.734375 C 63.945312 51.335938 64.09375 51.835938 64.191406 52.234375 " fill-opacity="1" fill-rule="nonzero"/><path fill="#fcee21" d="M 62.964844 61.621094 C 62.972656 61.640625 63.023438 61.699219 62.984375 61.679688 C 62.941406 61.675781 62.902344 61.675781 62.863281 61.671875 C 62.777344 61.660156 62.683594 61.648438 62.578125 61.625 C 62.539062 61.613281 62.511719 61.601562 62.472656 61.589844 C 61.945312 61.417969 61.128906 61.125 60.117188 60.402344 C 59.605469 60.042969 59.054688 59.570312 58.464844 58.96875 C 58.164062 58.667969 57.855469 58.339844 57.535156 57.976562 C 57.042969 57.425781 56.523438 56.84375 55.972656 56.226562 L 55.703125 55.925781 L 55.570312 55.765625 L 55.496094 55.691406 L 55.460938 55.652344 C 55.453125 55.648438 55.4375 55.605469 55.429688 55.652344 C 55.292969 56.105469 55.148438 56.574219 55 57.039062 L 54.929688 57.21875 C 54.925781 57.234375 54.898438 57.222656 54.898438 57.226562 L 54.898438 57.234375 L 54.914062 57.246094 L 54.914062 57.257812 C 54.902344 57.253906 54.894531 57.242188 54.894531 57.242188 C 54.894531 57.242188 54.894531 57.234375 54.890625 57.230469 C 54.867188 57.214844 54.847656 57.199219 54.828125 57.167969 L 54.695312 57.03125 C 54.605469 56.9375 54.527344 56.753906 54.4375 56.644531 C 53.886719 55.8125 53.496094 54.542969 53.382812 53.277344 C 54.511719 52.578125 55.542969 51.605469 56.25 50.519531 C 57 50.96875 57.6875 51.472656 58.25 52.011719 C 58.679688 52.425781 59.03125 52.878906 59.234375 53.3125 C 59.175781 53.304688 59.113281 53.296875 59.054688 53.285156 C 58.671875 53.21875 58.285156 53.15625 57.910156 53.089844 C 58.035156 53.347656 58.152344 53.605469 58.273438 53.851562 C 58.414062 54.148438 58.5625 54.429688 58.707031 54.703125 C 58.785156 54.839844 58.847656 54.972656 58.933594 55.109375 C 58.96875 55.179688 59.015625 55.246094 59.0625 55.308594 L 59.175781 55.472656 C 59.277344 55.617188 59.382812 55.75 59.488281 55.878906 C 59.902344 56.40625 60.285156 56.855469 60.59375 57.304688 C 60.898438 57.753906 61.152344 58.246094 61.417969 58.683594 C 61.667969 59.136719 61.886719 59.59375 62.105469 60.011719 C 62.320312 60.4375 62.527344 60.84375 62.722656 61.226562 C 62.753906 61.289062 62.753906 61.289062 62.765625 61.296875 L 62.785156 61.332031 L 62.824219 61.398438 C 62.855469 61.445312 62.882812 61.492188 62.917969 61.542969 L 62.964844 61.621094 " fill-opacity="1" fill-rule="nonzero"/><path fill="#fcee21" d="M 50.265625 64.804688 C 50.265625 64.851562 50.277344 64.941406 50.269531 64.945312 C 50.265625 64.953125 50.265625 64.96875 50.261719 64.976562 C 50.253906 65.003906 50.242188 65.027344 50.21875 65.035156 C 50.183594 65.042969 50.179688 65.039062 50.117188 65.03125 C 49.964844 65.011719 49.785156 64.972656 49.601562 64.917969 C 49.234375 64.8125 48.8125 64.65625 48.445312 64.480469 C 47.757812 64.109375 47.007812 63.46875 46.480469 62.640625 L 45.898438 61.742188 L 45.246094 62.761719 C 45.226562 62.785156 45.210938 62.835938 45.203125 62.835938 C 45.101562 62.726562 45 62.613281 44.902344 62.503906 C 44.429688 61.945312 44.105469 61.160156 44.15625 60.523438 L 44.046875 60.511719 C 44.820312 59.910156 45.492188 59.167969 45.984375 58.339844 C 46.128906 58.472656 46.328125 58.527344 46.578125 58.441406 C 46.75 58.917969 46.945312 59.382812 47.234375 59.824219 C 47.457031 60.136719 47.796875 60.5 48.234375 60.664062 L 48.332031 60.699219 C 48.371094 60.710938 48.386719 60.726562 48.46875 60.734375 C 48.589844 60.746094 48.722656 60.761719 48.835938 60.714844 C 48.875 60.792969 48.914062 60.863281 48.957031 60.941406 C 49.066406 61.171875 49.171875 61.449219 49.3125 61.757812 C 49.445312 62.0625 49.605469 62.390625 49.742188 62.792969 C 49.878906 63.183594 50.027344 63.621094 50.140625 64.09375 C 50.199219 64.332031 50.246094 64.578125 50.265625 64.804688 " fill-opacity="1" fill-rule="nonzero"/><path fill="#fcee21" d="M 53.191406 61.238281 L 53.226562 61.3125 C 53.21875 61.328125 53.210938 61.332031 53.203125 61.339844 C 53.179688 61.359375 53.15625 61.371094 53.132812 61.382812 C 53.070312 61.40625 53.054688 61.425781 52.9375 61.429688 C 52.785156 61.429688 52.636719 61.421875 52.5 61.402344 C 52.238281 61.371094 52 61.328125 51.800781 61.289062 C 51.570312 61.183594 51.324219 61.039062 51.078125 60.800781 C 50.867188 60.609375 50.652344 60.359375 50.40625 60.042969 C 50.277344 59.867188 49.566406 59.027344 48.972656 58.382812 C 48.824219 58.613281 48.679688 58.851562 48.527344 59.09375 C 48.523438 59.113281 48.507812 59.132812 48.5 59.148438 C 48.472656 59.117188 48.441406 59.078125 48.410156 59.035156 C 48.214844 58.722656 48.046875 58.308594 47.875 57.824219 C 48.949219 57.214844 50.003906 56.363281 50.601562 55.335938 C 50.6875 55.351562 50.800781 55.386719 50.910156 55.425781 C 51.066406 55.496094 51.238281 55.585938 51.394531 55.691406 C 51.710938 55.894531 51.996094 56.148438 52.203125 56.40625 C 52.253906 56.46875 52.292969 56.53125 52.339844 56.59375 C 52.351562 56.609375 52.351562 56.609375 52.355469 56.617188 C 52.355469 56.617188 52.359375 56.621094 52.363281 56.632812 C 52.363281 56.640625 52.359375 56.640625 52.355469 56.644531 L 52.347656 56.648438 C 52.335938 56.648438 52.289062 56.65625 52.269531 56.65625 L 52.09375 56.683594 L 51.257812 56.8125 L 51.570312 57.574219 C 51.898438 58.386719 52.277344 58.964844 52.535156 59.480469 C 52.636719 59.742188 52.753906 59.953125 52.835938 60.230469 C 52.914062 60.488281 52.996094 60.730469 53.066406 60.964844 C 53.109375 61.0625 53.152344 61.152344 53.191406 61.238281 " fill-opacity="1" fill-rule="nonzero"/><path fill="#2e3192" d="M 39.265625 29.226562 C 39.613281 29.546875 39.945312 29.886719 40.269531 30.21875 C 38.199219 31.089844 36.199219 32.40625 34.683594 34.074219 C 34.199219 33.167969 33.792969 32.214844 33.359375 31.28125 C 34.332031 29.695312 35.78125 28.824219 37.480469 28.09375 C 38.089844 28.4375 38.691406 28.808594 39.265625 29.226562 " fill-opacity="1" fill-rule="nonzero"/><path fill="#2e3192" d="M 54.105469 50.890625 C 53.789062 51.214844 53.445312 51.515625 53.085938 51.78125 C 51.367188 49.902344 49.820312 47.882812 48.84375 45.511719 C 48.894531 45.445312 48.949219 45.378906 49.003906 45.3125 C 51.03125 46.832031 52.390625 49.042969 54.105469 50.890625 " fill-opacity="1" fill-rule="nonzero"/><path fill="#a5c7f9" d="M 60.550781 44.472656 C 59.402344 45.570312 58.015625 46.261719 56.609375 47.011719 C 54.597656 45.722656 53.152344 43.984375 51.835938 41.980469 C 50.609375 40.113281 47.992188 36.859375 49.050781 34.570312 C 49.417969 34.207031 50.136719 34.15625 50.605469 34.179688 C 50.625 34.183594 50.640625 34.179688 50.652344 34.179688 C 54.984375 35.675781 57.742188 41.023438 60.550781 44.472656 " fill-opacity="1" fill-rule="nonzero"/><path fill="#a5c7f9" d="M 49.613281 54.039062 C 49.265625 55.308594 47.683594 56.410156 46.476562 56.949219 C 46.464844 56.945312 46.453125 56.9375 46.4375 56.933594 C 41.878906 55.054688 40.457031 49.519531 37.308594 46.082031 C 37.34375 45.019531 38.019531 44.066406 38.582031 43.1875 C 40.359375 42.648438 43.234375 46.652344 44.21875 47.621094 C 46.222656 49.585938 48.128906 51.648438 49.613281 54.039062 " fill-opacity="1" fill-rule="nonzero"/><path fill="#999999" d="M 63.949219 40.195312 C 63.738281 41.527344 62.410156 42.496094 61.289062 43.121094 C 59.632812 41.054688 58.027344 38.527344 56.117188 36.433594 C 57.058594 35.675781 58.003906 34.9375 58.957031 34.191406 C 60.925781 35.914062 62.363281 38.125 63.949219 40.195312 " fill-opacity="1" fill-rule="nonzero"/><path fill="#999999" d="M 44.742188 57.628906 C 44.125 58.648438 43.203125 59.464844 42.15625 60.035156 C 40.085938 58.441406 38.847656 56.089844 37.132812 54.15625 C 38.003906 53.433594 38.859375 52.691406 39.714844 51.949219 C 41.085938 54.148438 42.511719 56.269531 44.742188 57.628906 " fill-opacity="1" fill-rule="nonzero"/><path fill="#e6e6e6" d="M 57.769531 28.957031 C 58.4375 29.886719 59.277344 30.667969 60.136719 31.425781 C 58.484375 32.785156 56.78125 34.074219 55.121094 35.40625 C 53.890625 34.25 52.535156 33.300781 50.972656 32.777344 C 50.839844 32.726562 50.71875 32.726562 50.605469 32.746094 C 50.019531 32.71875 49.316406 32.816406 48.722656 33.09375 C 48.664062 33.089844 48.605469 33.09375 48.542969 33.105469 C 47.292969 31.535156 45.925781 30.015625 44.460938 28.609375 C 46.621094 28.558594 48.726562 28.351562 50.890625 28.445312 C 52.027344 28.5 53.164062 28.46875 54.300781 28.546875 C 54.855469 28.585938 57.449219 28.515625 57.769531 28.957031 " fill-opacity="1" fill-rule="nonzero"/><path fill="#e6e6e6" d="M 36.078125 46.855469 C 37.195312 48.007812 38.09375 49.355469 38.949219 50.722656 C 37.113281 52.324219 35.273438 53.921875 33.296875 55.347656 C 32.617188 54.507812 32.101562 53.554688 31.460938 52.6875 C 31.058594 52.152344 31.546875 50.910156 31.636719 50.324219 C 31.828125 49.164062 31.878906 47.972656 32.007812 46.800781 C 32.171875 45.320312 32.355469 43.847656 32.574219 42.371094 C 32.679688 41.667969 32.789062 40.960938 32.910156 40.261719 C 32.960938 39.957031 33.457031 38.367188 33.296875 38.164062 C 34.53125 39.746094 35.867188 41.265625 37.140625 42.796875 C 36.492188 43.828125 35.863281 44.925781 35.867188 46.171875 C 35.871094 46.210938 35.878906 46.253906 35.882812 46.289062 C 35.859375 46.480469 35.910156 46.679688 36.078125 46.855469 " fill-opacity="1" fill-rule="nonzero"/><path fill="#f2f2f2" d="M 41.851562 30.933594 C 42.195312 30.714844 42.390625 30.203125 42.042969 29.796875 C 41.457031 29.109375 40.746094 28.515625 39.988281 27.980469 C 39.335938 27.40625 38.632812 26.898438 37.789062 26.570312 C 37.503906 26.457031 37.277344 26.539062 37.128906 26.703125 C 34.945312 27.628906 33.070312 28.730469 31.914062 30.894531 C 31.769531 31.167969 31.808594 31.425781 31.941406 31.621094 C 32.578125 32.9375 33.101562 34.308594 33.878906 35.554688 C 33.984375 35.71875 34.121094 35.816406 34.269531 35.855469 C 34.515625 36.058594 34.867188 36.089844 35.125 35.761719 C 36.691406 33.742188 39.03125 32.160156 41.425781 31.289062 C 41.613281 31.222656 41.738281 31.105469 41.820312 30.964844 C 41.828125 30.957031 41.84375 30.945312 41.851562 30.933594 Z M 55.71875 48.132812 C 55.605469 48.671875 55.351562 49.226562 55.003906 49.761719 C 53.175781 47.769531 51.726562 45.453125 49.472656 43.878906 C 49.3125 43.769531 49.152344 43.742188 49.007812 43.765625 C 48.761719 43.699219 48.496094 43.746094 48.308594 43.933594 C 48.171875 44.074219 48.046875 44.222656 47.921875 44.378906 C 47.789062 44.546875 47.617188 44.78125 47.53125 44.886719 C 47.34375 45.125 47.273438 45.425781 47.390625 45.683594 C 47.394531 45.710938 47.398438 45.734375 47.40625 45.765625 C 48.429688 48.320312 50.015625 50.496094 51.832031 52.527344 C 51.40625 52.71875 50.980469 52.847656 50.578125 52.898438 C 48.53125 49.773438 45.808594 47.292969 43.210938 44.617188 C 41.746094 43.105469 40.386719 41.042969 38.210938 41.796875 C 36.152344 39.300781 34.035156 36.96875 32.320312 34.214844 C 30.277344 30.925781 29.875 27.679688 29.851562 24.023438 C 33.675781 24.246094 37.039062 24.613281 40.320312 26.933594 C 43.0625 28.863281 45.523438 31.566406 47.601562 34.207031 C 47.601562 34.21875 47.601562 34.234375 47.597656 34.253906 C 46.636719 36.53125 48.296875 38.816406 49.492188 40.886719 C 51.125 43.703125 52.988281 46.332031 55.71875 48.132812 " fill-opacity="1" fill-rule="nonzero"/><path fill="#ffff00" d="M 30.535156 44.976562 C 30.59375 45.070312 30.652344 45.160156 30.71875 45.25 C 27.703125 47.046875 24.664062 48.789062 21.550781 50.390625 C 17.484375 52.472656 13.285156 54.304688 8.828125 55.671875 C 6.960938 56.242188 2.144531 57.371094 2.714844 53.875 C 3.09375 51.605469 5.109375 49.5 6.570312 47.839844 C 8.46875 45.6875 10.429688 43.628906 12.441406 41.628906 C 12.496094 41.800781 12.554688 41.972656 12.613281 42.140625 C 10.53125 44.214844 8.503906 46.355469 6.550781 48.597656 C 5.242188 50.101562 0.769531 55.316406 4.949219 55.820312 C 5.019531 55.839844 5.09375 55.847656 5.171875 55.84375 C 5.253906 55.847656 5.328125 55.839844 5.398438 55.824219 C 7.96875 55.65625 10.410156 54.6875 12.78125 53.734375 C 15.695312 52.558594 18.640625 51.449219 21.46875 50.078125 C 21.480469 50.074219 21.484375 50.074219 21.492188 50.066406 C 24.605469 48.5625 27.585938 46.804688 30.535156 44.976562 " fill-opacity="1" fill-rule="nonzero"/><path fill="#ffff00" d="M 70.578125 12.125 C 72.949219 14.765625 67.410156 19.894531 65.714844 21.710938 C 63.8125 23.734375 61.699219 25.554688 59.503906 27.257812 C 59.453125 27.054688 59.394531 26.859375 59.335938 26.65625 C 63.277344 23.554688 66.890625 20.0625 69.890625 15.847656 C 72.761719 11.804688 67.742188 11.640625 64.914062 11.996094 C 60.660156 12.527344 56.488281 13.917969 52.46875 15.417969 C 52.335938 15.300781 52.207031 15.179688 52.074219 15.058594 C 54.953125 14 57.871094 13.050781 60.847656 12.304688 C 63.546875 11.625 68.027344 10.332031 70.578125 12.125 " fill-opacity="1" fill-rule="nonzero"/><path fill="#ff742e" d="M 37.398438 56.730469 C 36.230469 56.816406 35.070312 56.789062 33.925781 56.65625 C 34.636719 56.140625 35.335938 55.609375 36.019531 55.058594 C 36.507812 55.59375 36.960938 56.160156 37.398438 56.730469 " fill-opacity="1" fill-rule="nonzero"/><path fill="#ff742e" d="M 30.121094 53.273438 C 30.90625 54.289062 31.492188 55.421875 32.3125 56.40625 C 28.683594 55.679688 25.246094 53.988281 22.214844 51.839844 C 22.613281 52.121094 26.363281 49.667969 26.878906 49.371094 C 27.558594 48.980469 28.328125 48.625 28.953125 48.148438 C 29.179688 47.984375 29.808594 47.132812 30.125 47.238281 C 30.371094 47.320312 30.363281 48.730469 30.394531 49.027344 C 30.109375 48.957031 29.679688 48.230469 29.449219 48.75 C 29.195312 49.324219 30.054688 49.816406 30.199219 50.269531 C 30.339844 50.726562 30.222656 52.246094 30.027344 52.679688 C 29.949219 52.851562 29.960938 53.058594 30.121094 53.273438 " fill-opacity="1" fill-rule="nonzero"/><path fill="#ff742e" d="M 17.066406 28.136719 C 17.0625 27.847656 17.035156 27.535156 16.9375 27.1875 C 16.886719 27.007812 16.816406 26.828125 16.667969 26.632812 C 16.59375 26.539062 16.5 26.4375 16.335938 26.367188 C 16.171875 26.292969 15.957031 26.289062 15.804688 26.355469 C 15.5 26.488281 15.367188 26.6875 15.234375 26.863281 C 15.109375 27.042969 15.007812 27.234375 14.925781 27.425781 C 14.746094 27.820312 14.640625 28.191406 14.507812 28.585938 C 14.25 29.375 14.011719 30.167969 14.058594 30.996094 C 14.074219 31.199219 14.117188 31.414062 14.207031 31.621094 C 14.238281 31.714844 14.339844 31.84375 14.414062 31.9375 C 14.449219 31.988281 14.472656 32 14.507812 32.03125 L 14.550781 32.070312 L 14.578125 32.097656 L 14.628906 32.128906 L 14.632812 32.136719 L 14.636719 32.136719 L 14.652344 32.144531 C 14.832031 32.242188 15.042969 32.328125 15.277344 32.304688 C 15.503906 32.28125 15.703125 32.179688 15.828125 32.054688 C 16.082031 31.804688 16.179688 31.542969 16.253906 31.320312 C 16.320312 31.09375 16.347656 30.898438 16.351562 30.738281 C 16.359375 30.410156 16.296875 30.246094 16.246094 30.246094 C 16.1875 30.246094 16.140625 30.417969 16.046875 30.679688 C 15.992188 30.8125 15.929688 30.980469 15.835938 31.152344 C 15.742188 31.320312 15.617188 31.511719 15.460938 31.621094 C 15.304688 31.714844 15.203125 31.710938 15.023438 31.59375 L 15.019531 31.582031 L 14.976562 31.539062 C 14.949219 31.515625 14.910156 31.476562 14.898438 31.457031 C 14.898438 31.410156 14.875 31.414062 14.863281 31.34375 C 14.824219 31.238281 14.800781 31.105469 14.800781 30.953125 C 14.796875 30.347656 15.011719 29.601562 15.273438 28.835938 C 15.398438 28.457031 15.515625 28.054688 15.648438 27.734375 C 15.714844 27.566406 15.796875 27.421875 15.875 27.285156 C 15.949219 27.164062 16.054688 27.058594 16.078125 27.042969 C 16.085938 27.054688 16.105469 27.066406 16.121094 27.082031 C 16.1875 27.152344 16.253906 27.277344 16.300781 27.402344 C 16.410156 27.652344 16.460938 27.929688 16.5 28.179688 C 16.636719 29.191406 16.484375 29.851562 16.605469 29.882812 C 16.6875 29.921875 17.066406 29.289062 17.066406 28.136719 Z M 18 31.742188 C 18.164062 31.234375 18.011719 30.792969 17.796875 30.78125 C 17.566406 30.765625 17.363281 31.09375 17.238281 31.488281 C 17.128906 31.839844 17.058594 32.292969 17.261719 32.390625 C 17.453125 32.484375 17.804688 32.292969 18 31.742188 Z M 18 23.335938 C 18.429688 22.6875 18.660156 21.992188 18.453125 21.894531 C 18.257812 21.792969 17.78125 22.207031 17.316406 22.90625 C 17.09375 23.269531 16.953125 23.644531 16.921875 23.964844 C 16.910156 24.25 16.976562 24.429688 17.082031 24.457031 C 17.191406 24.492188 17.324219 24.335938 17.464844 24.121094 C 17.609375 23.941406 17.796875 23.660156 18 23.335938 Z M 18.871094 46.589844 C 18.976562 46.386719 18.609375 46.003906 18.195312 45.605469 C 17.992188 45.402344 17.816406 45.21875 17.660156 45.105469 C 17.503906 44.957031 17.363281 44.867188 17.257812 44.914062 C 17.160156 44.964844 17.113281 45.121094 17.152344 45.355469 C 17.207031 45.613281 17.371094 45.921875 17.632812 46.179688 C 18.167969 46.695312 18.777344 46.78125 18.871094 46.589844 Z M 18.875 26.472656 C 18.960938 25.8125 18.722656 25.417969 18.511719 25.410156 C 18.28125 25.40625 18.144531 25.910156 18.078125 26.351562 C 17.996094 26.84375 18 27.285156 18.210938 27.382812 C 18.40625 27.46875 18.769531 27.078125 18.875 26.472656 Z M 20.511719 41.003906 C 20.535156 39.4375 20.394531 37.96875 20.132812 36.628906 C 19.996094 35.96875 19.824219 35.339844 19.574219 34.757812 C 19.453125 34.472656 19.296875 34.199219 19.101562 33.960938 C 18.914062 33.714844 18.664062 33.488281 18.34375 33.390625 C 18.09375 33.300781 17.730469 33.292969 17.480469 33.386719 C 17.21875 33.476562 17.011719 33.621094 16.855469 33.769531 C 16.53125 34.074219 16.355469 34.402344 16.238281 34.664062 C 16 35.207031 16.019531 35.546875 16.066406 35.550781 C 16.125 35.566406 16.210938 35.265625 16.511719 34.816406 C 16.660156 34.597656 16.863281 34.328125 17.148438 34.113281 C 17.285156 34.003906 17.453125 33.917969 17.625 33.878906 C 17.804688 33.84375 17.941406 33.847656 18.160156 33.929688 C 18.484375 34.058594 18.765625 34.507812 18.960938 35.015625 C 19.15625 35.535156 19.292969 36.128906 19.402344 36.769531 C 19.621094 38.042969 19.730469 39.488281 19.707031 40.984375 C 19.695312 41.363281 19.675781 41.679688 19.585938 42.019531 C 19.511719 42.34375 19.390625 42.65625 19.226562 42.878906 C 19.144531 42.992188 19.058594 43.066406 18.972656 43.117188 C 18.886719 43.160156 18.792969 43.167969 18.683594 43.164062 C 18.578125 43.144531 18.453125 43.101562 18.339844 43.035156 C 18.28125 42.996094 18.234375 42.984375 18.167969 42.929688 L 17.96875 42.78125 C 17.546875 42.425781 17.207031 41.910156 16.984375 41.40625 C 16.75 40.902344 16.597656 40.390625 16.488281 39.917969 C 16.070312 38.003906 16.253906 36.757812 16.125 36.746094 C 16.039062 36.71875 15.632812 37.972656 15.929688 40.027344 C 16.011719 40.539062 16.132812 41.097656 16.367188 41.675781 C 16.609375 42.25 16.933594 42.847656 17.515625 43.363281 C 17.636719 43.46875 17.761719 43.574219 17.960938 43.6875 C 18.136719 43.800781 18.339844 43.878906 18.574219 43.921875 C 18.8125 43.953125 19.082031 43.925781 19.3125 43.816406 C 19.539062 43.699219 19.722656 43.53125 19.855469 43.355469 C 20.128906 42.992188 20.265625 42.597656 20.363281 42.207031 C 20.472656 41.828125 20.5 41.382812 20.511719 41.003906 Z M 21.734375 46.347656 C 21.828125 46.3125 21.859375 46.054688 21.730469 45.65625 C 21.699219 45.554688 21.65625 45.449219 21.589844 45.332031 C 21.535156 45.21875 21.441406 45.105469 21.328125 44.988281 C 21.207031 44.871094 21.046875 44.746094 20.796875 44.703125 C 20.539062 44.65625 20.210938 44.777344 20.074219 44.976562 C 19.765625 45.363281 19.78125 45.71875 19.785156 46.003906 C 19.796875 46.148438 19.816406 46.285156 19.851562 46.402344 C 19.878906 46.523438 19.917969 46.632812 19.960938 46.734375 C 20.042969 46.933594 20.140625 47.058594 20.21875 47.136719 C 20.296875 47.222656 20.367188 47.265625 20.417969 47.242188 C 20.472656 47.222656 20.5 47.152344 20.515625 47.039062 C 20.527344 46.925781 20.511719 46.757812 20.515625 46.589844 C 20.511719 46.507812 20.507812 46.414062 20.511719 46.3125 C 20.511719 46.210938 20.515625 46.113281 20.53125 46.007812 C 20.546875 45.8125 20.609375 45.574219 20.675781 45.507812 C 20.683594 45.496094 20.6875 45.492188 20.695312 45.488281 C 20.6875 45.488281 20.6875 45.488281 20.695312 45.476562 C 20.710938 45.484375 20.773438 45.5 20.839844 45.546875 C 20.914062 45.601562 20.984375 45.65625 21.046875 45.726562 C 21.117188 45.792969 21.175781 45.863281 21.230469 45.929688 C 21.460938 46.199219 21.625 46.394531 21.734375 46.347656 Z M 26.695312 17.589844 C 27.132812 17.097656 27.316406 16.472656 27.277344 15.910156 C 27.261719 15.628906 27.179688 15.347656 27 15.105469 C 26.839844 14.871094 26.523438 14.707031 26.265625 14.722656 C 26.003906 14.726562 25.832031 14.832031 25.6875 14.917969 C 25.558594 15.007812 25.460938 15.101562 25.386719 15.1875 C 25.261719 15.355469 25.214844 15.464844 25.253906 15.507812 C 25.289062 15.550781 25.40625 15.515625 25.582031 15.433594 C 25.746094 15.363281 26.023438 15.246094 26.230469 15.289062 C 26.332031 15.3125 26.390625 15.371094 26.449219 15.480469 C 26.503906 15.589844 26.542969 15.757812 26.539062 15.9375 C 26.53125 16.308594 26.382812 16.734375 26.09375 17.050781 C 25.761719 17.441406 25.253906 17.585938 24.785156 17.609375 C 24.695312 17.277344 24.734375 16.984375 24.832031 16.769531 C 24.945312 16.507812 25.0625 16.347656 25.015625 16.285156 C 24.980469 16.234375 24.761719 16.277344 24.496094 16.542969 C 24.375 16.6875 24.234375 16.886719 24.171875 17.160156 C 24.109375 17.433594 24.117188 17.753906 24.214844 18.070312 L 24.273438 18.265625 L 24.503906 18.292969 C 24.832031 18.339844 25.203125 18.347656 25.597656 18.25 C 25.992188 18.152344 26.390625 17.925781 26.695312 17.589844 Z M 35.695312 13.964844 C 35.730469 13.84375 35.726562 13.726562 35.734375 13.613281 C 35.722656 13.445312 35.726562 13.441406 35.695312 13.308594 C 35.574219 12.792969 35.164062 12.550781 34.851562 12.464844 C 34.21875 12.292969 33.753906 12.382812 33.433594 12.421875 C 33.121094 12.476562 32.949219 12.53125 32.949219 12.585938 C 32.949219 12.640625 33.125 12.695312 33.4375 12.734375 C 33.738281 12.785156 34.21875 12.808594 34.652344 12.992188 C 34.761719 13.042969 34.847656 13.109375 34.917969 13.179688 C 34.980469 13.246094 35.023438 13.347656 35.03125 13.410156 C 35.082031 13.699219 35.003906 13.882812 34.828125 14 C 34.636719 14.136719 34.28125 14.195312 33.917969 14.210938 C 33.539062 14.230469 33.136719 14.199219 32.710938 14.171875 C 32.355469 14.140625 31.976562 14.152344 31.660156 14.1875 C 31.328125 14.210938 31.019531 14.234375 30.722656 14.246094 C 30.433594 14.253906 30.144531 14.257812 29.898438 14.230469 C 29.660156 14.214844 29.453125 14.125 29.414062 14.089844 C 29.367188 13.992188 29.355469 13.910156 29.378906 13.820312 C 29.402344 13.722656 29.472656 13.613281 29.570312 13.527344 C 29.753906 13.34375 29.984375 13.21875 30.171875 13.128906 C 30.550781 12.941406 30.800781 12.898438 30.800781 12.820312 C 30.804688 12.765625 30.535156 12.679688 30.054688 12.773438 C 29.824219 12.824219 29.535156 12.90625 29.234375 13.117188 C 29.082031 13.226562 28.925781 13.378906 28.824219 13.609375 C 28.714844 13.84375 28.730469 14.152344 28.835938 14.394531 L 28.84375 14.410156 L 28.847656 14.425781 C 28.976562 14.621094 29.164062 14.738281 29.316406 14.800781 C 29.484375 14.875 29.636719 14.90625 29.792969 14.941406 C 30.109375 14.992188 30.417969 15.007812 30.738281 15.007812 C 31.058594 15.011719 31.382812 14.992188 31.707031 14.980469 C 32.039062 14.957031 32.328125 14.945312 32.660156 14.972656 C 33.085938 15.003906 33.519531 15.027344 33.957031 14.996094 C 34.390625 14.960938 34.847656 14.90625 35.269531 14.601562 C 35.476562 14.449219 35.636719 14.203125 35.695312 13.964844 Z M 39.25 14.582031 C 39.300781 14.488281 39.308594 14.417969 39.273438 14.375 C 39.230469 14.335938 39.160156 14.320312 39.070312 14.324219 C 38.972656 14.335938 38.859375 14.363281 38.746094 14.363281 C 38.621094 14.371094 38.542969 14.332031 38.503906 14.277344 C 38.460938 14.234375 38.402344 14.128906 38.386719 13.992188 C 38.378906 13.703125 38.457031 13.636719 38.6875 13.574219 C 38.777344 13.527344 38.9375 13.539062 39.03125 13.523438 C 39.132812 13.507812 39.195312 13.476562 39.207031 13.417969 C 39.226562 13.367188 39.199219 13.304688 39.132812 13.226562 C 39.066406 13.152344 38.984375 13.0625 38.761719 13.003906 C 38.558594 12.933594 38.261719 12.933594 37.96875 13.136719 C 37.671875 13.347656 37.554688 13.726562 37.585938 14.066406 C 37.621094 14.40625 37.800781 14.746094 38.113281 14.910156 C 38.425781 15.082031 38.761719 15.007812 38.925781 14.902344 C 39.113281 14.796875 39.199219 14.679688 39.25 14.582031 Z M 49.96875 17.195312 C 50.070312 16.882812 49.949219 16.609375 49.851562 16.453125 C 49.746094 16.28125 49.628906 16.167969 49.515625 16.0625 C 49.285156 15.859375 49.054688 15.703125 48.832031 15.566406 C 48.382812 15.300781 47.964844 15.113281 47.601562 14.972656 C 46.890625 14.703125 46.40625 14.625 46.367188 14.730469 C 46.332031 14.835938 46.71875 15.089844 47.347656 15.484375 C 47.664062 15.679688 48.039062 15.914062 48.421875 16.1875 C 49.207031 16.75 49.464844 17.410156 48.257812 17.046875 C 47.84375 16.933594 47.453125 16.726562 47.140625 16.554688 C 46.511719 16.207031 46.160156 15.917969 46.070312 15.984375 C 45.980469 16.046875 46.210938 16.511719 46.816406 17.019531 C 47.121094 17.269531 47.503906 17.554688 48.027344 17.753906 C 48.15625 17.804688 48.300781 17.847656 48.457031 17.871094 C 48.53125 17.886719 48.609375 17.898438 48.71875 17.894531 L 48.867188 17.894531 C 48.910156 17.890625 48.941406 17.886719 48.972656 17.878906 L 49.027344 17.871094 C 49.027344 17.871094 49.050781 17.871094 49.054688 17.867188 L 49.113281 17.859375 L 49.125 17.851562 L 49.238281 17.8125 C 49.316406 17.789062 49.402344 17.753906 49.484375 17.707031 C 49.640625 17.617188 49.855469 17.5 49.96875 17.195312 Z M 52.394531 19.628906 C 52.542969 19.453125 52.394531 19.105469 52.070312 18.847656 C 51.746094 18.628906 51.382812 18.605469 51.261719 18.792969 C 51.140625 18.972656 51.300781 19.304688 51.625 19.519531 C 51.902344 19.746094 52.246094 19.792969 52.394531 19.628906 Z M 57.695312 26.25 C 57.21875 26.609375 56.738281 26.960938 56.253906 27.304688 C 55.996094 27.277344 55.734375 27.246094 55.476562 27.222656 C 55 26.53125 54.476562 25.882812 53.917969 25.261719 C 53.296875 24.574219 52.285156 25.59375 52.898438 26.273438 C 53.144531 26.542969 53.375 26.8125 53.601562 27.089844 C 52.753906 27.054688 51.898438 27.039062 51.046875 27.039062 C 50.710938 26.480469 50.324219 25.957031 49.917969 25.441406 C 49.675781 25.136719 49.160156 25.191406 48.90625 25.441406 C 48.605469 25.738281 48.664062 26.152344 48.90625 26.457031 C 49.058594 26.648438 49.203125 26.851562 49.34375 27.054688 C 48.746094 27.066406 48.148438 27.082031 47.546875 27.09375 C 47.152344 26.480469 46.550781 26.046875 45.957031 25.625 C 45.636719 25.402344 45.160156 25.566406 44.972656 25.882812 C 44.769531 26.242188 44.914062 26.640625 45.230469 26.867188 C 45.367188 26.957031 45.5 27.054688 45.625 27.152344 C 44.742188 27.175781 43.855469 27.195312 42.96875 27.199219 C 42.949219 27.199219 42.929688 27.203125 42.917969 27.203125 C 42.105469 26.515625 41.277344 25.855469 40.410156 25.25 C 37.027344 22.863281 33.050781 22.761719 29.074219 22.546875 C 28.488281 22.515625 28.277344 23.066406 28.425781 23.5 C 28.417969 23.535156 28.414062 23.578125 28.414062 23.621094 C 28.414062 26.960938 28.710938 30.335938 30.378906 33.6875 C 30.898438 34.710938 31.5 35.679688 32.15625 36.621094 C 32.148438 36.640625 32.140625 36.652344 32.136719 36.671875 C 32.023438 37.210938 31.917969 37.75 31.816406 38.289062 C 31.589844 37.9375 31.386719 37.578125 31.183594 37.214844 C 30.722656 36.417969 29.484375 37.136719 29.941406 37.941406 C 30.398438 38.738281 30.875 39.523438 31.46875 40.226562 C 31.316406 41.117188 31.183594 42.011719 31.058594 42.902344 C 31.003906 42.933594 30.953125 42.96875 30.898438 43 C 30.613281 42.597656 30.320312 42.207031 29.996094 41.847656 C 29.375 41.160156 28.367188 42.175781 28.984375 42.859375 C 29.234375 43.140625 29.460938 43.441406 29.679688 43.746094 C 26.371094 45.730469 23.035156 47.515625 19.605469 49.164062 C 19.464844 49.222656 19.332031 49.285156 19.199219 49.355469 C 19.183594 49.355469 19.171875 49.367188 19.15625 49.371094 C 15.070312 45.554688 12.71875 40.675781 12.71875 34.90625 C 12.714844 28.660156 15.445312 22.332031 19.566406 17.71875 C 21.804688 15.21875 24.1875 12.589844 27.492188 11.605469 C 30.4375 10.722656 34.007812 10.71875 37.074219 10.660156 C 46.832031 10.46875 54.722656 17.480469 57.695312 26.25 " fill-opacity="1" fill-rule="nonzero"/><g clip-path="url(#466bbec240)"><path fill="#000000" d="M 17.746094 50.035156 C 17.191406 49.480469 16.652344 48.910156 16.144531 48.304688 C 14.894531 46.816406 13.910156 45.195312 13.164062 43.5 C 11.230469 45.476562 9.335938 47.5 7.5625 49.609375 C 6.683594 50.664062 5.753906 51.75 5.105469 52.96875 C 4.679688 53.777344 4.167969 54.339844 5.171875 54.410156 C 7.898438 54.289062 10.546875 53.125 13.03125 52.09375 C 14.632812 51.429688 16.203125 50.746094 17.746094 50.035156 Z M 32.3125 56.40625 C 31.492188 55.421875 30.90625 54.289062 30.121094 53.273438 C 29.960938 53.058594 29.949219 52.851562 30.027344 52.679688 C 30.222656 52.246094 30.339844 50.726562 30.199219 50.269531 C 30.054688 49.816406 29.195312 49.324219 29.449219 48.75 C 29.679688 48.230469 30.109375 48.957031 30.394531 49.027344 C 30.363281 48.730469 30.371094 47.320312 30.125 47.238281 C 29.808594 47.132812 29.179688 47.984375 28.953125 48.148438 C 28.328125 48.625 27.558594 48.980469 26.878906 49.371094 C 26.363281 49.667969 22.613281 52.121094 22.214844 51.839844 C 25.246094 53.988281 28.683594 55.679688 32.3125 56.40625 Z M 30.71875 45.25 C 30.652344 45.160156 30.59375 45.070312 30.535156 44.976562 C 27.585938 46.804688 24.605469 48.5625 21.492188 50.066406 C 21.484375 50.074219 21.480469 50.074219 21.46875 50.078125 C 18.640625 51.449219 15.695312 52.558594 12.78125 53.734375 C 10.410156 54.6875 7.96875 55.65625 5.398438 55.824219 C 5.328125 55.839844 5.253906 55.847656 5.171875 55.84375 C 5.09375 55.847656 5.019531 55.839844 4.949219 55.820312 C 0.769531 55.316406 5.242188 50.101562 6.550781 48.597656 C 8.503906 46.355469 10.53125 44.214844 12.613281 42.140625 C 12.554688 41.972656 12.496094 41.800781 12.441406 41.628906 C 10.429688 43.628906 8.46875 45.6875 6.570312 47.839844 C 5.109375 49.5 3.09375 51.605469 2.714844 53.875 C 2.144531 57.371094 6.960938 56.242188 8.828125 55.671875 C 13.285156 54.304688 17.484375 52.472656 21.550781 50.390625 C 24.664062 48.789062 27.703125 47.046875 30.71875 45.25 Z M 38.949219 50.722656 C 38.09375 49.355469 37.195312 48.007812 36.078125 46.855469 C 35.910156 46.679688 35.859375 46.480469 35.882812 46.289062 C 35.878906 46.253906 35.871094 46.210938 35.867188 46.171875 C 35.863281 44.925781 36.492188 43.828125 37.140625 42.796875 C 35.867188 41.265625 34.53125 39.746094 33.296875 38.164062 C 33.457031 38.367188 32.960938 39.957031 32.910156 40.261719 C 32.789062 40.960938 32.679688 41.667969 32.574219 42.371094 C 32.355469 43.847656 32.171875 45.320312 32.007812 46.800781 C 31.878906 47.972656 31.828125 49.164062 31.636719 50.324219 C 31.546875 50.910156 31.058594 52.152344 31.460938 52.6875 C 32.101562 53.554688 32.617188 54.507812 33.296875 55.347656 C 35.273438 53.921875 37.113281 52.324219 38.949219 50.722656 Z M 33.925781 56.65625 C 35.070312 56.789062 36.230469 56.816406 37.398438 56.730469 C 36.960938 56.160156 36.507812 55.59375 36.019531 55.058594 C 35.335938 55.609375 34.636719 56.140625 33.925781 56.65625 Z M 42.15625 60.035156 C 43.203125 59.464844 44.125 58.648438 44.742188 57.628906 C 42.511719 56.269531 41.085938 54.148438 39.714844 51.949219 C 38.859375 52.691406 38.003906 53.433594 37.132812 54.15625 C 38.847656 56.089844 40.085938 58.441406 42.15625 60.035156 Z M 46.476562 56.949219 C 47.683594 56.410156 49.265625 55.308594 49.613281 54.039062 C 48.128906 51.648438 46.222656 49.585938 44.21875 47.621094 C 43.234375 46.652344 40.359375 42.648438 38.582031 43.1875 C 38.019531 44.066406 37.34375 45.019531 37.308594 46.082031 C 40.457031 49.519531 41.878906 55.054688 46.4375 56.933594 C 46.453125 56.9375 46.464844 56.945312 46.476562 56.949219 Z M 50.269531 64.945312 C 50.277344 64.941406 50.265625 64.851562 50.265625 64.804688 C 50.246094 64.578125 50.199219 64.332031 50.140625 64.09375 C 50.027344 63.621094 49.878906 63.183594 49.742188 62.792969 C 49.605469 62.390625 49.445312 62.0625 49.3125 61.757812 C 49.171875 61.449219 49.066406 61.171875 48.957031 60.941406 C 48.914062 60.863281 48.875 60.792969 48.835938 60.714844 C 48.722656 60.761719 48.589844 60.746094 48.46875 60.734375 C 48.386719 60.726562 48.371094 60.710938 48.332031 60.699219 L 48.234375 60.664062 C 47.796875 60.5 47.457031 60.136719 47.234375 59.824219 C 46.945312 59.382812 46.75 58.917969 46.578125 58.441406 C 46.328125 58.527344 46.128906 58.472656 45.984375 58.339844 C 45.492188 59.167969 44.820312 59.910156 44.046875 60.511719 L 44.15625 60.523438 C 44.105469 61.160156 44.429688 61.945312 44.902344 62.503906 C 45 62.613281 45.101562 62.726562 45.203125 62.835938 C 45.210938 62.835938 45.226562 62.785156 45.246094 62.761719 L 45.898438 61.742188 L 46.480469 62.640625 C 47.007812 63.46875 47.757812 64.109375 48.445312 64.480469 C 48.8125 64.65625 49.234375 64.8125 49.601562 64.917969 C 49.785156 64.972656 49.964844 65.011719 50.117188 65.03125 C 50.179688 65.039062 50.183594 65.042969 50.21875 65.035156 C 50.242188 65.027344 50.253906 65.003906 50.261719 64.976562 C 50.265625 64.96875 50.265625 64.953125 50.269531 64.945312 Z M 53.226562 61.3125 L 53.191406 61.238281 C 53.152344 61.152344 53.109375 61.0625 53.066406 60.964844 C 52.996094 60.730469 52.914062 60.488281 52.835938 60.230469 C 52.753906 59.953125 52.636719 59.742188 52.535156 59.480469 C 52.277344 58.964844 51.898438 58.386719 51.570312 57.574219 L 51.257812 56.8125 L 52.09375 56.683594 L 52.269531 56.65625 C 52.289062 56.65625 52.335938 56.648438 52.347656 56.648438 L 52.355469 56.644531 C 52.359375 56.640625 52.363281 56.640625 52.363281 56.632812 C 52.359375 56.621094 52.355469 56.617188 52.355469 56.617188 C 52.351562 56.609375 52.351562 56.609375 52.339844 56.59375 C 52.292969 56.53125 52.253906 56.46875 52.203125 56.40625 C 51.996094 56.148438 51.710938 55.894531 51.394531 55.691406 C 51.238281 55.585938 51.066406 55.496094 50.910156 55.425781 C 50.800781 55.386719 50.6875 55.351562 50.601562 55.335938 C 50.003906 56.363281 48.949219 57.214844 47.875 57.824219 C 48.046875 58.308594 48.214844 58.722656 48.410156 59.035156 C 48.441406 59.078125 48.472656 59.117188 48.5 59.148438 C 48.507812 59.132812 48.523438 59.113281 48.527344 59.09375 C 48.679688 58.851562 48.824219 58.613281 48.972656 58.382812 C 49.566406 59.027344 50.277344 59.867188 50.40625 60.042969 C 50.652344 60.359375 50.867188 60.609375 51.078125 60.800781 C 51.324219 61.039062 51.570312 61.183594 51.800781 61.289062 C 52 61.328125 52.238281 61.371094 52.5 61.402344 C 52.636719 61.421875 52.785156 61.429688 52.9375 61.429688 C 53.054688 61.425781 53.070312 61.40625 53.132812 61.382812 C 53.15625 61.371094 53.179688 61.359375 53.203125 61.339844 C 53.210938 61.332031 53.21875 61.328125 53.226562 61.3125 Z M 53.085938 51.78125 C 53.445312 51.515625 53.789062 51.214844 54.105469 50.890625 C 52.390625 49.042969 51.03125 46.832031 49.003906 45.3125 C 48.949219 45.378906 48.894531 45.445312 48.84375 45.511719 C 49.820312 47.882812 51.367188 49.902344 53.085938 51.78125 Z M 55.003906 49.761719 C 55.351562 49.226562 55.605469 48.671875 55.71875 48.132812 C 52.988281 46.332031 51.125 43.703125 49.492188 40.886719 C 48.296875 38.816406 46.636719 36.53125 47.597656 34.253906 C 47.601562 34.234375 47.601562 34.21875 47.601562 34.207031 C 45.523438 31.566406 43.0625 28.863281 40.320312 26.933594 C 37.039062 24.613281 33.675781 24.246094 29.851562 24.023438 C 29.875 27.679688 30.277344 30.925781 32.320312 34.214844 C 34.035156 36.96875 36.152344 39.300781 38.210938 41.796875 C 40.386719 41.042969 41.746094 43.105469 43.210938 44.617188 C 45.808594 47.292969 48.53125 49.773438 50.578125 52.898438 C 50.980469 52.847656 51.40625 52.71875 51.832031 52.527344 C 50.015625 50.496094 48.429688 48.320312 47.40625 45.765625 C 47.398438 45.734375 47.394531 45.710938 47.390625 45.683594 C 47.273438 45.425781 47.34375 45.125 47.53125 44.886719 C 47.617188 44.78125 47.789062 44.546875 47.921875 44.378906 C 48.046875 44.222656 48.171875 44.074219 48.308594 43.933594 C 48.496094 43.746094 48.761719 43.699219 49.007812 43.765625 C 49.152344 43.742188 49.3125 43.769531 49.472656 43.878906 C 51.726562 45.453125 53.175781 47.769531 55.003906 49.761719 Z M 56.253906 27.304688 C 56.738281 26.960938 57.21875 26.609375 57.695312 26.25 C 54.722656 17.480469 46.832031 10.46875 37.074219 10.660156 C 34.007812 10.71875 30.4375 10.722656 27.492188 11.605469 C 24.1875 12.589844 21.804688 15.21875 19.566406 17.71875 C 15.445312 22.332031 12.714844 28.660156 12.71875 34.90625 C 12.71875 40.675781 15.070312 45.554688 19.15625 49.371094 C 19.171875 49.367188 19.183594 49.355469 19.199219 49.355469 C 19.332031 49.285156 19.464844 49.222656 19.605469 49.164062 C 23.035156 47.515625 26.371094 45.730469 29.679688 43.746094 C 29.460938 43.441406 29.234375 43.140625 28.984375 42.859375 C 28.367188 42.175781 29.375 41.160156 29.996094 41.847656 C 30.320312 42.207031 30.613281 42.597656 30.898438 43 C 30.953125 42.96875 31.003906 42.933594 31.058594 42.902344 C 31.183594 42.011719 31.316406 41.117188 31.46875 40.226562 C 30.875 39.523438 30.398438 38.738281 29.941406 37.941406 C 29.484375 37.136719 30.722656 36.417969 31.183594 37.214844 C 31.386719 37.578125 31.589844 37.9375 31.816406 38.289062 C 31.917969 37.75 32.023438 37.210938 32.136719 36.671875 C 32.140625 36.652344 32.148438 36.640625 32.15625 36.621094 C 31.5 35.679688 30.898438 34.710938 30.378906 33.6875 C 28.710938 30.335938 28.414062 26.960938 28.414062 23.621094 C 28.414062 23.578125 28.417969 23.535156 28.425781 23.5 C 28.277344 23.066406 28.488281 22.515625 29.074219 22.546875 C 33.050781 22.761719 37.027344 22.863281 40.410156 25.25 C 41.277344 25.855469 42.105469 26.515625 42.917969 27.203125 C 42.929688 27.203125 42.949219 27.199219 42.96875 27.199219 C 43.855469 27.195312 44.742188 27.175781 45.625 27.152344 C 45.5 27.054688 45.367188 26.957031 45.230469 26.867188 C 44.914062 26.640625 44.769531 26.242188 44.972656 25.882812 C 45.160156 25.566406 45.636719 25.402344 45.957031 25.625 C 46.550781 26.046875 47.152344 26.480469 47.546875 27.09375 C 48.148438 27.082031 48.746094 27.066406 49.34375 27.054688 C 49.203125 26.851562 49.058594 26.648438 48.90625 26.457031 C 48.664062 26.152344 48.605469 25.738281 48.90625 25.441406 C 49.160156 25.191406 49.675781 25.136719 49.917969 25.441406 C 50.324219 25.957031 50.710938 26.480469 51.046875 27.039062 C 51.898438 27.039062 52.753906 27.054688 53.601562 27.089844 C 53.375 26.8125 53.144531 26.542969 52.898438 26.273438 C 52.285156 25.59375 53.296875 24.574219 53.917969 25.261719 C 54.476562 25.882812 55 26.53125 55.476562 27.222656 C 55.734375 27.246094 55.996094 27.277344 56.253906 27.304688 Z M 56.609375 47.011719 C 58.015625 46.261719 59.402344 45.570312 60.550781 44.472656 C 57.742188 41.023438 54.984375 35.675781 50.652344 34.179688 C 50.640625 34.179688 50.625 34.183594 50.605469 34.179688 C 50.136719 34.15625 49.417969 34.207031 49.050781 34.570312 C 47.992188 36.859375 50.609375 40.113281 51.835938 41.980469 C 53.152344 43.984375 54.597656 45.722656 56.609375 47.011719 Z M 60.136719 31.425781 C 59.277344 30.667969 58.4375 29.886719 57.769531 28.957031 C 57.449219 28.515625 54.855469 28.585938 54.300781 28.546875 C 53.164062 28.46875 52.027344 28.5 50.890625 28.445312 C 48.726562 28.351562 46.621094 28.558594 44.460938 28.609375 C 45.925781 30.015625 47.292969 31.535156 48.542969 33.105469 C 48.605469 33.09375 48.664062 33.089844 48.722656 33.09375 C 49.316406 32.816406 50.019531 32.71875 50.605469 32.746094 C 50.71875 32.726562 50.839844 32.726562 50.972656 32.777344 C 52.535156 33.300781 53.890625 34.25 55.121094 35.40625 C 56.78125 34.074219 58.484375 32.785156 60.136719 31.425781 Z M 62.984375 61.679688 C 63.023438 61.699219 62.972656 61.640625 62.964844 61.621094 L 62.917969 61.542969 C 62.882812 61.492188 62.855469 61.445312 62.824219 61.398438 L 62.785156 61.332031 L 62.765625 61.296875 C 62.753906 61.289062 62.753906 61.289062 62.722656 61.226562 C 62.527344 60.84375 62.320312 60.4375 62.105469 60.011719 C 61.886719 59.59375 61.667969 59.136719 61.417969 58.683594 C 61.152344 58.246094 60.898438 57.753906 60.59375 57.304688 C 60.285156 56.855469 59.902344 56.40625 59.488281 55.878906 C 59.382812 55.75 59.277344 55.617188 59.175781 55.472656 L 59.0625 55.308594 C 59.015625 55.246094 58.96875 55.179688 58.933594 55.109375 C 58.847656 54.972656 58.785156 54.839844 58.707031 54.703125 C 58.5625 54.429688 58.414062 54.148438 58.273438 53.851562 C 58.152344 53.605469 58.035156 53.347656 57.910156 53.089844 C 58.285156 53.15625 58.671875 53.21875 59.054688 53.285156 C 59.113281 53.296875 59.175781 53.304688 59.234375 53.3125 C 59.03125 52.878906 58.679688 52.425781 58.25 52.011719 C 57.6875 51.472656 57 50.96875 56.25 50.519531 C 55.542969 51.605469 54.511719 52.578125 53.382812 53.277344 C 53.496094 54.542969 53.886719 55.8125 54.4375 56.644531 C 54.527344 56.753906 54.605469 56.9375 54.695312 57.03125 L 54.828125 57.167969 C 54.847656 57.199219 54.867188 57.214844 54.890625 57.230469 C 54.894531 57.234375 54.894531 57.242188 54.894531 57.242188 C 54.894531 57.242188 54.902344 57.253906 54.914062 57.257812 L 54.914062 57.246094 L 54.898438 57.234375 L 54.898438 57.226562 C 54.898438 57.222656 54.925781 57.234375 54.929688 57.21875 L 55 57.039062 C 55.148438 56.574219 55.292969 56.105469 55.429688 55.652344 C 55.4375 55.605469 55.453125 55.648438 55.460938 55.652344 L 55.496094 55.691406 L 55.570312 55.765625 L 55.703125 55.925781 L 55.972656 56.226562 C 56.523438 56.84375 57.042969 57.425781 57.535156 57.976562 C 57.855469 58.339844 58.164062 58.667969 58.464844 58.96875 C 59.054688 59.570312 59.605469 60.042969 60.117188 60.402344 C 61.128906 61.125 61.945312 61.417969 62.472656 61.589844 C 62.511719 61.601562 62.539062 61.613281 62.578125 61.625 C 62.683594 61.648438 62.777344 61.660156 62.863281 61.671875 C 62.902344 61.675781 62.941406 61.675781 62.984375 61.679688 Z M 61.289062 43.121094 C 62.410156 42.496094 63.738281 41.527344 63.949219 40.195312 C 62.363281 38.125 60.925781 35.914062 58.957031 34.191406 C 58.003906 34.9375 57.058594 35.675781 56.117188 36.433594 C 58.027344 38.527344 59.632812 41.054688 61.289062 43.121094 Z M 64.253906 52.46875 C 64.234375 52.394531 64.207031 52.316406 64.191406 52.234375 C 64.09375 51.835938 63.945312 51.335938 63.699219 50.734375 C 63.632812 50.59375 63.558594 50.445312 63.484375 50.292969 C 63.40625 50.136719 63.289062 49.972656 63.1875 49.796875 C 63.078125 49.617188 62.960938 49.421875 62.835938 49.21875 C 62.710938 49.011719 62.589844 48.757812 62.457031 48.507812 L 62.054688 47.71875 L 63.007812 47.601562 L 63.152344 47.582031 L 63.164062 47.578125 C 63.175781 47.574219 63.175781 47.558594 63.167969 47.546875 L 63.164062 47.535156 L 63.160156 47.53125 L 63.136719 47.453125 C 63.097656 47.347656 63.03125 47.21875 62.941406 47.089844 C 62.617188 46.625 62.023438 46.175781 61.3125 45.71875 C 60.214844 46.707031 58.9375 47.402344 57.628906 48.101562 C 57.792969 48.664062 58.074219 49.28125 58.367188 49.652344 C 58.40625 49.699219 58.445312 49.769531 58.484375 49.8125 C 58.488281 49.816406 58.492188 49.867188 58.492188 49.867188 L 58.5 49.867188 L 58.59375 49.664062 L 59.179688 48.71875 L 59.753906 49.640625 C 60.273438 50.464844 60.707031 51.125 61.257812 51.53125 C 61.527344 51.746094 61.828125 51.90625 62.121094 52.050781 C 62.433594 52.179688 62.761719 52.273438 63.050781 52.382812 C 63.363281 52.496094 63.660156 52.601562 63.9375 52.703125 C 64.035156 52.746094 64.0625 52.769531 64.144531 52.808594 C 64.152344 52.8125 64.164062 52.824219 64.171875 52.824219 L 64.179688 52.804688 L 64.199219 52.765625 C 64.214844 52.738281 64.214844 52.707031 64.226562 52.675781 C 64.234375 52.640625 64.242188 52.613281 64.25 52.570312 C 64.25 52.539062 64.25 52.503906 64.253906 52.46875 Z M 67.785156 50.726562 C 67.820312 50.765625 67.789062 50.675781 67.789062 50.648438 C 67.785156 50.601562 67.765625 50.566406 67.761719 50.53125 C 67.753906 50.515625 67.746094 50.496094 67.742188 50.484375 L 67.730469 50.46875 L 67.699219 50.320312 C 67.632812 50.125 67.578125 49.898438 67.5 49.714844 C 67.402344 49.539062 67.359375 49.371094 67.230469 49.167969 C 67.167969 49.066406 67.109375 48.964844 67.050781 48.867188 C 67.011719 48.804688 66.996094 48.785156 66.949219 48.6875 L 66.800781 48.398438 C 66.703125 48.203125 66.601562 48.007812 66.496094 47.808594 C 66.398438 47.601562 66.3125 47.359375 66.214844 47.128906 C 66.140625 46.9375 66.003906 46.625 66.003906 46.609375 C 65.988281 46.546875 65.964844 46.484375 65.722656 45.867188 L 66.5 46.242188 L 66.84375 46.40625 L 66.886719 46.429688 C 66.890625 46.429688 66.914062 46.453125 66.945312 46.476562 L 67.035156 46.550781 L 67.144531 46.648438 C 67.128906 46.476562 67.09375 46.269531 67.046875 46.082031 C 66.925781 45.574219 66.742188 45.035156 66.507812 44.507812 C 66.261719 43.984375 65.972656 43.460938 65.597656 43 C 65.414062 42.773438 65.203125 42.570312 64.984375 42.386719 C 64.863281 42.292969 64.734375 42.214844 64.605469 42.140625 C 63.996094 43.019531 63.101562 43.722656 62.164062 44.269531 C 62.199219 44.371094 62.226562 44.480469 62.214844 44.589844 C 62.929688 45.058594 63.609375 45.570312 64.105469 46.296875 C 64.25 46.523438 64.371094 46.757812 64.457031 47.035156 C 64.476562 47.105469 64.5 47.171875 64.515625 47.242188 L 64.554688 47.53125 C 64.59375 47.71875 64.554688 47.894531 64.554688 48.070312 C 64.511719 48.230469 64.457031 48.382812 64.363281 48.515625 C 64.265625 48.628906 64.15625 48.710938 64.039062 48.769531 C 64.105469 48.902344 64.171875 49.03125 64.238281 49.167969 C 64.300781 49.210938 64.363281 49.246094 64.433594 49.296875 C 64.816406 49.535156 65.339844 49.785156 66.054688 50.054688 C 66.40625 50.195312 66.8125 50.335938 67.257812 50.515625 C 67.359375 50.5625 67.464844 50.601562 67.570312 50.652344 L 67.65625 50.675781 C 67.703125 50.691406 67.75 50.710938 67.785156 50.726562 Z M 68.988281 14.597656 C 69.898438 12.8125 67.632812 13.179688 66.40625 13.273438 C 64.046875 13.457031 61.722656 13.992188 59.457031 14.636719 C 57.460938 15.210938 55.511719 15.847656 53.59375 16.542969 C 55.945312 19.058594 57.75 22.058594 58.902344 25.324219 C 61.542969 23.25 64.007812 20.976562 66.125 18.378906 C 67.085938 17.195312 68.289062 15.957031 68.988281 14.597656 Z M 65.714844 21.710938 C 67.410156 19.894531 72.949219 14.765625 70.578125 12.125 C 68.027344 10.332031 63.546875 11.625 60.847656 12.304688 C 57.871094 13.050781 54.953125 14 52.074219 15.058594 C 52.207031 15.179688 52.335938 15.300781 52.46875 15.417969 C 56.488281 13.917969 60.660156 12.527344 64.914062 11.996094 C 67.742188 11.640625 72.761719 11.804688 69.890625 15.847656 C 66.890625 20.0625 63.277344 23.554688 59.335938 26.65625 C 59.394531 26.859375 59.453125 27.054688 59.503906 27.257812 C 61.699219 25.554688 63.8125 23.734375 65.714844 21.710938 Z M 71.558594 11.070312 C 74.996094 14.75 69.1875 20.175781 66.726562 22.722656 C 64.601562 24.917969 62.28125 26.910156 59.859375 28.761719 C 59.894531 28.953125 59.933594 29.148438 59.96875 29.339844 C 60.511719 29.878906 61.101562 30.375 61.671875 30.871094 C 61.917969 31.089844 61.949219 31.363281 61.847656 31.59375 C 61.847656 31.753906 61.78125 31.921875 61.609375 32.0625 C 61.203125 32.402344 60.789062 32.734375 60.367188 33.070312 C 60.371094 33.234375 60.382812 33.398438 60.382812 33.566406 C 62.257812 35.332031 63.679688 37.515625 65.242188 39.546875 C 65.289062 39.605469 65.316406 39.664062 65.339844 39.722656 C 65.390625 39.824219 65.414062 39.941406 65.398438 40.085938 C 65.371094 40.351562 65.3125 40.613281 65.238281 40.859375 C 65.464844 40.980469 65.679688 41.113281 65.875 41.261719 C 66.191406 41.527344 66.472656 41.804688 66.707031 42.105469 C 67.1875 42.691406 67.523438 43.316406 67.800781 43.933594 C 68.070312 44.546875 68.269531 45.160156 68.410156 45.78125 C 68.476562 46.097656 68.523438 46.390625 68.539062 46.753906 C 68.539062 46.941406 68.542969 47.136719 68.441406 47.429688 C 68.390625 47.566406 68.289062 47.753906 68.097656 47.894531 C 68.050781 47.90625 68.082031 47.898438 68.066406 47.902344 C 68.050781 47.902344 68.023438 47.878906 68.035156 47.902344 C 68.035156 47.914062 68.027344 47.90625 68.039062 47.929688 L 68.082031 48.011719 L 68.097656 48.054688 L 68.183594 48.207031 C 68.246094 48.320312 68.308594 48.4375 68.375 48.546875 C 68.5 48.765625 68.601562 49.0625 68.707031 49.304688 C 68.800781 49.558594 68.84375 49.777344 68.90625 50.011719 C 68.9375 50.175781 68.976562 50.335938 69.011719 50.492188 C 69.046875 50.6875 69.078125 50.882812 69.082031 51.050781 C 69.097656 51.410156 69.132812 51.734375 69.132812 52.078125 C 69.136719 52.246094 69.136719 52.40625 69.140625 52.570312 C 69.140625 52.644531 69.144531 52.746094 69.140625 52.796875 L 69.113281 52.949219 C 68.679688 52.640625 68.160156 52.253906 67.765625 52.007812 C 67.554688 51.863281 67.355469 51.746094 67.167969 51.652344 C 67.050781 51.589844 66.933594 51.535156 66.824219 51.476562 C 66.402344 51.269531 66.019531 51.078125 65.671875 50.90625 C 65.324219 50.734375 65.015625 50.550781 64.742188 50.371094 C 64.804688 50.605469 64.855469 50.824219 64.886719 51.027344 C 64.984375 51.332031 65.078125 51.722656 65.160156 52.210938 C 65.179688 52.320312 65.1875 52.421875 65.203125 52.550781 C 65.226562 52.726562 65.21875 52.914062 65.203125 53.101562 C 65.183594 53.285156 65.1875 53.480469 65.152344 53.691406 C 65.136719 53.789062 65.121094 53.902344 65.105469 54.007812 L 65.085938 54.175781 C 65.050781 54.179688 64.992188 54.152344 64.945312 54.148438 C 64.734375 54.105469 64.523438 54.058594 64.304688 54.011719 C 64.070312 53.945312 63.832031 53.875 63.589844 53.808594 C 63.304688 53.726562 62.996094 53.640625 62.679688 53.546875 C 62.339844 53.449219 61.984375 53.363281 61.613281 53.226562 C 61.238281 53.066406 60.847656 52.875 60.464844 52.597656 C 60.464844 52.59375 60.457031 52.59375 60.453125 52.59375 C 60.648438 52.984375 60.789062 53.421875 60.808594 53.894531 L 60.832031 54.378906 L 60.457031 54.546875 L 60.3125 54.617188 L 60.28125 54.640625 L 60.261719 54.640625 C 60.261719 54.640625 60.238281 54.640625 60.214844 54.640625 L 60.292969 54.679688 C 60.371094 54.800781 60.46875 54.925781 60.5625 55.050781 C 60.9375 55.546875 61.34375 56.039062 61.6875 56.570312 C 62.023438 57.105469 62.265625 57.613281 62.539062 58.097656 C 62.789062 58.585938 62.988281 59.054688 63.191406 59.5 C 63.386719 59.9375 63.582031 60.351562 63.753906 60.75 C 63.90625 61.078125 64.046875 61.398438 64.191406 61.707031 C 64.34375 62.03125 64.46875 62.328125 64.589844 62.609375 C 64.648438 62.75 64.707031 62.886719 64.765625 63.019531 L 64.851562 63.222656 L 64.871094 63.269531 C 64.875 63.28125 64.898438 63.316406 64.863281 63.296875 L 64.753906 63.261719 C 64.457031 63.171875 64.171875 63.085938 63.894531 63.003906 C 63.347656 62.832031 62.859375 62.695312 62.429688 62.519531 C 62.265625 62.453125 62.113281 62.386719 61.957031 62.324219 C 61.832031 62.269531 61.714844 62.222656 61.601562 62.171875 C 61.433594 62.089844 61.285156 62.015625 61.140625 61.941406 C 60.679688 61.808594 60.148438 61.601562 59.566406 61.269531 C 58.960938 60.921875 58.316406 60.457031 57.644531 59.855469 C 57.308594 59.558594 56.960938 59.246094 56.613281 58.886719 C 56.445312 58.714844 56.277344 58.585938 56.101562 58.40625 L 56.050781 58.460938 C 56.050781 58.460938 56.046875 58.460938 56.039062 58.460938 C 56.035156 58.460938 56.03125 58.410156 56.023438 58.429688 C 55.9375 58.707031 55.820312 58.820312 55.714844 59.070312 L 55.695312 59.117188 C 55.683594 59.121094 55.664062 59.109375 55.648438 59.101562 L 55.546875 59.070312 L 55.351562 58.992188 C 55.21875 58.945312 55.082031 58.902344 54.953125 58.839844 C 54.695312 58.714844 54.433594 58.648438 54.164062 58.429688 L 53.984375 58.28125 C 53.941406 58.246094 53.902344 58.214844 53.867188 58.179688 L 53.660156 57.957031 C 53.617188 57.910156 53.578125 57.863281 53.539062 57.816406 C 53.449219 57.878906 53.34375 57.929688 53.226562 57.960938 C 53.382812 58.289062 53.546875 58.609375 53.695312 58.941406 C 53.8125 59.269531 53.953125 59.609375 54.011719 59.882812 C 54.078125 60.175781 54.140625 60.453125 54.203125 60.710938 C 54.28125 61.089844 54.355469 61.441406 54.421875 61.773438 C 54.441406 61.855469 54.453125 61.9375 54.476562 62.015625 C 54.421875 62.066406 54.316406 62.09375 54.246094 62.132812 C 54.078125 62.199219 53.945312 62.273438 53.777344 62.3125 C 53.476562 62.410156 53.105469 62.394531 52.863281 62.367188 C 52.683594 62.335938 52.527344 62.300781 52.382812 62.257812 C 52.304688 62.261719 52.226562 62.269531 52.136719 62.273438 C 51.6875 62.296875 51 62.164062 50.355469 61.699219 C 50.3125 61.664062 50.261719 61.625 50.214844 61.589844 C 50.363281 61.835938 50.523438 62.101562 50.664062 62.410156 C 50.847656 62.808594 51.042969 63.257812 51.214844 63.789062 C 51.300781 64.054688 51.382812 64.34375 51.429688 64.679688 C 51.433594 64.777344 51.460938 64.835938 51.453125 64.972656 C 51.4375 65.101562 51.453125 65.242188 51.421875 65.367188 C 51.378906 65.632812 51.214844 65.855469 51.03125 66.046875 C 50.875 66.128906 50.726562 66.222656 50.546875 66.246094 C 50.457031 66.265625 50.363281 66.28125 50.269531 66.277344 C 50.183594 66.28125 50.070312 66.285156 50.007812 66.277344 C 49.746094 66.253906 49.511719 66.214844 49.285156 66.15625 C 48.808594 66.042969 48.378906 65.898438 47.882812 65.683594 C 47.214844 65.347656 46.601562 64.90625 46.050781 64.328125 C 45.984375 64.480469 45.914062 64.628906 45.84375 64.78125 L 45.78125 64.910156 L 45.65625 64.835938 L 45.402344 64.679688 C 45.242188 64.578125 45.058594 64.480469 44.902344 64.367188 C 44.746094 64.246094 44.585938 64.128906 44.429688 64.007812 L 44.1875 63.832031 L 44.058594 63.691406 L 43.804688 63.410156 C 43.644531 63.222656 43.5 63.007812 43.355469 62.792969 C 43.234375 62.558594 43.089844 62.34375 43.003906 62.074219 C 42.898438 61.84375 42.828125 61.589844 42.777344 61.316406 C 42.644531 61.390625 42.511719 61.460938 42.378906 61.523438 C 42.007812 61.6875 41.660156 61.542969 41.460938 61.292969 C 40.21875 60.351562 39.265625 59.183594 38.347656 57.976562 C 32.050781 58.488281 25.742188 56.460938 20.648438 52.589844 C 15.363281 55.050781 -0.0078125 61.707031 1.265625 53.949219 C 1.972656 49.625 6.472656 45.703125 9.308594 42.695312 C 10.179688 41.773438 11.074219 40.878906 11.972656 39.992188 C 10.257812 32.871094 12.207031 24.929688 16.753906 18.90625 C 19.976562 14.640625 23.867188 10.464844 29.410156 9.785156 C 34.695312 9.144531 40.289062 8.679688 45.316406 10.785156 C 47.320312 11.628906 49.160156 12.714844 50.8125 14.003906 C 54.746094 12.527344 58.785156 11.132812 62.929688 10.382812 C 65.5 9.917969 69.046875 9.242188 71.347656 10.917969 C 71.421875 10.953125 71.492188 11 71.558594 11.070312 " fill-opacity="1" fill-rule="nonzero"/></g><path fill="#000000" d="M 52.070312 18.847656 C 52.394531 19.105469 52.542969 19.453125 52.394531 19.628906 C 52.246094 19.792969 51.902344 19.746094 51.625 19.519531 C 51.300781 19.304688 51.140625 18.972656 51.261719 18.792969 C 51.382812 18.605469 51.746094 18.628906 52.070312 18.847656 " fill-opacity="1" fill-rule="nonzero"/><path fill="#000000" d="M 49.851562 16.453125 C 49.949219 16.609375 50.070312 16.882812 49.96875 17.195312 C 49.855469 17.5 49.640625 17.617188 49.484375 17.707031 C 49.402344 17.753906 49.316406 17.789062 49.238281 17.8125 L 49.125 17.851562 L 49.113281 17.859375 L 49.054688 17.867188 C 49.050781 17.871094 49.027344 17.871094 49.027344 17.871094 L 48.972656 17.878906 C 48.941406 17.886719 48.910156 17.890625 48.867188 17.894531 L 48.71875 17.894531 C 48.609375 17.898438 48.53125 17.886719 48.457031 17.871094 C 48.300781 17.847656 48.15625 17.804688 48.027344 17.753906 C 47.503906 17.554688 47.121094 17.269531 46.816406 17.019531 C 46.210938 16.511719 45.980469 16.046875 46.070312 15.984375 C 46.160156 15.917969 46.511719 16.207031 47.140625 16.554688 C 47.453125 16.726562 47.84375 16.933594 48.257812 17.046875 C 49.464844 17.410156 49.207031 16.75 48.421875 16.1875 C 48.039062 15.914062 47.664062 15.679688 47.347656 15.484375 C 46.71875 15.089844 46.332031 14.835938 46.367188 14.730469 C 46.40625 14.625 46.890625 14.703125 47.601562 14.972656 C 47.964844 15.113281 48.382812 15.300781 48.832031 15.566406 C 49.054688 15.703125 49.285156 15.859375 49.515625 16.0625 C 49.628906 16.167969 49.746094 16.28125 49.851562 16.453125 " fill-opacity="1" fill-rule="nonzero"/><path fill="#000000" d="M 40.269531 30.21875 C 39.945312 29.886719 39.613281 29.546875 39.265625 29.226562 C 38.691406 28.808594 38.089844 28.4375 37.480469 28.09375 C 35.78125 28.824219 34.332031 29.695312 33.359375 31.28125 C 33.792969 32.214844 34.199219 33.167969 34.683594 34.074219 C 36.199219 32.40625 38.199219 31.089844 40.269531 30.21875 Z M 42.042969 29.796875 C 42.390625 30.203125 42.195312 30.714844 41.851562 30.933594 C 41.84375 30.945312 41.828125 30.957031 41.820312 30.964844 C 41.738281 31.105469 41.613281 31.222656 41.425781 31.289062 C 39.03125 32.160156 36.691406 33.742188 35.125 35.761719 C 34.867188 36.089844 34.515625 36.058594 34.269531 35.855469 C 34.121094 35.816406 33.984375 35.71875 33.878906 35.554688 C 33.101562 34.308594 32.578125 32.9375 31.941406 31.621094 C 31.808594 31.425781 31.769531 31.167969 31.914062 30.894531 C 33.070312 28.730469 34.945312 27.628906 37.128906 26.703125 C 37.277344 26.539062 37.503906 26.457031 37.789062 26.570312 C 38.632812 26.898438 39.335938 27.40625 39.988281 27.980469 C 40.746094 28.515625 41.457031 29.109375 42.042969 29.796875 " fill-opacity="1" fill-rule="nonzero"/><path fill="#000000" d="M 39.273438 14.375 C 39.308594 14.417969 39.300781 14.488281 39.25 14.582031 C 39.199219 14.679688 39.113281 14.796875 38.925781 14.902344 C 38.761719 15.007812 38.425781 15.082031 38.113281 14.910156 C 37.800781 14.746094 37.621094 14.40625 37.585938 14.066406 C 37.554688 13.726562 37.671875 13.347656 37.96875 13.136719 C 38.261719 12.933594 38.558594 12.933594 38.761719 13.003906 C 38.984375 13.0625 39.066406 13.152344 39.132812 13.226562 C 39.199219 13.304688 39.226562 13.367188 39.207031 13.417969 C 39.195312 13.476562 39.132812 13.507812 39.03125 13.523438 C 38.9375 13.539062 38.777344 13.527344 38.6875 13.574219 C 38.457031 13.636719 38.378906 13.703125 38.386719 13.992188 C 38.402344 14.128906 38.460938 14.234375 38.503906 14.277344 C 38.542969 14.332031 38.621094 14.371094 38.746094 14.363281 C 38.859375 14.363281 38.972656 14.335938 39.070312 14.324219 C 39.160156 14.320312 39.230469 14.335938 39.273438 14.375 " fill-opacity="1" fill-rule="nonzero"/><path fill="#000000" d="M 35.734375 13.613281 C 35.726562 13.726562 35.730469 13.84375 35.695312 13.964844 C 35.636719 14.203125 35.476562 14.449219 35.269531 14.601562 C 34.847656 14.90625 34.390625 14.960938 33.957031 14.996094 C 33.519531 15.027344 33.085938 15.003906 32.660156 14.972656 C 32.328125 14.945312 32.039062 14.957031 31.707031 14.980469 C 31.382812 14.992188 31.058594 15.011719 30.738281 15.007812 C 30.417969 15.007812 30.109375 14.992188 29.792969 14.941406 C 29.636719 14.90625 29.484375 14.875 29.316406 14.800781 C 29.164062 14.738281 28.976562 14.621094 28.847656 14.425781 L 28.84375 14.410156 L 28.835938 14.394531 C 28.730469 14.152344 28.714844 13.84375 28.824219 13.609375 C 28.925781 13.378906 29.082031 13.226562 29.234375 13.117188 C 29.535156 12.90625 29.824219 12.824219 30.054688 12.773438 C 30.535156 12.679688 30.804688 12.765625 30.800781 12.820312 C 30.800781 12.898438 30.550781 12.941406 30.171875 13.128906 C 29.984375 13.21875 29.753906 13.34375 29.570312 13.527344 C 29.472656 13.613281 29.402344 13.722656 29.378906 13.820312 C 29.355469 13.910156 29.367188 13.992188 29.414062 14.089844 C 29.453125 14.125 29.660156 14.214844 29.898438 14.230469 C 30.144531 14.257812 30.433594 14.253906 30.722656 14.246094 C 31.019531 14.234375 31.328125 14.210938 31.660156 14.1875 C 31.976562 14.152344 32.355469 14.140625 32.710938 14.171875 C 33.136719 14.199219 33.539062 14.230469 33.917969 14.210938 C 34.28125 14.195312 34.636719 14.136719 34.828125 14 C 35.003906 13.882812 35.082031 13.699219 35.03125 13.410156 C 35.023438 13.347656 34.980469 13.246094 34.917969 13.179688 C 34.847656 13.109375 34.761719 13.042969 34.652344 12.992188 C 34.21875 12.808594 33.738281 12.785156 33.4375 12.734375 C 33.125 12.695312 32.949219 12.640625 32.949219 12.585938 C 32.949219 12.53125 33.121094 12.476562 33.433594 12.421875 C 33.753906 12.382812 34.21875 12.292969 34.851562 12.464844 C 35.164062 12.550781 35.574219 12.792969 35.695312 13.308594 C 35.726562 13.441406 35.722656 13.445312 35.734375 13.613281 " fill-opacity="1" fill-rule="nonzero"/><path fill="#000000" d="M 27.277344 15.910156 C 27.316406 16.472656 27.132812 17.097656 26.695312 17.589844 C 26.390625 17.925781 25.992188 18.152344 25.597656 18.25 C 25.203125 18.347656 24.832031 18.339844 24.503906 18.292969 L 24.273438 18.265625 L 24.214844 18.070312 C 24.117188 17.753906 24.109375 17.433594 24.171875 17.160156 C 24.234375 16.886719 24.375 16.6875 24.496094 16.542969 C 24.761719 16.277344 24.980469 16.234375 25.015625 16.285156 C 25.0625 16.347656 24.945312 16.507812 24.832031 16.769531 C 24.734375 16.984375 24.695312 17.277344 24.785156 17.609375 C 25.253906 17.585938 25.761719 17.441406 26.09375 17.050781 C 26.382812 16.734375 26.53125 16.308594 26.539062 15.9375 C 26.542969 15.757812 26.503906 15.589844 26.449219 15.480469 C 26.390625 15.371094 26.332031 15.3125 26.230469 15.289062 C 26.023438 15.246094 25.746094 15.363281 25.582031 15.433594 C 25.40625 15.515625 25.289062 15.550781 25.253906 15.507812 C 25.214844 15.464844 25.261719 15.355469 25.386719 15.1875 C 25.460938 15.101562 25.558594 15.007812 25.6875 14.917969 C 25.832031 14.832031 26.003906 14.726562 26.265625 14.722656 C 26.523438 14.707031 26.839844 14.871094 27 15.105469 C 27.179688 15.347656 27.261719 15.628906 27.277344 15.910156 " fill-opacity="1" fill-rule="nonzero"/><path fill="#000000" d="M 21.730469 45.65625 C 21.859375 46.054688 21.828125 46.3125 21.734375 46.347656 C 21.625 46.394531 21.460938 46.199219 21.230469 45.929688 C 21.175781 45.863281 21.117188 45.792969 21.046875 45.726562 C 20.984375 45.65625 20.914062 45.601562 20.839844 45.546875 C 20.773438 45.5 20.710938 45.484375 20.695312 45.476562 C 20.6875 45.488281 20.6875 45.488281 20.695312 45.488281 C 20.6875 45.492188 20.683594 45.496094 20.675781 45.507812 C 20.609375 45.574219 20.546875 45.8125 20.53125 46.007812 C 20.515625 46.113281 20.511719 46.210938 20.511719 46.3125 C 20.507812 46.414062 20.511719 46.507812 20.515625 46.589844 C 20.511719 46.757812 20.527344 46.925781 20.515625 47.039062 C 20.5 47.152344 20.472656 47.222656 20.417969 47.242188 C 20.367188 47.265625 20.296875 47.222656 20.21875 47.136719 C 20.140625 47.058594 20.042969 46.933594 19.960938 46.734375 C 19.917969 46.632812 19.878906 46.523438 19.851562 46.402344 C 19.816406 46.285156 19.796875 46.148438 19.785156 46.003906 C 19.78125 45.71875 19.765625 45.363281 20.074219 44.976562 C 20.210938 44.777344 20.539062 44.65625 20.796875 44.703125 C 21.046875 44.746094 21.207031 44.871094 21.328125 44.988281 C 21.441406 45.105469 21.535156 45.21875 21.589844 45.332031 C 21.65625 45.449219 21.699219 45.554688 21.730469 45.65625 " fill-opacity="1" fill-rule="nonzero"/><path fill="#000000" d="M 20.132812 36.628906 C 20.394531 37.96875 20.535156 39.4375 20.511719 41.003906 C 20.5 41.382812 20.472656 41.828125 20.363281 42.207031 C 20.265625 42.597656 20.128906 42.992188 19.855469 43.355469 C 19.722656 43.53125 19.539062 43.699219 19.3125 43.816406 C 19.082031 43.925781 18.8125 43.953125 18.574219 43.921875 C 18.339844 43.878906 18.136719 43.800781 17.960938 43.6875 C 17.761719 43.574219 17.636719 43.46875 17.515625 43.363281 C 16.933594 42.847656 16.609375 42.25 16.367188 41.675781 C 16.132812 41.097656 16.011719 40.539062 15.929688 40.027344 C 15.632812 37.972656 16.039062 36.71875 16.125 36.746094 C 16.253906 36.757812 16.070312 38.003906 16.488281 39.917969 C 16.597656 40.390625 16.75 40.902344 16.984375 41.40625 C 17.207031 41.910156 17.546875 42.425781 17.96875 42.78125 L 18.167969 42.929688 C 18.234375 42.984375 18.28125 42.996094 18.339844 43.035156 C 18.453125 43.101562 18.578125 43.144531 18.683594 43.164062 C 18.792969 43.167969 18.886719 43.160156 18.972656 43.117188 C 19.058594 43.066406 19.144531 42.992188 19.226562 42.878906 C 19.390625 42.65625 19.511719 42.34375 19.585938 42.019531 C 19.675781 41.679688 19.695312 41.363281 19.707031 40.984375 C 19.730469 39.488281 19.621094 38.042969 19.402344 36.769531 C 19.292969 36.128906 19.15625 35.535156 18.960938 35.015625 C 18.765625 34.507812 18.484375 34.058594 18.160156 33.929688 C 17.941406 33.847656 17.804688 33.84375 17.625 33.878906 C 17.453125 33.917969 17.285156 34.003906 17.148438 34.113281 C 16.863281 34.328125 16.660156 34.597656 16.511719 34.816406 C 16.210938 35.265625 16.125 35.566406 16.066406 35.550781 C 16.019531 35.546875 16 35.207031 16.238281 34.664062 C 16.355469 34.402344 16.53125 34.074219 16.855469 33.769531 C 17.011719 33.621094 17.21875 33.476562 17.480469 33.386719 C 17.730469 33.292969 18.09375 33.300781 18.34375 33.390625 C 18.664062 33.488281 18.914062 33.714844 19.101562 33.960938 C 19.296875 34.199219 19.453125 34.472656 19.574219 34.757812 C 19.824219 35.339844 19.996094 35.96875 20.132812 36.628906 " fill-opacity="1" fill-rule="nonzero"/><path fill="#000000" d="M 18.511719 25.410156 C 18.722656 25.417969 18.960938 25.8125 18.875 26.472656 C 18.769531 27.078125 18.40625 27.46875 18.210938 27.382812 C 18 27.285156 17.996094 26.84375 18.078125 26.351562 C 18.144531 25.910156 18.28125 25.40625 18.511719 25.410156 " fill-opacity="1" fill-rule="nonzero"/><path fill="#000000" d="M 18.195312 45.605469 C 18.609375 46.003906 18.976562 46.386719 18.871094 46.589844 C 18.777344 46.78125 18.167969 46.695312 17.632812 46.179688 C 17.371094 45.921875 17.207031 45.613281 17.152344 45.355469 C 17.113281 45.121094 17.160156 44.964844 17.257812 44.914062 C 17.363281 44.867188 17.503906 44.957031 17.660156 45.105469 C 17.816406 45.21875 17.992188 45.402344 18.195312 45.605469 " fill-opacity="1" fill-rule="nonzero"/><path fill="#000000" d="M 18.453125 21.894531 C 18.660156 21.992188 18.429688 22.6875 18 23.335938 C 17.796875 23.660156 17.609375 23.941406 17.464844 24.121094 C 17.324219 24.335938 17.191406 24.492188 17.082031 24.457031 C 16.976562 24.429688 16.910156 24.25 16.921875 23.964844 C 16.953125 23.644531 17.09375 23.269531 17.316406 22.90625 C 17.78125 22.207031 18.257812 21.792969 18.453125 21.894531 " fill-opacity="1" fill-rule="nonzero"/><path fill="#000000" d="M 17.796875 30.78125 C 18.011719 30.792969 18.164062 31.234375 18 31.742188 C 17.804688 32.292969 17.453125 32.484375 17.261719 32.390625 C 17.058594 32.292969 17.128906 31.839844 17.238281 31.488281 C 17.363281 31.09375 17.566406 30.765625 17.796875 30.78125 " fill-opacity="1" fill-rule="nonzero"/><path fill="#000000" d="M 16.078125 27.042969 C 16.054688 27.058594 15.949219 27.164062 15.875 27.285156 C 15.796875 27.421875 15.714844 27.566406 15.648438 27.734375 C 15.515625 28.054688 15.398438 28.457031 15.273438 28.835938 C 15.011719 29.601562 14.796875 30.347656 14.800781 30.953125 C 14.800781 31.105469 14.824219 31.238281 14.863281 31.34375 C 14.875 31.414062 14.898438 31.410156 14.898438 31.457031 C 14.910156 31.476562 14.949219 31.515625 14.976562 31.539062 L 15.019531 31.582031 L 15.023438 31.59375 C 15.203125 31.710938 15.304688 31.714844 15.460938 31.621094 C 15.617188 31.511719 15.742188 31.320312 15.835938 31.152344 C 15.929688 30.980469 15.992188 30.8125 16.046875 30.679688 C 16.140625 30.417969 16.1875 30.246094 16.246094 30.246094 C 16.296875 30.246094 16.359375 30.410156 16.351562 30.738281 C 16.347656 30.898438 16.320312 31.09375 16.253906 31.320312 C 16.179688 31.542969 16.082031 31.804688 15.828125 32.054688 C 15.703125 32.179688 15.503906 32.28125 15.277344 32.304688 C 15.042969 32.328125 14.832031 32.242188 14.652344 32.144531 L 14.636719 32.136719 L 14.632812 32.136719 L 14.628906 32.128906 L 14.578125 32.097656 L 14.550781 32.070312 L 14.507812 32.03125 C 14.472656 32 14.449219 31.988281 14.414062 31.9375 C 14.339844 31.84375 14.238281 31.714844 14.207031 31.621094 C 14.117188 31.414062 14.074219 31.199219 14.058594 30.996094 C 14.011719 30.167969 14.25 29.375 14.507812 28.585938 C 14.640625 28.191406 14.746094 27.820312 14.925781 27.425781 C 15.007812 27.234375 15.109375 27.042969 15.234375 26.863281 C 15.367188 26.6875 15.5 26.488281 15.804688 26.355469 C 15.957031 26.289062 16.171875 26.292969 16.335938 26.367188 C 16.5 26.4375 16.59375 26.539062 16.667969 26.632812 C 16.816406 26.828125 16.886719 27.007812 16.9375 27.1875 C 17.035156 27.535156 17.0625 27.847656 17.066406 28.136719 C 17.066406 29.289062 16.6875 29.921875 16.605469 29.882812 C 16.484375 29.851562 16.636719 29.191406 16.5 28.179688 C 16.460938 27.929688 16.410156 27.652344 16.300781 27.402344 C 16.253906 27.277344 16.1875 27.152344 16.121094 27.082031 C 16.105469 27.066406 16.085938 27.054688 16.078125 27.042969 " fill-opacity="1" fill-rule="nonzero"/></svg>